M48
;DRILL file {KiCad 4.0.7-e2-6376~61~ubuntu18.04.1} date Wed Jun 27 21:08:28 2018
;FORMAT={-:-/ absolute / inch / decimal}
FMAT,2
INCH,TZ
T1C0.010
T2C0.016
T3C0.024
T4C0.035
T5C0.039
%
G90
G05
M72
T1
X0.748Y-7.3622
X0.8425Y-7.3307
X0.8819Y-7.1732
X0.8937Y-6.6457
X0.8976Y-7.3898
X0.9488Y-7.1732
X0.9488Y-7.2913
X0.9488Y-7.3307
X0.9646Y-6.6496
X0.9685Y-6.8858
X0.9882Y-7.1614
X1.063Y-6.0709
X1.063Y-6.1339
X1.063Y-6.1969
X1.0669Y-6.8858
X1.0846Y-6.9232
X1.1024Y-7.5945
X1.1378Y-7.189
X1.1437Y-6.9232
X1.1575Y-7.126
X1.1575Y-7.1654
X1.1732Y-7.1457
X1.1811Y-7.0866
X1.2402Y-7.3031
X1.2598Y-6.8504
X1.2598Y-7.2205
X1.2598Y-7.2835
X1.2795Y-6.8307
X1.3189Y-7.311
X1.3307Y-7.2598
X1.3504Y-7.311
X1.3819Y-6.3228
X1.4055Y-7.3386
X1.4488Y-6.2874
X1.4606Y-7.2402
X1.5Y-6.7047
X1.5039Y-7.2047
X1.5059Y-6.3484
X1.5059Y-6.5453
X1.5059Y-7.0295
X1.5059Y-7.0886
X1.5236Y-7.1811
X1.5945Y-6.378
X1.5945Y-6.5748
X1.6378Y-6.748
X1.6732Y-6.3465
X1.6831Y-6.5453
X1.7047Y-6.6654
X1.7087Y-6.4882
X1.7224Y-7.628
X1.7244Y-6.2283
X1.7244Y-6.685
X1.7362Y-6.4685
X1.7362Y-6.5079
X1.7382Y-6.3484
X1.7382Y-6.5492
X1.8268Y-6.378
X1.8268Y-6.5748
X1.8504Y-6.2913
X1.9055Y-6.3465
X1.9154Y-6.5492
X1.9213Y-6.4567
X1.9409Y-6.5197
X2.0315Y-6.9764
X2.0551Y-6.8622
X2.0866Y-6.8386
X2.1181Y-6.7087
T2
X0.6382Y-7.0053
X0.8189Y-6.5039
X0.9252Y-6.6535
X0.9291Y-6.752
X0.9646Y-6.8228
X1.5433Y-7.5591
X1.5433Y-7.622
T3
X0.6122Y-6.4252
X0.6561Y-7.0732
X0.6561Y-7.1232
X0.6561Y-7.1732
X0.6561Y-7.2232
X0.6561Y-7.2732
X0.7061Y-7.0732
X0.7061Y-7.1232
X0.7061Y-7.1732
X0.7061Y-7.2232
X0.7061Y-7.2732
X0.8071Y-6.8406
X0.9114Y-6.3425
X0.9567Y-6.2126
X2.Y-7.0827
X2.164Y-6.3567
X2.164Y-6.4067
X2.164Y-6.4567
X2.164Y-6.5067
X2.164Y-6.5567
X2.1732Y-7.0827
X2.214Y-6.3567
X2.214Y-6.4067
X2.214Y-6.4567
X2.214Y-6.5067
X2.214Y-6.5567
T4
X1.35Y-6.025
X1.35Y-6.125
X1.55Y-6.025
X1.55Y-6.125
X1.75Y-6.025
X1.75Y-6.125
X1.95Y-6.025
X1.95Y-6.125
T5
X0.6112Y-6.5904
X0.6112Y-6.8719
X0.747Y-6.5904
X0.747Y-6.8719
X2.065Y-7.2937
X2.065Y-7.3937
X2.065Y-7.4937
X2.065Y-7.5937
T0
M30
