%TF.GenerationSoftware,KiCad,Pcbnew,4.0.7-e2-6376~61~ubuntu18.04.1*%
%TF.CreationDate,2018-07-16T23:03:50+02:00*%
%TF.ProjectId,blackBoxProbe,626C61636B426F7850726F62652E6B69,rev?*%
%TF.FileFunction,Copper,L2,Inr,Signal*%
%FSLAX46Y46*%
G04 Gerber Fmt 4.6, Leading zero omitted, Abs format (unit mm)*
G04 Created by KiCad (PCBNEW 4.0.7-e2-6376~61~ubuntu18.04.1) date Mon Jul 16 23:03:50 2018*
%MOMM*%
%LPD*%
G01*
G04 APERTURE LIST*
%ADD10C,0.150000*%
%ADD11C,1.200000*%
%ADD12R,1.700000X1.700000*%
%ADD13O,1.700000X1.700000*%
%ADD14R,1.800000X1.800000*%
%ADD15C,1.800000*%
%ADD16R,0.750000X0.750000*%
%ADD17C,0.750000*%
%ADD18C,0.550000*%
%ADD19C,0.355600*%
%ADD20C,0.381000*%
%ADD21C,0.254000*%
G04 APERTURE END LIST*
D10*
D11*
X18975000Y-167395000D03*
X18975000Y-174545000D03*
X15525000Y-167395000D03*
X15525000Y-174545000D03*
D12*
X52450000Y-185260000D03*
D13*
X52450000Y-187800000D03*
X52450000Y-190340000D03*
X52450000Y-192880000D03*
D14*
X34290000Y-153035000D03*
D15*
X34290000Y-155575000D03*
D14*
X39370000Y-153035000D03*
D15*
X39370000Y-155575000D03*
D14*
X44450000Y-153035000D03*
D15*
X44450000Y-155575000D03*
D14*
X49530000Y-153035000D03*
D15*
X49530000Y-155575000D03*
D16*
X16665000Y-179660000D03*
D17*
X17935000Y-179660000D03*
X16665000Y-180930000D03*
X17935000Y-180930000D03*
X16665000Y-182200000D03*
X17935000Y-182200000D03*
X16665000Y-183470000D03*
X17935000Y-183470000D03*
X16665000Y-184740000D03*
X17935000Y-184740000D03*
D16*
X56235000Y-166540000D03*
D17*
X54965000Y-166540000D03*
X56235000Y-165270000D03*
X54965000Y-165270000D03*
X56235000Y-164000000D03*
X54965000Y-164000000D03*
X56235000Y-162730000D03*
X54965000Y-162730000D03*
X56235000Y-161460000D03*
X54965000Y-161460000D03*
D18*
X23500000Y-169000000D03*
X20800000Y-165200000D03*
X24500000Y-173300000D03*
D19*
X38250000Y-180450000D03*
X24600000Y-174900000D03*
X38200000Y-165300000D03*
D20*
X47000000Y-159800000D03*
D17*
X50800000Y-179900000D03*
D19*
X53800000Y-170400000D03*
X46400000Y-162000000D03*
X40500000Y-167000000D03*
X46400000Y-167000000D03*
X40500000Y-162000000D03*
X22800000Y-187700000D03*
X28000000Y-192900000D03*
X24500000Y-168900000D03*
D18*
X39200000Y-193600000D03*
D19*
X29050000Y-175850000D03*
D18*
X23600000Y-171500000D03*
D20*
X24100000Y-185200000D03*
D17*
X15550000Y-163200000D03*
X23150000Y-161100000D03*
D18*
X16210000Y-177935000D03*
D17*
X20500000Y-173750000D03*
D19*
X38250000Y-178950000D03*
X52000000Y-174200000D03*
X41200000Y-170300000D03*
X47000000Y-165300000D03*
X44500000Y-158200000D03*
D20*
X44150000Y-166350000D03*
D17*
X55200000Y-179900000D03*
D19*
X38250000Y-161250000D03*
X38250000Y-166250000D03*
X44150000Y-161250000D03*
X19000000Y-187000000D03*
D17*
X24300000Y-157800000D03*
D19*
X25100000Y-181900000D03*
X43750000Y-193750000D03*
D18*
X39200000Y-192000000D03*
D19*
X27550000Y-175850000D03*
D20*
X24100000Y-186200000D03*
D19*
X53000000Y-173700000D03*
X38200000Y-183000000D03*
D20*
X36800000Y-159700000D03*
D19*
X34300000Y-185700000D03*
D20*
X35100000Y-160600000D03*
D19*
X32000000Y-183400000D03*
X51600000Y-177200000D03*
X38700000Y-182400000D03*
X28900000Y-182600000D03*
X22700000Y-168800000D03*
X22400000Y-182200000D03*
X24100000Y-182200000D03*
X21400000Y-186200000D03*
X31500000Y-185500000D03*
X27100000Y-174900000D03*
X30000000Y-180000000D03*
D20*
X49300000Y-165600000D03*
X48800000Y-164000000D03*
D19*
X27000000Y-154200000D03*
X29400000Y-182000000D03*
X27000000Y-155800000D03*
X29800000Y-181500000D03*
X27000000Y-157400000D03*
X29400000Y-181000000D03*
X33500000Y-185700000D03*
X32500000Y-173500000D03*
X32000000Y-185000000D03*
X32000000Y-174000000D03*
D20*
X44100000Y-164300000D03*
X33800000Y-184400000D03*
X43300000Y-169300000D03*
X37100000Y-183900000D03*
D19*
X36100000Y-171000000D03*
X43800000Y-169800000D03*
D20*
X43400000Y-164800000D03*
X35700000Y-186400000D03*
X48650000Y-166350000D03*
D19*
X42500000Y-161200000D03*
X48400000Y-161200000D03*
X42750000Y-166250000D03*
X49200000Y-157600000D03*
D21*
G36*
X32755000Y-152008691D02*
X32755000Y-152749250D01*
X32913750Y-152908000D01*
X34163000Y-152908000D01*
X34163000Y-152888000D01*
X34417000Y-152888000D01*
X34417000Y-152908000D01*
X35666250Y-152908000D01*
X35825000Y-152749250D01*
X35825000Y-152008691D01*
X35804832Y-151960000D01*
X37855168Y-151960000D01*
X37835000Y-152008691D01*
X37835000Y-152749250D01*
X37993750Y-152908000D01*
X39243000Y-152908000D01*
X39243000Y-152888000D01*
X39497000Y-152888000D01*
X39497000Y-152908000D01*
X40746250Y-152908000D01*
X40905000Y-152749250D01*
X40905000Y-152008691D01*
X40884832Y-151960000D01*
X42935168Y-151960000D01*
X42915000Y-152008691D01*
X42915000Y-152749250D01*
X43073750Y-152908000D01*
X44323000Y-152908000D01*
X44323000Y-152888000D01*
X44577000Y-152888000D01*
X44577000Y-152908000D01*
X45826250Y-152908000D01*
X45985000Y-152749250D01*
X45985000Y-152008691D01*
X45964832Y-151960000D01*
X48015168Y-151960000D01*
X47995000Y-152008691D01*
X47995000Y-152749250D01*
X48153750Y-152908000D01*
X49403000Y-152908000D01*
X49403000Y-152888000D01*
X49657000Y-152888000D01*
X49657000Y-152908000D01*
X50906250Y-152908000D01*
X51065000Y-152749250D01*
X51065000Y-152008691D01*
X51044832Y-151960000D01*
X51340000Y-151960000D01*
X51340000Y-154500000D01*
X51353642Y-154568584D01*
X51353642Y-154638514D01*
X51582003Y-155786564D01*
X51654244Y-155960967D01*
X51688018Y-156042505D01*
X52338337Y-157015775D01*
X52534225Y-157211663D01*
X53507495Y-157861982D01*
X53585889Y-157894454D01*
X53763436Y-157967997D01*
X54911487Y-158196358D01*
X54981416Y-158196358D01*
X55050000Y-158210000D01*
X57590000Y-158210000D01*
X57590000Y-194540000D01*
X43966488Y-194540000D01*
X44209813Y-194439460D01*
X44438657Y-194211016D01*
X44562659Y-193912385D01*
X44562941Y-193589033D01*
X44439460Y-193290187D01*
X44211016Y-193061343D01*
X43912385Y-192937341D01*
X43589033Y-192937059D01*
X43290187Y-193060540D01*
X43061343Y-193288984D01*
X42937341Y-193587615D01*
X42937059Y-193910967D01*
X43060540Y-194209813D01*
X43288984Y-194438657D01*
X43533046Y-194540000D01*
X21260000Y-194540000D01*
X21260000Y-192180216D01*
X38289842Y-192180216D01*
X38428090Y-192514800D01*
X38683853Y-192771011D01*
X39018196Y-192909842D01*
X39380216Y-192910158D01*
X39469406Y-192873305D01*
X46914674Y-192873305D01*
X47201043Y-193566372D01*
X47730839Y-194097093D01*
X48423405Y-194384672D01*
X49173305Y-194385326D01*
X49866372Y-194098957D01*
X50397093Y-193569161D01*
X50535064Y-193236890D01*
X51008524Y-193236890D01*
X51178355Y-193646924D01*
X51568642Y-194075183D01*
X52093108Y-194321486D01*
X52323000Y-194200819D01*
X52323000Y-193007000D01*
X52577000Y-193007000D01*
X52577000Y-194200819D01*
X52806892Y-194321486D01*
X53331358Y-194075183D01*
X53721645Y-193646924D01*
X53891476Y-193236890D01*
X53770155Y-193007000D01*
X52577000Y-193007000D01*
X52323000Y-193007000D01*
X51129845Y-193007000D01*
X51008524Y-193236890D01*
X50535064Y-193236890D01*
X50684672Y-192876595D01*
X50685326Y-192126695D01*
X50398957Y-191433628D01*
X49869161Y-190902907D01*
X49176595Y-190615328D01*
X48426695Y-190614674D01*
X47733628Y-190901043D01*
X47202907Y-191430839D01*
X46915328Y-192123405D01*
X46914674Y-192873305D01*
X39469406Y-192873305D01*
X39714800Y-192771910D01*
X39971011Y-192516147D01*
X40109842Y-192181804D01*
X40110158Y-191819784D01*
X39971910Y-191485200D01*
X39716147Y-191228989D01*
X39381804Y-191090158D01*
X39019784Y-191089842D01*
X38685200Y-191228090D01*
X38428989Y-191483853D01*
X38290158Y-191818196D01*
X38289842Y-192180216D01*
X21260000Y-192180216D01*
X21260000Y-192000000D01*
X21246358Y-191931416D01*
X21246358Y-191861487D01*
X21017997Y-190713436D01*
X20911982Y-190457496D01*
X20911982Y-190457495D01*
X20261663Y-189484225D01*
X20065775Y-189288337D01*
X19092505Y-188638018D01*
X18836564Y-188532003D01*
X17688514Y-188303642D01*
X17618584Y-188303642D01*
X17550000Y-188290000D01*
X15010000Y-188290000D01*
X15010000Y-187160967D01*
X18187059Y-187160967D01*
X18310540Y-187459813D01*
X18538984Y-187688657D01*
X18837615Y-187812659D01*
X19160967Y-187812941D01*
X19192286Y-187800000D01*
X50935907Y-187800000D01*
X51048946Y-188368285D01*
X51370853Y-188850054D01*
X51700026Y-189070000D01*
X51370853Y-189289946D01*
X51048946Y-189771715D01*
X50935907Y-190340000D01*
X51048946Y-190908285D01*
X51370853Y-191390054D01*
X51711553Y-191617702D01*
X51568642Y-191684817D01*
X51178355Y-192113076D01*
X51008524Y-192523110D01*
X51129845Y-192753000D01*
X52323000Y-192753000D01*
X52323000Y-192733000D01*
X52577000Y-192733000D01*
X52577000Y-192753000D01*
X53770155Y-192753000D01*
X53891476Y-192523110D01*
X53721645Y-192113076D01*
X53331358Y-191684817D01*
X53188447Y-191617702D01*
X53529147Y-191390054D01*
X53851054Y-190908285D01*
X53964093Y-190340000D01*
X53851054Y-189771715D01*
X53529147Y-189289946D01*
X53199974Y-189070000D01*
X53529147Y-188850054D01*
X53851054Y-188368285D01*
X53964093Y-187800000D01*
X53851054Y-187231715D01*
X53529147Y-186749946D01*
X53487548Y-186722150D01*
X53535317Y-186713162D01*
X53751441Y-186574090D01*
X53896431Y-186361890D01*
X53947440Y-186110000D01*
X53947440Y-184410000D01*
X53903162Y-184174683D01*
X53764090Y-183958559D01*
X53551890Y-183813569D01*
X53300000Y-183762560D01*
X51600000Y-183762560D01*
X51364683Y-183806838D01*
X51148559Y-183945910D01*
X51003569Y-184158110D01*
X50952560Y-184410000D01*
X50952560Y-186110000D01*
X50996838Y-186345317D01*
X51135910Y-186561441D01*
X51348110Y-186706431D01*
X51415541Y-186720086D01*
X51370853Y-186749946D01*
X51048946Y-187231715D01*
X50935907Y-187800000D01*
X19192286Y-187800000D01*
X19459813Y-187689460D01*
X19688657Y-187461016D01*
X19812659Y-187162385D01*
X19812941Y-186839033D01*
X19689460Y-186540187D01*
X19510554Y-186360967D01*
X20587059Y-186360967D01*
X20710540Y-186659813D01*
X20938984Y-186888657D01*
X21237615Y-187012659D01*
X21560967Y-187012941D01*
X21859813Y-186889460D01*
X22088657Y-186661016D01*
X22212203Y-186363482D01*
X23274357Y-186363482D01*
X23399767Y-186666998D01*
X23631781Y-186899417D01*
X23935077Y-187025357D01*
X24263482Y-187025643D01*
X24566998Y-186900233D01*
X24799417Y-186668219D01*
X24925357Y-186364923D01*
X24925643Y-186036518D01*
X24800233Y-185733002D01*
X24728324Y-185660967D01*
X30687059Y-185660967D01*
X30810540Y-185959813D01*
X31038984Y-186188657D01*
X31337615Y-186312659D01*
X31660967Y-186312941D01*
X31959813Y-186189460D01*
X32188657Y-185961016D01*
X32230200Y-185860967D01*
X32687059Y-185860967D01*
X32810540Y-186159813D01*
X33038984Y-186388657D01*
X33337615Y-186512659D01*
X33660967Y-186512941D01*
X33900219Y-186414084D01*
X34137615Y-186512659D01*
X34460967Y-186512941D01*
X34759813Y-186389460D01*
X34874608Y-186274865D01*
X34874357Y-186563482D01*
X34999767Y-186866998D01*
X35231781Y-187099417D01*
X35535077Y-187225357D01*
X35863482Y-187225643D01*
X36166998Y-187100233D01*
X36399417Y-186868219D01*
X36525357Y-186564923D01*
X36525643Y-186236518D01*
X36400233Y-185933002D01*
X36168219Y-185700583D01*
X35864923Y-185574643D01*
X35536518Y-185574357D01*
X35233002Y-185699767D01*
X35112696Y-185819863D01*
X35112941Y-185539033D01*
X34989460Y-185240187D01*
X34761016Y-185011343D01*
X34475010Y-184892583D01*
X34499417Y-184868219D01*
X34625357Y-184564923D01*
X34625643Y-184236518D01*
X34554147Y-184063482D01*
X36274357Y-184063482D01*
X36399767Y-184366998D01*
X36631781Y-184599417D01*
X36935077Y-184725357D01*
X37263482Y-184725643D01*
X37566998Y-184600233D01*
X37799417Y-184368219D01*
X37925357Y-184064923D01*
X37925617Y-183766154D01*
X38037615Y-183812659D01*
X38360967Y-183812941D01*
X38659813Y-183689460D01*
X38888657Y-183461016D01*
X39012659Y-183162385D01*
X39012670Y-183150259D01*
X39159813Y-183089460D01*
X39388657Y-182861016D01*
X39512659Y-182562385D01*
X39512941Y-182239033D01*
X39389460Y-181940187D01*
X39161016Y-181711343D01*
X38862385Y-181587341D01*
X38539033Y-181587059D01*
X38240187Y-181710540D01*
X38011343Y-181938984D01*
X37887341Y-182237615D01*
X37887330Y-182249741D01*
X37740187Y-182310540D01*
X37511343Y-182538984D01*
X37387341Y-182837615D01*
X37387090Y-183125371D01*
X37264923Y-183074643D01*
X36936518Y-183074357D01*
X36633002Y-183199767D01*
X36400583Y-183431781D01*
X36274643Y-183735077D01*
X36274357Y-184063482D01*
X34554147Y-184063482D01*
X34500233Y-183933002D01*
X34268219Y-183700583D01*
X33964923Y-183574643D01*
X33636518Y-183574357D01*
X33333002Y-183699767D01*
X33100583Y-183931781D01*
X32974643Y-184235077D01*
X32974357Y-184563482D01*
X33099767Y-184866998D01*
X33183816Y-184951194D01*
X33040187Y-185010540D01*
X32811343Y-185238984D01*
X32687341Y-185537615D01*
X32687059Y-185860967D01*
X32230200Y-185860967D01*
X32268612Y-185768463D01*
X32459813Y-185689460D01*
X32688657Y-185461016D01*
X32812659Y-185162385D01*
X32812941Y-184839033D01*
X32689460Y-184540187D01*
X32461016Y-184311343D01*
X32192580Y-184199879D01*
X32459813Y-184089460D01*
X32688657Y-183861016D01*
X32812659Y-183562385D01*
X32812941Y-183239033D01*
X32689460Y-182940187D01*
X32461016Y-182711343D01*
X32162385Y-182587341D01*
X31839033Y-182587059D01*
X31540187Y-182710540D01*
X31311343Y-182938984D01*
X31187341Y-183237615D01*
X31187059Y-183560967D01*
X31310540Y-183859813D01*
X31538984Y-184088657D01*
X31807420Y-184200121D01*
X31540187Y-184310540D01*
X31311343Y-184538984D01*
X31231388Y-184731537D01*
X31040187Y-184810540D01*
X30811343Y-185038984D01*
X30687341Y-185337615D01*
X30687059Y-185660967D01*
X24728324Y-185660967D01*
X24568219Y-185500583D01*
X24264923Y-185374643D01*
X23936518Y-185374357D01*
X23633002Y-185499767D01*
X23400583Y-185731781D01*
X23274643Y-186035077D01*
X23274357Y-186363482D01*
X22212203Y-186363482D01*
X22212659Y-186362385D01*
X22212941Y-186039033D01*
X22089460Y-185740187D01*
X21861016Y-185511343D01*
X21562385Y-185387341D01*
X21239033Y-185387059D01*
X20940187Y-185510540D01*
X20711343Y-185738984D01*
X20587341Y-186037615D01*
X20587059Y-186360967D01*
X19510554Y-186360967D01*
X19461016Y-186311343D01*
X19162385Y-186187341D01*
X18839033Y-186187059D01*
X18540187Y-186310540D01*
X18311343Y-186538984D01*
X18187341Y-186837615D01*
X18187059Y-187160967D01*
X15010000Y-187160967D01*
X15010000Y-180814927D01*
X15641662Y-180814927D01*
X15675523Y-181215301D01*
X15763596Y-181427928D01*
X15965863Y-181449532D01*
X16485395Y-180930000D01*
X16471253Y-180915858D01*
X16650858Y-180736253D01*
X16665000Y-180750395D01*
X16679143Y-180736253D01*
X16858748Y-180915858D01*
X16844605Y-180930000D01*
X16858748Y-180944143D01*
X16679143Y-181123748D01*
X16665000Y-181109605D01*
X16581117Y-181193488D01*
X16379699Y-181210523D01*
X16167072Y-181298596D01*
X16145468Y-181500863D01*
X16209605Y-181565000D01*
X16145468Y-181629137D01*
X16167072Y-181831404D01*
X16549927Y-181953338D01*
X16594199Y-181949594D01*
X16665000Y-182020395D01*
X16679143Y-182006253D01*
X16858748Y-182185858D01*
X16844605Y-182200000D01*
X16858748Y-182214143D01*
X16679143Y-182393748D01*
X16665000Y-182379605D01*
X16650858Y-182393748D01*
X16471253Y-182214143D01*
X16485395Y-182200000D01*
X15965863Y-181680468D01*
X15763596Y-181702072D01*
X15641662Y-182084927D01*
X15675523Y-182485301D01*
X15763596Y-182697928D01*
X15965860Y-182719532D01*
X15848786Y-182836606D01*
X15859332Y-182847152D01*
X15809263Y-182897134D01*
X15655176Y-183268217D01*
X15654825Y-183670020D01*
X15808264Y-184041372D01*
X15859491Y-184092689D01*
X15848786Y-184103394D01*
X15965860Y-184220468D01*
X15763596Y-184242072D01*
X15641662Y-184624927D01*
X15675523Y-185025301D01*
X15763596Y-185237928D01*
X15965863Y-185259532D01*
X16485395Y-184740000D01*
X16471253Y-184725858D01*
X16650858Y-184546253D01*
X16665000Y-184560395D01*
X16679143Y-184546253D01*
X16858748Y-184725858D01*
X16844605Y-184740000D01*
X16858748Y-184754143D01*
X16679143Y-184933748D01*
X16665000Y-184919605D01*
X16145468Y-185439137D01*
X16167072Y-185641404D01*
X16549927Y-185763338D01*
X16950301Y-185729477D01*
X17162928Y-185641404D01*
X17184532Y-185439140D01*
X17301606Y-185556214D01*
X17312152Y-185545668D01*
X17362134Y-185595737D01*
X17733217Y-185749824D01*
X18135020Y-185750175D01*
X18506372Y-185596736D01*
X18790737Y-185312866D01*
X18944824Y-184941783D01*
X18945175Y-184539980D01*
X18791736Y-184168628D01*
X18728356Y-184105138D01*
X18790737Y-184042866D01*
X18944824Y-183671783D01*
X18945175Y-183269980D01*
X18791736Y-182898628D01*
X18728356Y-182835138D01*
X18790737Y-182772866D01*
X18944824Y-182401783D01*
X18944859Y-182360967D01*
X21587059Y-182360967D01*
X21710540Y-182659813D01*
X21938984Y-182888657D01*
X22237615Y-183012659D01*
X22560967Y-183012941D01*
X22859813Y-182889460D01*
X23088657Y-182661016D01*
X23212659Y-182362385D01*
X23212660Y-182360967D01*
X23287059Y-182360967D01*
X23410540Y-182659813D01*
X23638984Y-182888657D01*
X23937615Y-183012659D01*
X24260967Y-183012941D01*
X24559813Y-182889460D01*
X24688530Y-182760967D01*
X28087059Y-182760967D01*
X28210540Y-183059813D01*
X28438984Y-183288657D01*
X28737615Y-183412659D01*
X29060967Y-183412941D01*
X29359813Y-183289460D01*
X29588657Y-183061016D01*
X29712659Y-182762385D01*
X29712670Y-182750259D01*
X29859813Y-182689460D01*
X30088657Y-182461016D01*
X30189322Y-182218586D01*
X30259813Y-182189460D01*
X30488657Y-181961016D01*
X30612659Y-181662385D01*
X30612941Y-181339033D01*
X30489460Y-181040187D01*
X30261016Y-180811343D01*
X30213044Y-180791423D01*
X30459813Y-180689460D01*
X30688657Y-180461016D01*
X30812659Y-180162385D01*
X30812713Y-180100020D01*
X54189825Y-180100020D01*
X54343264Y-180471372D01*
X54627134Y-180755737D01*
X54998217Y-180909824D01*
X55400020Y-180910175D01*
X55771372Y-180756736D01*
X56055737Y-180472866D01*
X56209824Y-180101783D01*
X56210175Y-179699980D01*
X56056736Y-179328628D01*
X55772866Y-179044263D01*
X55401783Y-178890176D01*
X54999980Y-178889825D01*
X54628628Y-179043264D01*
X54344263Y-179327134D01*
X54190176Y-179698217D01*
X54189825Y-180100020D01*
X30812713Y-180100020D01*
X30812941Y-179839033D01*
X30689460Y-179540187D01*
X30461016Y-179311343D01*
X30162385Y-179187341D01*
X29839033Y-179187059D01*
X29540187Y-179310540D01*
X29311343Y-179538984D01*
X29187341Y-179837615D01*
X29187059Y-180160967D01*
X29203847Y-180201598D01*
X28940187Y-180310540D01*
X28711343Y-180538984D01*
X28587341Y-180837615D01*
X28587059Y-181160967D01*
X28710540Y-181459813D01*
X28750526Y-181499869D01*
X28711343Y-181538984D01*
X28587341Y-181837615D01*
X28587330Y-181849741D01*
X28440187Y-181910540D01*
X28211343Y-182138984D01*
X28087341Y-182437615D01*
X28087059Y-182760967D01*
X24688530Y-182760967D01*
X24788657Y-182661016D01*
X24792273Y-182652308D01*
X24937615Y-182712659D01*
X25260967Y-182712941D01*
X25559813Y-182589460D01*
X25788657Y-182361016D01*
X25912659Y-182062385D01*
X25912941Y-181739033D01*
X25789460Y-181440187D01*
X25561016Y-181211343D01*
X25262385Y-181087341D01*
X24939033Y-181087059D01*
X24640187Y-181210540D01*
X24411343Y-181438984D01*
X24407727Y-181447692D01*
X24262385Y-181387341D01*
X23939033Y-181387059D01*
X23640187Y-181510540D01*
X23411343Y-181738984D01*
X23287341Y-182037615D01*
X23287059Y-182360967D01*
X23212660Y-182360967D01*
X23212941Y-182039033D01*
X23089460Y-181740187D01*
X22861016Y-181511343D01*
X22562385Y-181387341D01*
X22239033Y-181387059D01*
X21940187Y-181510540D01*
X21711343Y-181738984D01*
X21587341Y-182037615D01*
X21587059Y-182360967D01*
X18944859Y-182360967D01*
X18945175Y-181999980D01*
X18791736Y-181628628D01*
X18728356Y-181565138D01*
X18790737Y-181502866D01*
X18944824Y-181131783D01*
X18945175Y-180729980D01*
X18791736Y-180358628D01*
X18728356Y-180295138D01*
X18790737Y-180232866D01*
X18944824Y-179861783D01*
X18945175Y-179459980D01*
X18800967Y-179110967D01*
X37437059Y-179110967D01*
X37560540Y-179409813D01*
X37788984Y-179638657D01*
X38087615Y-179762659D01*
X38410967Y-179762941D01*
X38709813Y-179639460D01*
X38938657Y-179411016D01*
X39062659Y-179112385D01*
X39062941Y-178789033D01*
X38939460Y-178490187D01*
X38711016Y-178261343D01*
X38412385Y-178137341D01*
X38089033Y-178137059D01*
X37790187Y-178260540D01*
X37561343Y-178488984D01*
X37437341Y-178787615D01*
X37437059Y-179110967D01*
X18800967Y-179110967D01*
X18791736Y-179088628D01*
X18507866Y-178804263D01*
X18136783Y-178650176D01*
X17734980Y-178649825D01*
X17423528Y-178778514D01*
X17291890Y-178688569D01*
X17040000Y-178637560D01*
X16290000Y-178637560D01*
X16054683Y-178681838D01*
X15838559Y-178820910D01*
X15693569Y-179033110D01*
X15642560Y-179285000D01*
X15642560Y-180035000D01*
X15686838Y-180270317D01*
X15789167Y-180429341D01*
X15763596Y-180432072D01*
X15641662Y-180814927D01*
X15010000Y-180814927D01*
X15010000Y-177360967D01*
X50787059Y-177360967D01*
X50910540Y-177659813D01*
X51138984Y-177888657D01*
X51437615Y-178012659D01*
X51760967Y-178012941D01*
X52059813Y-177889460D01*
X52288657Y-177661016D01*
X52412659Y-177362385D01*
X52412941Y-177039033D01*
X52289460Y-176740187D01*
X52061016Y-176511343D01*
X51762385Y-176387341D01*
X51439033Y-176387059D01*
X51140187Y-176510540D01*
X50911343Y-176738984D01*
X50787341Y-177037615D01*
X50787059Y-177360967D01*
X15010000Y-177360967D01*
X15010000Y-175668391D01*
X15278266Y-175779785D01*
X15769579Y-175780214D01*
X16223657Y-175592592D01*
X16571371Y-175245485D01*
X16759785Y-174791734D01*
X16760214Y-174300421D01*
X16572592Y-173846343D01*
X16225485Y-173498629D01*
X15771734Y-173310215D01*
X15280421Y-173309786D01*
X15010000Y-173421522D01*
X15010000Y-173174971D01*
X16789821Y-173174971D01*
X16947058Y-173555515D01*
X17237954Y-173846919D01*
X17618223Y-174004820D01*
X17861976Y-174005033D01*
X17740215Y-174298266D01*
X17739786Y-174789579D01*
X17927408Y-175243657D01*
X18274515Y-175591371D01*
X18728266Y-175779785D01*
X19219579Y-175780214D01*
X19673657Y-175592592D01*
X20021371Y-175245485D01*
X20097989Y-175060967D01*
X26287059Y-175060967D01*
X26410540Y-175359813D01*
X26638984Y-175588657D01*
X26757924Y-175638045D01*
X26737341Y-175687615D01*
X26737059Y-176010967D01*
X26860540Y-176309813D01*
X27088984Y-176538657D01*
X27387615Y-176662659D01*
X27710967Y-176662941D01*
X28009813Y-176539460D01*
X28238657Y-176311016D01*
X28362659Y-176012385D01*
X28362941Y-175689033D01*
X28239460Y-175390187D01*
X28011016Y-175161343D01*
X27892076Y-175111955D01*
X27912659Y-175062385D01*
X27912941Y-174739033D01*
X27789460Y-174440187D01*
X27561016Y-174211343D01*
X27439697Y-174160967D01*
X31187059Y-174160967D01*
X31310540Y-174459813D01*
X31538984Y-174688657D01*
X31837615Y-174812659D01*
X32160967Y-174812941D01*
X32459813Y-174689460D01*
X32688657Y-174461016D01*
X32730200Y-174360967D01*
X51187059Y-174360967D01*
X51310540Y-174659813D01*
X51538984Y-174888657D01*
X51837615Y-175012659D01*
X52160967Y-175012941D01*
X52459813Y-174889460D01*
X52688657Y-174661016D01*
X52763107Y-174481721D01*
X52837615Y-174512659D01*
X53160967Y-174512941D01*
X53459813Y-174389460D01*
X53688657Y-174161016D01*
X53812659Y-173862385D01*
X53812941Y-173539033D01*
X53689460Y-173240187D01*
X53461016Y-173011343D01*
X53162385Y-172887341D01*
X52839033Y-172887059D01*
X52540187Y-173010540D01*
X52311343Y-173238984D01*
X52236893Y-173418279D01*
X52162385Y-173387341D01*
X51839033Y-173387059D01*
X51540187Y-173510540D01*
X51311343Y-173738984D01*
X51187341Y-174037615D01*
X51187059Y-174360967D01*
X32730200Y-174360967D01*
X32768612Y-174268463D01*
X32959813Y-174189460D01*
X33188657Y-173961016D01*
X33312659Y-173662385D01*
X33312941Y-173339033D01*
X33189460Y-173040187D01*
X32961016Y-172811343D01*
X32662385Y-172687341D01*
X32339033Y-172687059D01*
X32040187Y-172810540D01*
X31811343Y-173038984D01*
X31731388Y-173231537D01*
X31540187Y-173310540D01*
X31311343Y-173538984D01*
X31187341Y-173837615D01*
X31187059Y-174160967D01*
X27439697Y-174160967D01*
X27262385Y-174087341D01*
X26939033Y-174087059D01*
X26640187Y-174210540D01*
X26411343Y-174438984D01*
X26287341Y-174737615D01*
X26287059Y-175060967D01*
X20097989Y-175060967D01*
X20209785Y-174791734D01*
X20210214Y-174300421D01*
X20022592Y-173846343D01*
X19675485Y-173498629D01*
X19631142Y-173480216D01*
X23589842Y-173480216D01*
X23728090Y-173814800D01*
X23983853Y-174071011D01*
X24318196Y-174209842D01*
X24680216Y-174210158D01*
X25014800Y-174071910D01*
X25271011Y-173816147D01*
X25409842Y-173481804D01*
X25410158Y-173119784D01*
X25271910Y-172785200D01*
X25016147Y-172528989D01*
X24681804Y-172390158D01*
X24319784Y-172389842D01*
X23985200Y-172528090D01*
X23728989Y-172783853D01*
X23590158Y-173118196D01*
X23589842Y-173480216D01*
X19631142Y-173480216D01*
X19221734Y-173310215D01*
X18804563Y-173309851D01*
X18859820Y-173176777D01*
X18860179Y-172765029D01*
X18702942Y-172384485D01*
X18412046Y-172093081D01*
X18031777Y-171935180D01*
X17620029Y-171934821D01*
X17239485Y-172092058D01*
X16948081Y-172382954D01*
X16790180Y-172763223D01*
X16789821Y-173174971D01*
X15010000Y-173174971D01*
X15010000Y-171160967D01*
X35287059Y-171160967D01*
X35410540Y-171459813D01*
X35638984Y-171688657D01*
X35937615Y-171812659D01*
X36260967Y-171812941D01*
X36559813Y-171689460D01*
X36788657Y-171461016D01*
X36912659Y-171162385D01*
X36912941Y-170839033D01*
X36789460Y-170540187D01*
X36710379Y-170460967D01*
X40387059Y-170460967D01*
X40510540Y-170759813D01*
X40738984Y-170988657D01*
X41037615Y-171112659D01*
X41360967Y-171112941D01*
X41659813Y-170989460D01*
X41888657Y-170761016D01*
X42012659Y-170462385D01*
X42012941Y-170139033D01*
X41889460Y-169840187D01*
X41661016Y-169611343D01*
X41362385Y-169487341D01*
X41039033Y-169487059D01*
X40740187Y-169610540D01*
X40511343Y-169838984D01*
X40387341Y-170137615D01*
X40387059Y-170460967D01*
X36710379Y-170460967D01*
X36561016Y-170311343D01*
X36262385Y-170187341D01*
X35939033Y-170187059D01*
X35640187Y-170310540D01*
X35411343Y-170538984D01*
X35287341Y-170837615D01*
X35287059Y-171160967D01*
X15010000Y-171160967D01*
X15010000Y-169174971D01*
X16789821Y-169174971D01*
X16947058Y-169555515D01*
X17237954Y-169846919D01*
X17618223Y-170004820D01*
X18029971Y-170005179D01*
X18410515Y-169847942D01*
X18701919Y-169557046D01*
X18859820Y-169176777D01*
X18860008Y-168960967D01*
X21887059Y-168960967D01*
X22010540Y-169259813D01*
X22238984Y-169488657D01*
X22537615Y-169612659D01*
X22826029Y-169612911D01*
X22983853Y-169771011D01*
X23318196Y-169909842D01*
X23680216Y-169910158D01*
X24014800Y-169771910D01*
X24271011Y-169516147D01*
X24292879Y-169463482D01*
X42474357Y-169463482D01*
X42599767Y-169766998D01*
X42831781Y-169999417D01*
X43038396Y-170085211D01*
X43110540Y-170259813D01*
X43338984Y-170488657D01*
X43637615Y-170612659D01*
X43960967Y-170612941D01*
X44259813Y-170489460D01*
X44488657Y-170261016D01*
X44612659Y-169962385D01*
X44612941Y-169639033D01*
X44489460Y-169340187D01*
X44261016Y-169111343D01*
X44085050Y-169038276D01*
X44000233Y-168833002D01*
X43768219Y-168600583D01*
X43464923Y-168474643D01*
X43136518Y-168474357D01*
X42833002Y-168599767D01*
X42600583Y-168831781D01*
X42474643Y-169135077D01*
X42474357Y-169463482D01*
X24292879Y-169463482D01*
X24409842Y-169181804D01*
X24410158Y-168819784D01*
X24271910Y-168485200D01*
X24016147Y-168228989D01*
X23681804Y-168090158D01*
X23319784Y-168089842D01*
X23192184Y-168142566D01*
X23161016Y-168111343D01*
X22862385Y-167987341D01*
X22539033Y-167987059D01*
X22240187Y-168110540D01*
X22011343Y-168338984D01*
X21887341Y-168637615D01*
X21887059Y-168960967D01*
X18860008Y-168960967D01*
X18860179Y-168765029D01*
X18804325Y-168629851D01*
X19219579Y-168630214D01*
X19673657Y-168442592D01*
X20021371Y-168095485D01*
X20209785Y-167641734D01*
X20210214Y-167150421D01*
X20022592Y-166696343D01*
X19737715Y-166410967D01*
X37437059Y-166410967D01*
X37560540Y-166709813D01*
X37788984Y-166938657D01*
X38087615Y-167062659D01*
X38410967Y-167062941D01*
X38709813Y-166939460D01*
X38938657Y-166711016D01*
X39062659Y-166412385D01*
X39062660Y-166410967D01*
X41937059Y-166410967D01*
X42060540Y-166709813D01*
X42288984Y-166938657D01*
X42587615Y-167062659D01*
X42910967Y-167062941D01*
X43209813Y-166939460D01*
X43415520Y-166734113D01*
X43449767Y-166816998D01*
X43681781Y-167049417D01*
X43985077Y-167175357D01*
X44313482Y-167175643D01*
X44616998Y-167050233D01*
X44849417Y-166818219D01*
X44975357Y-166514923D01*
X44975358Y-166513482D01*
X47824357Y-166513482D01*
X47949767Y-166816998D01*
X48181781Y-167049417D01*
X48485077Y-167175357D01*
X48813482Y-167175643D01*
X49116998Y-167050233D01*
X49349417Y-166818219D01*
X49475357Y-166514923D01*
X49475439Y-166420702D01*
X49766998Y-166300233D01*
X49999417Y-166068219D01*
X50125357Y-165764923D01*
X50125643Y-165436518D01*
X50000233Y-165133002D01*
X49768219Y-164900583D01*
X49464923Y-164774643D01*
X49136518Y-164774357D01*
X48833002Y-164899767D01*
X48600583Y-165131781D01*
X48474643Y-165435077D01*
X48474561Y-165529298D01*
X48183002Y-165649767D01*
X47950583Y-165881781D01*
X47824643Y-166185077D01*
X47824357Y-166513482D01*
X44975358Y-166513482D01*
X44975643Y-166186518D01*
X44850233Y-165883002D01*
X44618219Y-165650583D01*
X44314923Y-165524643D01*
X43986518Y-165524357D01*
X43683002Y-165649767D01*
X43469502Y-165862895D01*
X43439460Y-165790187D01*
X43274953Y-165625392D01*
X43563482Y-165625643D01*
X43866998Y-165500233D01*
X43906332Y-165460967D01*
X46187059Y-165460967D01*
X46310540Y-165759813D01*
X46538984Y-165988657D01*
X46837615Y-166112659D01*
X47160967Y-166112941D01*
X47459813Y-165989460D01*
X47688657Y-165761016D01*
X47812659Y-165462385D01*
X47812941Y-165139033D01*
X47689460Y-164840187D01*
X47461016Y-164611343D01*
X47162385Y-164487341D01*
X46839033Y-164487059D01*
X46540187Y-164610540D01*
X46311343Y-164838984D01*
X46187341Y-165137615D01*
X46187059Y-165460967D01*
X43906332Y-165460967D01*
X44099417Y-165268219D01*
X44158658Y-165125552D01*
X44263482Y-165125643D01*
X44566998Y-165000233D01*
X44799417Y-164768219D01*
X44925357Y-164464923D01*
X44925619Y-164163482D01*
X47974357Y-164163482D01*
X48099767Y-164466998D01*
X48331781Y-164699417D01*
X48635077Y-164825357D01*
X48963482Y-164825643D01*
X49266998Y-164700233D01*
X49499417Y-164468219D01*
X49625357Y-164164923D01*
X49625643Y-163836518D01*
X49500233Y-163533002D01*
X49268219Y-163300583D01*
X48964923Y-163174643D01*
X48636518Y-163174357D01*
X48333002Y-163299767D01*
X48100583Y-163531781D01*
X47974643Y-163835077D01*
X47974357Y-164163482D01*
X44925619Y-164163482D01*
X44925643Y-164136518D01*
X44800233Y-163833002D01*
X44568219Y-163600583D01*
X44264923Y-163474643D01*
X43936518Y-163474357D01*
X43633002Y-163599767D01*
X43400583Y-163831781D01*
X43341342Y-163974448D01*
X43236518Y-163974357D01*
X42933002Y-164099767D01*
X42700583Y-164331781D01*
X42574643Y-164635077D01*
X42574357Y-164963482D01*
X42699767Y-165266998D01*
X42869776Y-165437304D01*
X42589033Y-165437059D01*
X42290187Y-165560540D01*
X42061343Y-165788984D01*
X41937341Y-166087615D01*
X41937059Y-166410967D01*
X39062660Y-166410967D01*
X39062941Y-166089033D01*
X38939460Y-165790187D01*
X38711016Y-165561343D01*
X38412385Y-165437341D01*
X38089033Y-165437059D01*
X37790187Y-165560540D01*
X37561343Y-165788984D01*
X37437341Y-166087615D01*
X37437059Y-166410967D01*
X19737715Y-166410967D01*
X19675485Y-166348629D01*
X19221734Y-166160215D01*
X18730421Y-166159786D01*
X18276343Y-166347408D01*
X17928629Y-166694515D01*
X17740215Y-167148266D01*
X17739786Y-167639579D01*
X17861865Y-167935032D01*
X17620029Y-167934821D01*
X17239485Y-168092058D01*
X16948081Y-168382954D01*
X16790180Y-168763223D01*
X16789821Y-169174971D01*
X15010000Y-169174971D01*
X15010000Y-168518391D01*
X15278266Y-168629785D01*
X15769579Y-168630214D01*
X16223657Y-168442592D01*
X16571371Y-168095485D01*
X16759785Y-167641734D01*
X16760214Y-167150421D01*
X16572592Y-166696343D01*
X16225485Y-166348629D01*
X15771734Y-166160215D01*
X15280421Y-166159786D01*
X15010000Y-166271522D01*
X15010000Y-165380216D01*
X19889842Y-165380216D01*
X20028090Y-165714800D01*
X20283853Y-165971011D01*
X20618196Y-166109842D01*
X20980216Y-166110158D01*
X21314800Y-165971910D01*
X21571011Y-165716147D01*
X21709842Y-165381804D01*
X21710158Y-165019784D01*
X21571910Y-164685200D01*
X21316147Y-164428989D01*
X20981804Y-164290158D01*
X20619784Y-164289842D01*
X20285200Y-164428090D01*
X20028989Y-164683853D01*
X19890158Y-165018196D01*
X19889842Y-165380216D01*
X15010000Y-165380216D01*
X15010000Y-160763482D01*
X34274357Y-160763482D01*
X34399767Y-161066998D01*
X34631781Y-161299417D01*
X34935077Y-161425357D01*
X35263482Y-161425643D01*
X35299000Y-161410967D01*
X37437059Y-161410967D01*
X37560540Y-161709813D01*
X37788984Y-161938657D01*
X38087615Y-162062659D01*
X38410967Y-162062941D01*
X38709813Y-161939460D01*
X38938657Y-161711016D01*
X39062659Y-161412385D01*
X39062703Y-161360967D01*
X41687059Y-161360967D01*
X41810540Y-161659813D01*
X42038984Y-161888657D01*
X42337615Y-162012659D01*
X42660967Y-162012941D01*
X42959813Y-161889460D01*
X43188657Y-161661016D01*
X43292486Y-161410967D01*
X43337059Y-161410967D01*
X43460540Y-161709813D01*
X43688984Y-161938657D01*
X43987615Y-162062659D01*
X44310967Y-162062941D01*
X44609813Y-161939460D01*
X44838657Y-161711016D01*
X44962659Y-161412385D01*
X44962703Y-161360967D01*
X47587059Y-161360967D01*
X47710540Y-161659813D01*
X47938984Y-161888657D01*
X48237615Y-162012659D01*
X48560967Y-162012941D01*
X48859813Y-161889460D01*
X49088657Y-161661016D01*
X49089070Y-161660020D01*
X53954825Y-161660020D01*
X54108264Y-162031372D01*
X54171644Y-162094862D01*
X54109263Y-162157134D01*
X53955176Y-162528217D01*
X53954825Y-162930020D01*
X54108264Y-163301372D01*
X54171644Y-163364862D01*
X54109263Y-163427134D01*
X53955176Y-163798217D01*
X53954825Y-164200020D01*
X54108264Y-164571372D01*
X54171644Y-164634862D01*
X54109263Y-164697134D01*
X53955176Y-165068217D01*
X53954825Y-165470020D01*
X54108264Y-165841372D01*
X54171644Y-165904862D01*
X54109263Y-165967134D01*
X53955176Y-166338217D01*
X53954825Y-166740020D01*
X54108264Y-167111372D01*
X54392134Y-167395737D01*
X54763217Y-167549824D01*
X55165020Y-167550175D01*
X55476472Y-167421486D01*
X55608110Y-167511431D01*
X55860000Y-167562440D01*
X56610000Y-167562440D01*
X56845317Y-167518162D01*
X57061441Y-167379090D01*
X57206431Y-167166890D01*
X57257440Y-166915000D01*
X57257440Y-166165000D01*
X57213162Y-165929683D01*
X57110833Y-165770659D01*
X57136404Y-165767928D01*
X57258338Y-165385073D01*
X57224477Y-164984699D01*
X57136404Y-164772072D01*
X56934137Y-164750468D01*
X56414605Y-165270000D01*
X56428748Y-165284143D01*
X56249143Y-165463748D01*
X56235000Y-165449605D01*
X56220858Y-165463748D01*
X56041253Y-165284143D01*
X56055395Y-165270000D01*
X56041253Y-165255858D01*
X56220858Y-165076253D01*
X56235000Y-165090395D01*
X56318883Y-165006512D01*
X56520301Y-164989477D01*
X56732928Y-164901404D01*
X56754532Y-164699137D01*
X56690395Y-164635000D01*
X56754532Y-164570863D01*
X56732928Y-164368596D01*
X56350073Y-164246662D01*
X56305801Y-164250406D01*
X56235000Y-164179605D01*
X56220858Y-164193748D01*
X56041253Y-164014143D01*
X56055395Y-164000000D01*
X56041253Y-163985858D01*
X56220858Y-163806253D01*
X56235000Y-163820395D01*
X56249143Y-163806253D01*
X56428748Y-163985858D01*
X56414605Y-164000000D01*
X56934137Y-164519532D01*
X57136404Y-164497928D01*
X57258338Y-164115073D01*
X57224477Y-163714699D01*
X57136404Y-163502072D01*
X56934140Y-163480468D01*
X57051214Y-163363394D01*
X57040668Y-163352848D01*
X57090737Y-163302866D01*
X57244824Y-162931783D01*
X57245175Y-162529980D01*
X57091736Y-162158628D01*
X57040509Y-162107311D01*
X57051214Y-162096606D01*
X56934140Y-161979532D01*
X57136404Y-161957928D01*
X57258338Y-161575073D01*
X57224477Y-161174699D01*
X57136404Y-160962072D01*
X56934137Y-160940468D01*
X56414605Y-161460000D01*
X56428748Y-161474143D01*
X56249143Y-161653748D01*
X56235000Y-161639605D01*
X56220858Y-161653748D01*
X56041253Y-161474143D01*
X56055395Y-161460000D01*
X56041253Y-161445858D01*
X56220858Y-161266253D01*
X56235000Y-161280395D01*
X56754532Y-160760863D01*
X56732928Y-160558596D01*
X56350073Y-160436662D01*
X55949699Y-160470523D01*
X55737072Y-160558596D01*
X55715468Y-160760860D01*
X55598394Y-160643786D01*
X55587848Y-160654332D01*
X55537866Y-160604263D01*
X55166783Y-160450176D01*
X54764980Y-160449825D01*
X54393628Y-160603264D01*
X54109263Y-160887134D01*
X53955176Y-161258217D01*
X53954825Y-161660020D01*
X49089070Y-161660020D01*
X49212659Y-161362385D01*
X49212941Y-161039033D01*
X49089460Y-160740187D01*
X48861016Y-160511343D01*
X48562385Y-160387341D01*
X48239033Y-160387059D01*
X47940187Y-160510540D01*
X47711343Y-160738984D01*
X47587341Y-161037615D01*
X47587059Y-161360967D01*
X44962703Y-161360967D01*
X44962941Y-161089033D01*
X44839460Y-160790187D01*
X44611016Y-160561343D01*
X44312385Y-160437341D01*
X43989033Y-160437059D01*
X43690187Y-160560540D01*
X43461343Y-160788984D01*
X43337341Y-161087615D01*
X43337059Y-161410967D01*
X43292486Y-161410967D01*
X43312659Y-161362385D01*
X43312941Y-161039033D01*
X43189460Y-160740187D01*
X42961016Y-160511343D01*
X42662385Y-160387341D01*
X42339033Y-160387059D01*
X42040187Y-160510540D01*
X41811343Y-160738984D01*
X41687341Y-161037615D01*
X41687059Y-161360967D01*
X39062703Y-161360967D01*
X39062941Y-161089033D01*
X38939460Y-160790187D01*
X38711016Y-160561343D01*
X38412385Y-160437341D01*
X38089033Y-160437059D01*
X37790187Y-160560540D01*
X37561343Y-160788984D01*
X37437341Y-161087615D01*
X37437059Y-161410967D01*
X35299000Y-161410967D01*
X35566998Y-161300233D01*
X35799417Y-161068219D01*
X35925357Y-160764923D01*
X35925643Y-160436518D01*
X35800233Y-160133002D01*
X35568219Y-159900583D01*
X35478871Y-159863482D01*
X35974357Y-159863482D01*
X36099767Y-160166998D01*
X36331781Y-160399417D01*
X36635077Y-160525357D01*
X36963482Y-160525643D01*
X37266998Y-160400233D01*
X37499417Y-160168219D01*
X37625357Y-159864923D01*
X37625643Y-159536518D01*
X37500233Y-159233002D01*
X37268219Y-159000583D01*
X36964923Y-158874643D01*
X36636518Y-158874357D01*
X36333002Y-158999767D01*
X36100583Y-159231781D01*
X35974643Y-159535077D01*
X35974357Y-159863482D01*
X35478871Y-159863482D01*
X35264923Y-159774643D01*
X34936518Y-159774357D01*
X34633002Y-159899767D01*
X34400583Y-160131781D01*
X34274643Y-160435077D01*
X34274357Y-160763482D01*
X15010000Y-160763482D01*
X15010000Y-158000020D01*
X23289825Y-158000020D01*
X23443264Y-158371372D01*
X23727134Y-158655737D01*
X24098217Y-158809824D01*
X24500020Y-158810175D01*
X24871372Y-158656736D01*
X25155737Y-158372866D01*
X25160677Y-158360967D01*
X43687059Y-158360967D01*
X43810540Y-158659813D01*
X44038984Y-158888657D01*
X44337615Y-159012659D01*
X44660967Y-159012941D01*
X44959813Y-158889460D01*
X45188657Y-158661016D01*
X45312659Y-158362385D01*
X45312941Y-158039033D01*
X45189460Y-157740187D01*
X44961016Y-157511343D01*
X44662385Y-157387341D01*
X44339033Y-157387059D01*
X44040187Y-157510540D01*
X43811343Y-157738984D01*
X43687341Y-158037615D01*
X43687059Y-158360967D01*
X25160677Y-158360967D01*
X25309824Y-158001783D01*
X25310175Y-157599980D01*
X25156736Y-157228628D01*
X24872866Y-156944263D01*
X24501783Y-156790176D01*
X24099980Y-156789825D01*
X23728628Y-156943264D01*
X23444263Y-157227134D01*
X23290176Y-157598217D01*
X23289825Y-158000020D01*
X15010000Y-158000020D01*
X15010000Y-154373305D01*
X21914674Y-154373305D01*
X22201043Y-155066372D01*
X22730839Y-155597093D01*
X23423405Y-155884672D01*
X24173305Y-155885326D01*
X24866372Y-155598957D01*
X25397093Y-155069161D01*
X25684672Y-154376595D01*
X25684685Y-154360967D01*
X26187059Y-154360967D01*
X26310540Y-154659813D01*
X26538984Y-154888657D01*
X26807420Y-155000121D01*
X26540187Y-155110540D01*
X26311343Y-155338984D01*
X26187341Y-155637615D01*
X26187059Y-155960967D01*
X26310540Y-156259813D01*
X26538984Y-156488657D01*
X26807420Y-156600121D01*
X26540187Y-156710540D01*
X26311343Y-156938984D01*
X26187341Y-157237615D01*
X26187059Y-157560967D01*
X26310540Y-157859813D01*
X26538984Y-158088657D01*
X26837615Y-158212659D01*
X27160967Y-158212941D01*
X27459813Y-158089460D01*
X27688657Y-157861016D01*
X27812659Y-157562385D01*
X27812941Y-157239033D01*
X27689460Y-156940187D01*
X27461016Y-156711343D01*
X27192580Y-156599879D01*
X27459813Y-156489460D01*
X27688657Y-156261016D01*
X27812659Y-155962385D01*
X27812731Y-155878991D01*
X32754735Y-155878991D01*
X32987932Y-156443371D01*
X33419357Y-156875551D01*
X33983330Y-157109733D01*
X34593991Y-157110265D01*
X35158371Y-156877068D01*
X35590551Y-156445643D01*
X35824733Y-155881670D01*
X35824735Y-155878991D01*
X37834735Y-155878991D01*
X38067932Y-156443371D01*
X38499357Y-156875551D01*
X39063330Y-157109733D01*
X39673991Y-157110265D01*
X40238371Y-156877068D01*
X40670551Y-156445643D01*
X40904733Y-155881670D01*
X40904735Y-155878991D01*
X42914735Y-155878991D01*
X43147932Y-156443371D01*
X43579357Y-156875551D01*
X44143330Y-157109733D01*
X44753991Y-157110265D01*
X45318371Y-156877068D01*
X45750551Y-156445643D01*
X45984733Y-155881670D01*
X45984735Y-155878991D01*
X47994735Y-155878991D01*
X48227932Y-156443371D01*
X48659357Y-156875551D01*
X48741908Y-156909829D01*
X48740187Y-156910540D01*
X48511343Y-157138984D01*
X48387341Y-157437615D01*
X48387059Y-157760967D01*
X48510540Y-158059813D01*
X48738984Y-158288657D01*
X49037615Y-158412659D01*
X49360967Y-158412941D01*
X49659813Y-158289460D01*
X49888657Y-158061016D01*
X50012659Y-157762385D01*
X50012941Y-157439033D01*
X49889460Y-157140187D01*
X49852115Y-157102776D01*
X50398371Y-156877068D01*
X50830551Y-156445643D01*
X51064733Y-155881670D01*
X51065265Y-155271009D01*
X50832068Y-154706629D01*
X50654908Y-154529159D01*
X50789699Y-154473327D01*
X50968327Y-154294698D01*
X51065000Y-154061309D01*
X51065000Y-153320750D01*
X50906250Y-153162000D01*
X49657000Y-153162000D01*
X49657000Y-153182000D01*
X49403000Y-153182000D01*
X49403000Y-153162000D01*
X48153750Y-153162000D01*
X47995000Y-153320750D01*
X47995000Y-154061309D01*
X48091673Y-154294698D01*
X48270301Y-154473327D01*
X48404994Y-154529119D01*
X48229449Y-154704357D01*
X47995267Y-155268330D01*
X47994735Y-155878991D01*
X45984735Y-155878991D01*
X45985265Y-155271009D01*
X45752068Y-154706629D01*
X45574908Y-154529159D01*
X45709699Y-154473327D01*
X45888327Y-154294698D01*
X45985000Y-154061309D01*
X45985000Y-153320750D01*
X45826250Y-153162000D01*
X44577000Y-153162000D01*
X44577000Y-153182000D01*
X44323000Y-153182000D01*
X44323000Y-153162000D01*
X43073750Y-153162000D01*
X42915000Y-153320750D01*
X42915000Y-154061309D01*
X43011673Y-154294698D01*
X43190301Y-154473327D01*
X43324994Y-154529119D01*
X43149449Y-154704357D01*
X42915267Y-155268330D01*
X42914735Y-155878991D01*
X40904735Y-155878991D01*
X40905265Y-155271009D01*
X40672068Y-154706629D01*
X40494908Y-154529159D01*
X40629699Y-154473327D01*
X40808327Y-154294698D01*
X40905000Y-154061309D01*
X40905000Y-153320750D01*
X40746250Y-153162000D01*
X39497000Y-153162000D01*
X39497000Y-153182000D01*
X39243000Y-153182000D01*
X39243000Y-153162000D01*
X37993750Y-153162000D01*
X37835000Y-153320750D01*
X37835000Y-154061309D01*
X37931673Y-154294698D01*
X38110301Y-154473327D01*
X38244994Y-154529119D01*
X38069449Y-154704357D01*
X37835267Y-155268330D01*
X37834735Y-155878991D01*
X35824735Y-155878991D01*
X35825265Y-155271009D01*
X35592068Y-154706629D01*
X35414908Y-154529159D01*
X35549699Y-154473327D01*
X35728327Y-154294698D01*
X35825000Y-154061309D01*
X35825000Y-153320750D01*
X35666250Y-153162000D01*
X34417000Y-153162000D01*
X34417000Y-153182000D01*
X34163000Y-153182000D01*
X34163000Y-153162000D01*
X32913750Y-153162000D01*
X32755000Y-153320750D01*
X32755000Y-154061309D01*
X32851673Y-154294698D01*
X33030301Y-154473327D01*
X33164994Y-154529119D01*
X32989449Y-154704357D01*
X32755267Y-155268330D01*
X32754735Y-155878991D01*
X27812731Y-155878991D01*
X27812941Y-155639033D01*
X27689460Y-155340187D01*
X27461016Y-155111343D01*
X27192580Y-154999879D01*
X27459813Y-154889460D01*
X27688657Y-154661016D01*
X27812659Y-154362385D01*
X27812941Y-154039033D01*
X27689460Y-153740187D01*
X27461016Y-153511343D01*
X27162385Y-153387341D01*
X26839033Y-153387059D01*
X26540187Y-153510540D01*
X26311343Y-153738984D01*
X26187341Y-154037615D01*
X26187059Y-154360967D01*
X25684685Y-154360967D01*
X25685326Y-153626695D01*
X25398957Y-152933628D01*
X24869161Y-152402907D01*
X24176595Y-152115328D01*
X23426695Y-152114674D01*
X22733628Y-152401043D01*
X22202907Y-152930839D01*
X21915328Y-153623405D01*
X21914674Y-154373305D01*
X15010000Y-154373305D01*
X15010000Y-151960000D01*
X32775168Y-151960000D01*
X32755000Y-152008691D01*
X32755000Y-152008691D01*
G37*
X32755000Y-152008691D02*
X32755000Y-152749250D01*
X32913750Y-152908000D01*
X34163000Y-152908000D01*
X34163000Y-152888000D01*
X34417000Y-152888000D01*
X34417000Y-152908000D01*
X35666250Y-152908000D01*
X35825000Y-152749250D01*
X35825000Y-152008691D01*
X35804832Y-151960000D01*
X37855168Y-151960000D01*
X37835000Y-152008691D01*
X37835000Y-152749250D01*
X37993750Y-152908000D01*
X39243000Y-152908000D01*
X39243000Y-152888000D01*
X39497000Y-152888000D01*
X39497000Y-152908000D01*
X40746250Y-152908000D01*
X40905000Y-152749250D01*
X40905000Y-152008691D01*
X40884832Y-151960000D01*
X42935168Y-151960000D01*
X42915000Y-152008691D01*
X42915000Y-152749250D01*
X43073750Y-152908000D01*
X44323000Y-152908000D01*
X44323000Y-152888000D01*
X44577000Y-152888000D01*
X44577000Y-152908000D01*
X45826250Y-152908000D01*
X45985000Y-152749250D01*
X45985000Y-152008691D01*
X45964832Y-151960000D01*
X48015168Y-151960000D01*
X47995000Y-152008691D01*
X47995000Y-152749250D01*
X48153750Y-152908000D01*
X49403000Y-152908000D01*
X49403000Y-152888000D01*
X49657000Y-152888000D01*
X49657000Y-152908000D01*
X50906250Y-152908000D01*
X51065000Y-152749250D01*
X51065000Y-152008691D01*
X51044832Y-151960000D01*
X51340000Y-151960000D01*
X51340000Y-154500000D01*
X51353642Y-154568584D01*
X51353642Y-154638514D01*
X51582003Y-155786564D01*
X51654244Y-155960967D01*
X51688018Y-156042505D01*
X52338337Y-157015775D01*
X52534225Y-157211663D01*
X53507495Y-157861982D01*
X53585889Y-157894454D01*
X53763436Y-157967997D01*
X54911487Y-158196358D01*
X54981416Y-158196358D01*
X55050000Y-158210000D01*
X57590000Y-158210000D01*
X57590000Y-194540000D01*
X43966488Y-194540000D01*
X44209813Y-194439460D01*
X44438657Y-194211016D01*
X44562659Y-193912385D01*
X44562941Y-193589033D01*
X44439460Y-193290187D01*
X44211016Y-193061343D01*
X43912385Y-192937341D01*
X43589033Y-192937059D01*
X43290187Y-193060540D01*
X43061343Y-193288984D01*
X42937341Y-193587615D01*
X42937059Y-193910967D01*
X43060540Y-194209813D01*
X43288984Y-194438657D01*
X43533046Y-194540000D01*
X21260000Y-194540000D01*
X21260000Y-192180216D01*
X38289842Y-192180216D01*
X38428090Y-192514800D01*
X38683853Y-192771011D01*
X39018196Y-192909842D01*
X39380216Y-192910158D01*
X39469406Y-192873305D01*
X46914674Y-192873305D01*
X47201043Y-193566372D01*
X47730839Y-194097093D01*
X48423405Y-194384672D01*
X49173305Y-194385326D01*
X49866372Y-194098957D01*
X50397093Y-193569161D01*
X50535064Y-193236890D01*
X51008524Y-193236890D01*
X51178355Y-193646924D01*
X51568642Y-194075183D01*
X52093108Y-194321486D01*
X52323000Y-194200819D01*
X52323000Y-193007000D01*
X52577000Y-193007000D01*
X52577000Y-194200819D01*
X52806892Y-194321486D01*
X53331358Y-194075183D01*
X53721645Y-193646924D01*
X53891476Y-193236890D01*
X53770155Y-193007000D01*
X52577000Y-193007000D01*
X52323000Y-193007000D01*
X51129845Y-193007000D01*
X51008524Y-193236890D01*
X50535064Y-193236890D01*
X50684672Y-192876595D01*
X50685326Y-192126695D01*
X50398957Y-191433628D01*
X49869161Y-190902907D01*
X49176595Y-190615328D01*
X48426695Y-190614674D01*
X47733628Y-190901043D01*
X47202907Y-191430839D01*
X46915328Y-192123405D01*
X46914674Y-192873305D01*
X39469406Y-192873305D01*
X39714800Y-192771910D01*
X39971011Y-192516147D01*
X40109842Y-192181804D01*
X40110158Y-191819784D01*
X39971910Y-191485200D01*
X39716147Y-191228989D01*
X39381804Y-191090158D01*
X39019784Y-191089842D01*
X38685200Y-191228090D01*
X38428989Y-191483853D01*
X38290158Y-191818196D01*
X38289842Y-192180216D01*
X21260000Y-192180216D01*
X21260000Y-192000000D01*
X21246358Y-191931416D01*
X21246358Y-191861487D01*
X21017997Y-190713436D01*
X20911982Y-190457496D01*
X20911982Y-190457495D01*
X20261663Y-189484225D01*
X20065775Y-189288337D01*
X19092505Y-188638018D01*
X18836564Y-188532003D01*
X17688514Y-188303642D01*
X17618584Y-188303642D01*
X17550000Y-188290000D01*
X15010000Y-188290000D01*
X15010000Y-187160967D01*
X18187059Y-187160967D01*
X18310540Y-187459813D01*
X18538984Y-187688657D01*
X18837615Y-187812659D01*
X19160967Y-187812941D01*
X19192286Y-187800000D01*
X50935907Y-187800000D01*
X51048946Y-188368285D01*
X51370853Y-188850054D01*
X51700026Y-189070000D01*
X51370853Y-189289946D01*
X51048946Y-189771715D01*
X50935907Y-190340000D01*
X51048946Y-190908285D01*
X51370853Y-191390054D01*
X51711553Y-191617702D01*
X51568642Y-191684817D01*
X51178355Y-192113076D01*
X51008524Y-192523110D01*
X51129845Y-192753000D01*
X52323000Y-192753000D01*
X52323000Y-192733000D01*
X52577000Y-192733000D01*
X52577000Y-192753000D01*
X53770155Y-192753000D01*
X53891476Y-192523110D01*
X53721645Y-192113076D01*
X53331358Y-191684817D01*
X53188447Y-191617702D01*
X53529147Y-191390054D01*
X53851054Y-190908285D01*
X53964093Y-190340000D01*
X53851054Y-189771715D01*
X53529147Y-189289946D01*
X53199974Y-189070000D01*
X53529147Y-188850054D01*
X53851054Y-188368285D01*
X53964093Y-187800000D01*
X53851054Y-187231715D01*
X53529147Y-186749946D01*
X53487548Y-186722150D01*
X53535317Y-186713162D01*
X53751441Y-186574090D01*
X53896431Y-186361890D01*
X53947440Y-186110000D01*
X53947440Y-184410000D01*
X53903162Y-184174683D01*
X53764090Y-183958559D01*
X53551890Y-183813569D01*
X53300000Y-183762560D01*
X51600000Y-183762560D01*
X51364683Y-183806838D01*
X51148559Y-183945910D01*
X51003569Y-184158110D01*
X50952560Y-184410000D01*
X50952560Y-186110000D01*
X50996838Y-186345317D01*
X51135910Y-186561441D01*
X51348110Y-186706431D01*
X51415541Y-186720086D01*
X51370853Y-186749946D01*
X51048946Y-187231715D01*
X50935907Y-187800000D01*
X19192286Y-187800000D01*
X19459813Y-187689460D01*
X19688657Y-187461016D01*
X19812659Y-187162385D01*
X19812941Y-186839033D01*
X19689460Y-186540187D01*
X19510554Y-186360967D01*
X20587059Y-186360967D01*
X20710540Y-186659813D01*
X20938984Y-186888657D01*
X21237615Y-187012659D01*
X21560967Y-187012941D01*
X21859813Y-186889460D01*
X22088657Y-186661016D01*
X22212203Y-186363482D01*
X23274357Y-186363482D01*
X23399767Y-186666998D01*
X23631781Y-186899417D01*
X23935077Y-187025357D01*
X24263482Y-187025643D01*
X24566998Y-186900233D01*
X24799417Y-186668219D01*
X24925357Y-186364923D01*
X24925643Y-186036518D01*
X24800233Y-185733002D01*
X24728324Y-185660967D01*
X30687059Y-185660967D01*
X30810540Y-185959813D01*
X31038984Y-186188657D01*
X31337615Y-186312659D01*
X31660967Y-186312941D01*
X31959813Y-186189460D01*
X32188657Y-185961016D01*
X32230200Y-185860967D01*
X32687059Y-185860967D01*
X32810540Y-186159813D01*
X33038984Y-186388657D01*
X33337615Y-186512659D01*
X33660967Y-186512941D01*
X33900219Y-186414084D01*
X34137615Y-186512659D01*
X34460967Y-186512941D01*
X34759813Y-186389460D01*
X34874608Y-186274865D01*
X34874357Y-186563482D01*
X34999767Y-186866998D01*
X35231781Y-187099417D01*
X35535077Y-187225357D01*
X35863482Y-187225643D01*
X36166998Y-187100233D01*
X36399417Y-186868219D01*
X36525357Y-186564923D01*
X36525643Y-186236518D01*
X36400233Y-185933002D01*
X36168219Y-185700583D01*
X35864923Y-185574643D01*
X35536518Y-185574357D01*
X35233002Y-185699767D01*
X35112696Y-185819863D01*
X35112941Y-185539033D01*
X34989460Y-185240187D01*
X34761016Y-185011343D01*
X34475010Y-184892583D01*
X34499417Y-184868219D01*
X34625357Y-184564923D01*
X34625643Y-184236518D01*
X34554147Y-184063482D01*
X36274357Y-184063482D01*
X36399767Y-184366998D01*
X36631781Y-184599417D01*
X36935077Y-184725357D01*
X37263482Y-184725643D01*
X37566998Y-184600233D01*
X37799417Y-184368219D01*
X37925357Y-184064923D01*
X37925617Y-183766154D01*
X38037615Y-183812659D01*
X38360967Y-183812941D01*
X38659813Y-183689460D01*
X38888657Y-183461016D01*
X39012659Y-183162385D01*
X39012670Y-183150259D01*
X39159813Y-183089460D01*
X39388657Y-182861016D01*
X39512659Y-182562385D01*
X39512941Y-182239033D01*
X39389460Y-181940187D01*
X39161016Y-181711343D01*
X38862385Y-181587341D01*
X38539033Y-181587059D01*
X38240187Y-181710540D01*
X38011343Y-181938984D01*
X37887341Y-182237615D01*
X37887330Y-182249741D01*
X37740187Y-182310540D01*
X37511343Y-182538984D01*
X37387341Y-182837615D01*
X37387090Y-183125371D01*
X37264923Y-183074643D01*
X36936518Y-183074357D01*
X36633002Y-183199767D01*
X36400583Y-183431781D01*
X36274643Y-183735077D01*
X36274357Y-184063482D01*
X34554147Y-184063482D01*
X34500233Y-183933002D01*
X34268219Y-183700583D01*
X33964923Y-183574643D01*
X33636518Y-183574357D01*
X33333002Y-183699767D01*
X33100583Y-183931781D01*
X32974643Y-184235077D01*
X32974357Y-184563482D01*
X33099767Y-184866998D01*
X33183816Y-184951194D01*
X33040187Y-185010540D01*
X32811343Y-185238984D01*
X32687341Y-185537615D01*
X32687059Y-185860967D01*
X32230200Y-185860967D01*
X32268612Y-185768463D01*
X32459813Y-185689460D01*
X32688657Y-185461016D01*
X32812659Y-185162385D01*
X32812941Y-184839033D01*
X32689460Y-184540187D01*
X32461016Y-184311343D01*
X32192580Y-184199879D01*
X32459813Y-184089460D01*
X32688657Y-183861016D01*
X32812659Y-183562385D01*
X32812941Y-183239033D01*
X32689460Y-182940187D01*
X32461016Y-182711343D01*
X32162385Y-182587341D01*
X31839033Y-182587059D01*
X31540187Y-182710540D01*
X31311343Y-182938984D01*
X31187341Y-183237615D01*
X31187059Y-183560967D01*
X31310540Y-183859813D01*
X31538984Y-184088657D01*
X31807420Y-184200121D01*
X31540187Y-184310540D01*
X31311343Y-184538984D01*
X31231388Y-184731537D01*
X31040187Y-184810540D01*
X30811343Y-185038984D01*
X30687341Y-185337615D01*
X30687059Y-185660967D01*
X24728324Y-185660967D01*
X24568219Y-185500583D01*
X24264923Y-185374643D01*
X23936518Y-185374357D01*
X23633002Y-185499767D01*
X23400583Y-185731781D01*
X23274643Y-186035077D01*
X23274357Y-186363482D01*
X22212203Y-186363482D01*
X22212659Y-186362385D01*
X22212941Y-186039033D01*
X22089460Y-185740187D01*
X21861016Y-185511343D01*
X21562385Y-185387341D01*
X21239033Y-185387059D01*
X20940187Y-185510540D01*
X20711343Y-185738984D01*
X20587341Y-186037615D01*
X20587059Y-186360967D01*
X19510554Y-186360967D01*
X19461016Y-186311343D01*
X19162385Y-186187341D01*
X18839033Y-186187059D01*
X18540187Y-186310540D01*
X18311343Y-186538984D01*
X18187341Y-186837615D01*
X18187059Y-187160967D01*
X15010000Y-187160967D01*
X15010000Y-180814927D01*
X15641662Y-180814927D01*
X15675523Y-181215301D01*
X15763596Y-181427928D01*
X15965863Y-181449532D01*
X16485395Y-180930000D01*
X16471253Y-180915858D01*
X16650858Y-180736253D01*
X16665000Y-180750395D01*
X16679143Y-180736253D01*
X16858748Y-180915858D01*
X16844605Y-180930000D01*
X16858748Y-180944143D01*
X16679143Y-181123748D01*
X16665000Y-181109605D01*
X16581117Y-181193488D01*
X16379699Y-181210523D01*
X16167072Y-181298596D01*
X16145468Y-181500863D01*
X16209605Y-181565000D01*
X16145468Y-181629137D01*
X16167072Y-181831404D01*
X16549927Y-181953338D01*
X16594199Y-181949594D01*
X16665000Y-182020395D01*
X16679143Y-182006253D01*
X16858748Y-182185858D01*
X16844605Y-182200000D01*
X16858748Y-182214143D01*
X16679143Y-182393748D01*
X16665000Y-182379605D01*
X16650858Y-182393748D01*
X16471253Y-182214143D01*
X16485395Y-182200000D01*
X15965863Y-181680468D01*
X15763596Y-181702072D01*
X15641662Y-182084927D01*
X15675523Y-182485301D01*
X15763596Y-182697928D01*
X15965860Y-182719532D01*
X15848786Y-182836606D01*
X15859332Y-182847152D01*
X15809263Y-182897134D01*
X15655176Y-183268217D01*
X15654825Y-183670020D01*
X15808264Y-184041372D01*
X15859491Y-184092689D01*
X15848786Y-184103394D01*
X15965860Y-184220468D01*
X15763596Y-184242072D01*
X15641662Y-184624927D01*
X15675523Y-185025301D01*
X15763596Y-185237928D01*
X15965863Y-185259532D01*
X16485395Y-184740000D01*
X16471253Y-184725858D01*
X16650858Y-184546253D01*
X16665000Y-184560395D01*
X16679143Y-184546253D01*
X16858748Y-184725858D01*
X16844605Y-184740000D01*
X16858748Y-184754143D01*
X16679143Y-184933748D01*
X16665000Y-184919605D01*
X16145468Y-185439137D01*
X16167072Y-185641404D01*
X16549927Y-185763338D01*
X16950301Y-185729477D01*
X17162928Y-185641404D01*
X17184532Y-185439140D01*
X17301606Y-185556214D01*
X17312152Y-185545668D01*
X17362134Y-185595737D01*
X17733217Y-185749824D01*
X18135020Y-185750175D01*
X18506372Y-185596736D01*
X18790737Y-185312866D01*
X18944824Y-184941783D01*
X18945175Y-184539980D01*
X18791736Y-184168628D01*
X18728356Y-184105138D01*
X18790737Y-184042866D01*
X18944824Y-183671783D01*
X18945175Y-183269980D01*
X18791736Y-182898628D01*
X18728356Y-182835138D01*
X18790737Y-182772866D01*
X18944824Y-182401783D01*
X18944859Y-182360967D01*
X21587059Y-182360967D01*
X21710540Y-182659813D01*
X21938984Y-182888657D01*
X22237615Y-183012659D01*
X22560967Y-183012941D01*
X22859813Y-182889460D01*
X23088657Y-182661016D01*
X23212659Y-182362385D01*
X23212660Y-182360967D01*
X23287059Y-182360967D01*
X23410540Y-182659813D01*
X23638984Y-182888657D01*
X23937615Y-183012659D01*
X24260967Y-183012941D01*
X24559813Y-182889460D01*
X24688530Y-182760967D01*
X28087059Y-182760967D01*
X28210540Y-183059813D01*
X28438984Y-183288657D01*
X28737615Y-183412659D01*
X29060967Y-183412941D01*
X29359813Y-183289460D01*
X29588657Y-183061016D01*
X29712659Y-182762385D01*
X29712670Y-182750259D01*
X29859813Y-182689460D01*
X30088657Y-182461016D01*
X30189322Y-182218586D01*
X30259813Y-182189460D01*
X30488657Y-181961016D01*
X30612659Y-181662385D01*
X30612941Y-181339033D01*
X30489460Y-181040187D01*
X30261016Y-180811343D01*
X30213044Y-180791423D01*
X30459813Y-180689460D01*
X30688657Y-180461016D01*
X30812659Y-180162385D01*
X30812713Y-180100020D01*
X54189825Y-180100020D01*
X54343264Y-180471372D01*
X54627134Y-180755737D01*
X54998217Y-180909824D01*
X55400020Y-180910175D01*
X55771372Y-180756736D01*
X56055737Y-180472866D01*
X56209824Y-180101783D01*
X56210175Y-179699980D01*
X56056736Y-179328628D01*
X55772866Y-179044263D01*
X55401783Y-178890176D01*
X54999980Y-178889825D01*
X54628628Y-179043264D01*
X54344263Y-179327134D01*
X54190176Y-179698217D01*
X54189825Y-180100020D01*
X30812713Y-180100020D01*
X30812941Y-179839033D01*
X30689460Y-179540187D01*
X30461016Y-179311343D01*
X30162385Y-179187341D01*
X29839033Y-179187059D01*
X29540187Y-179310540D01*
X29311343Y-179538984D01*
X29187341Y-179837615D01*
X29187059Y-180160967D01*
X29203847Y-180201598D01*
X28940187Y-180310540D01*
X28711343Y-180538984D01*
X28587341Y-180837615D01*
X28587059Y-181160967D01*
X28710540Y-181459813D01*
X28750526Y-181499869D01*
X28711343Y-181538984D01*
X28587341Y-181837615D01*
X28587330Y-181849741D01*
X28440187Y-181910540D01*
X28211343Y-182138984D01*
X28087341Y-182437615D01*
X28087059Y-182760967D01*
X24688530Y-182760967D01*
X24788657Y-182661016D01*
X24792273Y-182652308D01*
X24937615Y-182712659D01*
X25260967Y-182712941D01*
X25559813Y-182589460D01*
X25788657Y-182361016D01*
X25912659Y-182062385D01*
X25912941Y-181739033D01*
X25789460Y-181440187D01*
X25561016Y-181211343D01*
X25262385Y-181087341D01*
X24939033Y-181087059D01*
X24640187Y-181210540D01*
X24411343Y-181438984D01*
X24407727Y-181447692D01*
X24262385Y-181387341D01*
X23939033Y-181387059D01*
X23640187Y-181510540D01*
X23411343Y-181738984D01*
X23287341Y-182037615D01*
X23287059Y-182360967D01*
X23212660Y-182360967D01*
X23212941Y-182039033D01*
X23089460Y-181740187D01*
X22861016Y-181511343D01*
X22562385Y-181387341D01*
X22239033Y-181387059D01*
X21940187Y-181510540D01*
X21711343Y-181738984D01*
X21587341Y-182037615D01*
X21587059Y-182360967D01*
X18944859Y-182360967D01*
X18945175Y-181999980D01*
X18791736Y-181628628D01*
X18728356Y-181565138D01*
X18790737Y-181502866D01*
X18944824Y-181131783D01*
X18945175Y-180729980D01*
X18791736Y-180358628D01*
X18728356Y-180295138D01*
X18790737Y-180232866D01*
X18944824Y-179861783D01*
X18945175Y-179459980D01*
X18800967Y-179110967D01*
X37437059Y-179110967D01*
X37560540Y-179409813D01*
X37788984Y-179638657D01*
X38087615Y-179762659D01*
X38410967Y-179762941D01*
X38709813Y-179639460D01*
X38938657Y-179411016D01*
X39062659Y-179112385D01*
X39062941Y-178789033D01*
X38939460Y-178490187D01*
X38711016Y-178261343D01*
X38412385Y-178137341D01*
X38089033Y-178137059D01*
X37790187Y-178260540D01*
X37561343Y-178488984D01*
X37437341Y-178787615D01*
X37437059Y-179110967D01*
X18800967Y-179110967D01*
X18791736Y-179088628D01*
X18507866Y-178804263D01*
X18136783Y-178650176D01*
X17734980Y-178649825D01*
X17423528Y-178778514D01*
X17291890Y-178688569D01*
X17040000Y-178637560D01*
X16290000Y-178637560D01*
X16054683Y-178681838D01*
X15838559Y-178820910D01*
X15693569Y-179033110D01*
X15642560Y-179285000D01*
X15642560Y-180035000D01*
X15686838Y-180270317D01*
X15789167Y-180429341D01*
X15763596Y-180432072D01*
X15641662Y-180814927D01*
X15010000Y-180814927D01*
X15010000Y-177360967D01*
X50787059Y-177360967D01*
X50910540Y-177659813D01*
X51138984Y-177888657D01*
X51437615Y-178012659D01*
X51760967Y-178012941D01*
X52059813Y-177889460D01*
X52288657Y-177661016D01*
X52412659Y-177362385D01*
X52412941Y-177039033D01*
X52289460Y-176740187D01*
X52061016Y-176511343D01*
X51762385Y-176387341D01*
X51439033Y-176387059D01*
X51140187Y-176510540D01*
X50911343Y-176738984D01*
X50787341Y-177037615D01*
X50787059Y-177360967D01*
X15010000Y-177360967D01*
X15010000Y-175668391D01*
X15278266Y-175779785D01*
X15769579Y-175780214D01*
X16223657Y-175592592D01*
X16571371Y-175245485D01*
X16759785Y-174791734D01*
X16760214Y-174300421D01*
X16572592Y-173846343D01*
X16225485Y-173498629D01*
X15771734Y-173310215D01*
X15280421Y-173309786D01*
X15010000Y-173421522D01*
X15010000Y-173174971D01*
X16789821Y-173174971D01*
X16947058Y-173555515D01*
X17237954Y-173846919D01*
X17618223Y-174004820D01*
X17861976Y-174005033D01*
X17740215Y-174298266D01*
X17739786Y-174789579D01*
X17927408Y-175243657D01*
X18274515Y-175591371D01*
X18728266Y-175779785D01*
X19219579Y-175780214D01*
X19673657Y-175592592D01*
X20021371Y-175245485D01*
X20097989Y-175060967D01*
X26287059Y-175060967D01*
X26410540Y-175359813D01*
X26638984Y-175588657D01*
X26757924Y-175638045D01*
X26737341Y-175687615D01*
X26737059Y-176010967D01*
X26860540Y-176309813D01*
X27088984Y-176538657D01*
X27387615Y-176662659D01*
X27710967Y-176662941D01*
X28009813Y-176539460D01*
X28238657Y-176311016D01*
X28362659Y-176012385D01*
X28362941Y-175689033D01*
X28239460Y-175390187D01*
X28011016Y-175161343D01*
X27892076Y-175111955D01*
X27912659Y-175062385D01*
X27912941Y-174739033D01*
X27789460Y-174440187D01*
X27561016Y-174211343D01*
X27439697Y-174160967D01*
X31187059Y-174160967D01*
X31310540Y-174459813D01*
X31538984Y-174688657D01*
X31837615Y-174812659D01*
X32160967Y-174812941D01*
X32459813Y-174689460D01*
X32688657Y-174461016D01*
X32730200Y-174360967D01*
X51187059Y-174360967D01*
X51310540Y-174659813D01*
X51538984Y-174888657D01*
X51837615Y-175012659D01*
X52160967Y-175012941D01*
X52459813Y-174889460D01*
X52688657Y-174661016D01*
X52763107Y-174481721D01*
X52837615Y-174512659D01*
X53160967Y-174512941D01*
X53459813Y-174389460D01*
X53688657Y-174161016D01*
X53812659Y-173862385D01*
X53812941Y-173539033D01*
X53689460Y-173240187D01*
X53461016Y-173011343D01*
X53162385Y-172887341D01*
X52839033Y-172887059D01*
X52540187Y-173010540D01*
X52311343Y-173238984D01*
X52236893Y-173418279D01*
X52162385Y-173387341D01*
X51839033Y-173387059D01*
X51540187Y-173510540D01*
X51311343Y-173738984D01*
X51187341Y-174037615D01*
X51187059Y-174360967D01*
X32730200Y-174360967D01*
X32768612Y-174268463D01*
X32959813Y-174189460D01*
X33188657Y-173961016D01*
X33312659Y-173662385D01*
X33312941Y-173339033D01*
X33189460Y-173040187D01*
X32961016Y-172811343D01*
X32662385Y-172687341D01*
X32339033Y-172687059D01*
X32040187Y-172810540D01*
X31811343Y-173038984D01*
X31731388Y-173231537D01*
X31540187Y-173310540D01*
X31311343Y-173538984D01*
X31187341Y-173837615D01*
X31187059Y-174160967D01*
X27439697Y-174160967D01*
X27262385Y-174087341D01*
X26939033Y-174087059D01*
X26640187Y-174210540D01*
X26411343Y-174438984D01*
X26287341Y-174737615D01*
X26287059Y-175060967D01*
X20097989Y-175060967D01*
X20209785Y-174791734D01*
X20210214Y-174300421D01*
X20022592Y-173846343D01*
X19675485Y-173498629D01*
X19631142Y-173480216D01*
X23589842Y-173480216D01*
X23728090Y-173814800D01*
X23983853Y-174071011D01*
X24318196Y-174209842D01*
X24680216Y-174210158D01*
X25014800Y-174071910D01*
X25271011Y-173816147D01*
X25409842Y-173481804D01*
X25410158Y-173119784D01*
X25271910Y-172785200D01*
X25016147Y-172528989D01*
X24681804Y-172390158D01*
X24319784Y-172389842D01*
X23985200Y-172528090D01*
X23728989Y-172783853D01*
X23590158Y-173118196D01*
X23589842Y-173480216D01*
X19631142Y-173480216D01*
X19221734Y-173310215D01*
X18804563Y-173309851D01*
X18859820Y-173176777D01*
X18860179Y-172765029D01*
X18702942Y-172384485D01*
X18412046Y-172093081D01*
X18031777Y-171935180D01*
X17620029Y-171934821D01*
X17239485Y-172092058D01*
X16948081Y-172382954D01*
X16790180Y-172763223D01*
X16789821Y-173174971D01*
X15010000Y-173174971D01*
X15010000Y-171160967D01*
X35287059Y-171160967D01*
X35410540Y-171459813D01*
X35638984Y-171688657D01*
X35937615Y-171812659D01*
X36260967Y-171812941D01*
X36559813Y-171689460D01*
X36788657Y-171461016D01*
X36912659Y-171162385D01*
X36912941Y-170839033D01*
X36789460Y-170540187D01*
X36710379Y-170460967D01*
X40387059Y-170460967D01*
X40510540Y-170759813D01*
X40738984Y-170988657D01*
X41037615Y-171112659D01*
X41360967Y-171112941D01*
X41659813Y-170989460D01*
X41888657Y-170761016D01*
X42012659Y-170462385D01*
X42012941Y-170139033D01*
X41889460Y-169840187D01*
X41661016Y-169611343D01*
X41362385Y-169487341D01*
X41039033Y-169487059D01*
X40740187Y-169610540D01*
X40511343Y-169838984D01*
X40387341Y-170137615D01*
X40387059Y-170460967D01*
X36710379Y-170460967D01*
X36561016Y-170311343D01*
X36262385Y-170187341D01*
X35939033Y-170187059D01*
X35640187Y-170310540D01*
X35411343Y-170538984D01*
X35287341Y-170837615D01*
X35287059Y-171160967D01*
X15010000Y-171160967D01*
X15010000Y-169174971D01*
X16789821Y-169174971D01*
X16947058Y-169555515D01*
X17237954Y-169846919D01*
X17618223Y-170004820D01*
X18029971Y-170005179D01*
X18410515Y-169847942D01*
X18701919Y-169557046D01*
X18859820Y-169176777D01*
X18860008Y-168960967D01*
X21887059Y-168960967D01*
X22010540Y-169259813D01*
X22238984Y-169488657D01*
X22537615Y-169612659D01*
X22826029Y-169612911D01*
X22983853Y-169771011D01*
X23318196Y-169909842D01*
X23680216Y-169910158D01*
X24014800Y-169771910D01*
X24271011Y-169516147D01*
X24292879Y-169463482D01*
X42474357Y-169463482D01*
X42599767Y-169766998D01*
X42831781Y-169999417D01*
X43038396Y-170085211D01*
X43110540Y-170259813D01*
X43338984Y-170488657D01*
X43637615Y-170612659D01*
X43960967Y-170612941D01*
X44259813Y-170489460D01*
X44488657Y-170261016D01*
X44612659Y-169962385D01*
X44612941Y-169639033D01*
X44489460Y-169340187D01*
X44261016Y-169111343D01*
X44085050Y-169038276D01*
X44000233Y-168833002D01*
X43768219Y-168600583D01*
X43464923Y-168474643D01*
X43136518Y-168474357D01*
X42833002Y-168599767D01*
X42600583Y-168831781D01*
X42474643Y-169135077D01*
X42474357Y-169463482D01*
X24292879Y-169463482D01*
X24409842Y-169181804D01*
X24410158Y-168819784D01*
X24271910Y-168485200D01*
X24016147Y-168228989D01*
X23681804Y-168090158D01*
X23319784Y-168089842D01*
X23192184Y-168142566D01*
X23161016Y-168111343D01*
X22862385Y-167987341D01*
X22539033Y-167987059D01*
X22240187Y-168110540D01*
X22011343Y-168338984D01*
X21887341Y-168637615D01*
X21887059Y-168960967D01*
X18860008Y-168960967D01*
X18860179Y-168765029D01*
X18804325Y-168629851D01*
X19219579Y-168630214D01*
X19673657Y-168442592D01*
X20021371Y-168095485D01*
X20209785Y-167641734D01*
X20210214Y-167150421D01*
X20022592Y-166696343D01*
X19737715Y-166410967D01*
X37437059Y-166410967D01*
X37560540Y-166709813D01*
X37788984Y-166938657D01*
X38087615Y-167062659D01*
X38410967Y-167062941D01*
X38709813Y-166939460D01*
X38938657Y-166711016D01*
X39062659Y-166412385D01*
X39062660Y-166410967D01*
X41937059Y-166410967D01*
X42060540Y-166709813D01*
X42288984Y-166938657D01*
X42587615Y-167062659D01*
X42910967Y-167062941D01*
X43209813Y-166939460D01*
X43415520Y-166734113D01*
X43449767Y-166816998D01*
X43681781Y-167049417D01*
X43985077Y-167175357D01*
X44313482Y-167175643D01*
X44616998Y-167050233D01*
X44849417Y-166818219D01*
X44975357Y-166514923D01*
X44975358Y-166513482D01*
X47824357Y-166513482D01*
X47949767Y-166816998D01*
X48181781Y-167049417D01*
X48485077Y-167175357D01*
X48813482Y-167175643D01*
X49116998Y-167050233D01*
X49349417Y-166818219D01*
X49475357Y-166514923D01*
X49475439Y-166420702D01*
X49766998Y-166300233D01*
X49999417Y-166068219D01*
X50125357Y-165764923D01*
X50125643Y-165436518D01*
X50000233Y-165133002D01*
X49768219Y-164900583D01*
X49464923Y-164774643D01*
X49136518Y-164774357D01*
X48833002Y-164899767D01*
X48600583Y-165131781D01*
X48474643Y-165435077D01*
X48474561Y-165529298D01*
X48183002Y-165649767D01*
X47950583Y-165881781D01*
X47824643Y-166185077D01*
X47824357Y-166513482D01*
X44975358Y-166513482D01*
X44975643Y-166186518D01*
X44850233Y-165883002D01*
X44618219Y-165650583D01*
X44314923Y-165524643D01*
X43986518Y-165524357D01*
X43683002Y-165649767D01*
X43469502Y-165862895D01*
X43439460Y-165790187D01*
X43274953Y-165625392D01*
X43563482Y-165625643D01*
X43866998Y-165500233D01*
X43906332Y-165460967D01*
X46187059Y-165460967D01*
X46310540Y-165759813D01*
X46538984Y-165988657D01*
X46837615Y-166112659D01*
X47160967Y-166112941D01*
X47459813Y-165989460D01*
X47688657Y-165761016D01*
X47812659Y-165462385D01*
X47812941Y-165139033D01*
X47689460Y-164840187D01*
X47461016Y-164611343D01*
X47162385Y-164487341D01*
X46839033Y-164487059D01*
X46540187Y-164610540D01*
X46311343Y-164838984D01*
X46187341Y-165137615D01*
X46187059Y-165460967D01*
X43906332Y-165460967D01*
X44099417Y-165268219D01*
X44158658Y-165125552D01*
X44263482Y-165125643D01*
X44566998Y-165000233D01*
X44799417Y-164768219D01*
X44925357Y-164464923D01*
X44925619Y-164163482D01*
X47974357Y-164163482D01*
X48099767Y-164466998D01*
X48331781Y-164699417D01*
X48635077Y-164825357D01*
X48963482Y-164825643D01*
X49266998Y-164700233D01*
X49499417Y-164468219D01*
X49625357Y-164164923D01*
X49625643Y-163836518D01*
X49500233Y-163533002D01*
X49268219Y-163300583D01*
X48964923Y-163174643D01*
X48636518Y-163174357D01*
X48333002Y-163299767D01*
X48100583Y-163531781D01*
X47974643Y-163835077D01*
X47974357Y-164163482D01*
X44925619Y-164163482D01*
X44925643Y-164136518D01*
X44800233Y-163833002D01*
X44568219Y-163600583D01*
X44264923Y-163474643D01*
X43936518Y-163474357D01*
X43633002Y-163599767D01*
X43400583Y-163831781D01*
X43341342Y-163974448D01*
X43236518Y-163974357D01*
X42933002Y-164099767D01*
X42700583Y-164331781D01*
X42574643Y-164635077D01*
X42574357Y-164963482D01*
X42699767Y-165266998D01*
X42869776Y-165437304D01*
X42589033Y-165437059D01*
X42290187Y-165560540D01*
X42061343Y-165788984D01*
X41937341Y-166087615D01*
X41937059Y-166410967D01*
X39062660Y-166410967D01*
X39062941Y-166089033D01*
X38939460Y-165790187D01*
X38711016Y-165561343D01*
X38412385Y-165437341D01*
X38089033Y-165437059D01*
X37790187Y-165560540D01*
X37561343Y-165788984D01*
X37437341Y-166087615D01*
X37437059Y-166410967D01*
X19737715Y-166410967D01*
X19675485Y-166348629D01*
X19221734Y-166160215D01*
X18730421Y-166159786D01*
X18276343Y-166347408D01*
X17928629Y-166694515D01*
X17740215Y-167148266D01*
X17739786Y-167639579D01*
X17861865Y-167935032D01*
X17620029Y-167934821D01*
X17239485Y-168092058D01*
X16948081Y-168382954D01*
X16790180Y-168763223D01*
X16789821Y-169174971D01*
X15010000Y-169174971D01*
X15010000Y-168518391D01*
X15278266Y-168629785D01*
X15769579Y-168630214D01*
X16223657Y-168442592D01*
X16571371Y-168095485D01*
X16759785Y-167641734D01*
X16760214Y-167150421D01*
X16572592Y-166696343D01*
X16225485Y-166348629D01*
X15771734Y-166160215D01*
X15280421Y-166159786D01*
X15010000Y-166271522D01*
X15010000Y-165380216D01*
X19889842Y-165380216D01*
X20028090Y-165714800D01*
X20283853Y-165971011D01*
X20618196Y-166109842D01*
X20980216Y-166110158D01*
X21314800Y-165971910D01*
X21571011Y-165716147D01*
X21709842Y-165381804D01*
X21710158Y-165019784D01*
X21571910Y-164685200D01*
X21316147Y-164428989D01*
X20981804Y-164290158D01*
X20619784Y-164289842D01*
X20285200Y-164428090D01*
X20028989Y-164683853D01*
X19890158Y-165018196D01*
X19889842Y-165380216D01*
X15010000Y-165380216D01*
X15010000Y-160763482D01*
X34274357Y-160763482D01*
X34399767Y-161066998D01*
X34631781Y-161299417D01*
X34935077Y-161425357D01*
X35263482Y-161425643D01*
X35299000Y-161410967D01*
X37437059Y-161410967D01*
X37560540Y-161709813D01*
X37788984Y-161938657D01*
X38087615Y-162062659D01*
X38410967Y-162062941D01*
X38709813Y-161939460D01*
X38938657Y-161711016D01*
X39062659Y-161412385D01*
X39062703Y-161360967D01*
X41687059Y-161360967D01*
X41810540Y-161659813D01*
X42038984Y-161888657D01*
X42337615Y-162012659D01*
X42660967Y-162012941D01*
X42959813Y-161889460D01*
X43188657Y-161661016D01*
X43292486Y-161410967D01*
X43337059Y-161410967D01*
X43460540Y-161709813D01*
X43688984Y-161938657D01*
X43987615Y-162062659D01*
X44310967Y-162062941D01*
X44609813Y-161939460D01*
X44838657Y-161711016D01*
X44962659Y-161412385D01*
X44962703Y-161360967D01*
X47587059Y-161360967D01*
X47710540Y-161659813D01*
X47938984Y-161888657D01*
X48237615Y-162012659D01*
X48560967Y-162012941D01*
X48859813Y-161889460D01*
X49088657Y-161661016D01*
X49089070Y-161660020D01*
X53954825Y-161660020D01*
X54108264Y-162031372D01*
X54171644Y-162094862D01*
X54109263Y-162157134D01*
X53955176Y-162528217D01*
X53954825Y-162930020D01*
X54108264Y-163301372D01*
X54171644Y-163364862D01*
X54109263Y-163427134D01*
X53955176Y-163798217D01*
X53954825Y-164200020D01*
X54108264Y-164571372D01*
X54171644Y-164634862D01*
X54109263Y-164697134D01*
X53955176Y-165068217D01*
X53954825Y-165470020D01*
X54108264Y-165841372D01*
X54171644Y-165904862D01*
X54109263Y-165967134D01*
X53955176Y-166338217D01*
X53954825Y-166740020D01*
X54108264Y-167111372D01*
X54392134Y-167395737D01*
X54763217Y-167549824D01*
X55165020Y-167550175D01*
X55476472Y-167421486D01*
X55608110Y-167511431D01*
X55860000Y-167562440D01*
X56610000Y-167562440D01*
X56845317Y-167518162D01*
X57061441Y-167379090D01*
X57206431Y-167166890D01*
X57257440Y-166915000D01*
X57257440Y-166165000D01*
X57213162Y-165929683D01*
X57110833Y-165770659D01*
X57136404Y-165767928D01*
X57258338Y-165385073D01*
X57224477Y-164984699D01*
X57136404Y-164772072D01*
X56934137Y-164750468D01*
X56414605Y-165270000D01*
X56428748Y-165284143D01*
X56249143Y-165463748D01*
X56235000Y-165449605D01*
X56220858Y-165463748D01*
X56041253Y-165284143D01*
X56055395Y-165270000D01*
X56041253Y-165255858D01*
X56220858Y-165076253D01*
X56235000Y-165090395D01*
X56318883Y-165006512D01*
X56520301Y-164989477D01*
X56732928Y-164901404D01*
X56754532Y-164699137D01*
X56690395Y-164635000D01*
X56754532Y-164570863D01*
X56732928Y-164368596D01*
X56350073Y-164246662D01*
X56305801Y-164250406D01*
X56235000Y-164179605D01*
X56220858Y-164193748D01*
X56041253Y-164014143D01*
X56055395Y-164000000D01*
X56041253Y-163985858D01*
X56220858Y-163806253D01*
X56235000Y-163820395D01*
X56249143Y-163806253D01*
X56428748Y-163985858D01*
X56414605Y-164000000D01*
X56934137Y-164519532D01*
X57136404Y-164497928D01*
X57258338Y-164115073D01*
X57224477Y-163714699D01*
X57136404Y-163502072D01*
X56934140Y-163480468D01*
X57051214Y-163363394D01*
X57040668Y-163352848D01*
X57090737Y-163302866D01*
X57244824Y-162931783D01*
X57245175Y-162529980D01*
X57091736Y-162158628D01*
X57040509Y-162107311D01*
X57051214Y-162096606D01*
X56934140Y-161979532D01*
X57136404Y-161957928D01*
X57258338Y-161575073D01*
X57224477Y-161174699D01*
X57136404Y-160962072D01*
X56934137Y-160940468D01*
X56414605Y-161460000D01*
X56428748Y-161474143D01*
X56249143Y-161653748D01*
X56235000Y-161639605D01*
X56220858Y-161653748D01*
X56041253Y-161474143D01*
X56055395Y-161460000D01*
X56041253Y-161445858D01*
X56220858Y-161266253D01*
X56235000Y-161280395D01*
X56754532Y-160760863D01*
X56732928Y-160558596D01*
X56350073Y-160436662D01*
X55949699Y-160470523D01*
X55737072Y-160558596D01*
X55715468Y-160760860D01*
X55598394Y-160643786D01*
X55587848Y-160654332D01*
X55537866Y-160604263D01*
X55166783Y-160450176D01*
X54764980Y-160449825D01*
X54393628Y-160603264D01*
X54109263Y-160887134D01*
X53955176Y-161258217D01*
X53954825Y-161660020D01*
X49089070Y-161660020D01*
X49212659Y-161362385D01*
X49212941Y-161039033D01*
X49089460Y-160740187D01*
X48861016Y-160511343D01*
X48562385Y-160387341D01*
X48239033Y-160387059D01*
X47940187Y-160510540D01*
X47711343Y-160738984D01*
X47587341Y-161037615D01*
X47587059Y-161360967D01*
X44962703Y-161360967D01*
X44962941Y-161089033D01*
X44839460Y-160790187D01*
X44611016Y-160561343D01*
X44312385Y-160437341D01*
X43989033Y-160437059D01*
X43690187Y-160560540D01*
X43461343Y-160788984D01*
X43337341Y-161087615D01*
X43337059Y-161410967D01*
X43292486Y-161410967D01*
X43312659Y-161362385D01*
X43312941Y-161039033D01*
X43189460Y-160740187D01*
X42961016Y-160511343D01*
X42662385Y-160387341D01*
X42339033Y-160387059D01*
X42040187Y-160510540D01*
X41811343Y-160738984D01*
X41687341Y-161037615D01*
X41687059Y-161360967D01*
X39062703Y-161360967D01*
X39062941Y-161089033D01*
X38939460Y-160790187D01*
X38711016Y-160561343D01*
X38412385Y-160437341D01*
X38089033Y-160437059D01*
X37790187Y-160560540D01*
X37561343Y-160788984D01*
X37437341Y-161087615D01*
X37437059Y-161410967D01*
X35299000Y-161410967D01*
X35566998Y-161300233D01*
X35799417Y-161068219D01*
X35925357Y-160764923D01*
X35925643Y-160436518D01*
X35800233Y-160133002D01*
X35568219Y-159900583D01*
X35478871Y-159863482D01*
X35974357Y-159863482D01*
X36099767Y-160166998D01*
X36331781Y-160399417D01*
X36635077Y-160525357D01*
X36963482Y-160525643D01*
X37266998Y-160400233D01*
X37499417Y-160168219D01*
X37625357Y-159864923D01*
X37625643Y-159536518D01*
X37500233Y-159233002D01*
X37268219Y-159000583D01*
X36964923Y-158874643D01*
X36636518Y-158874357D01*
X36333002Y-158999767D01*
X36100583Y-159231781D01*
X35974643Y-159535077D01*
X35974357Y-159863482D01*
X35478871Y-159863482D01*
X35264923Y-159774643D01*
X34936518Y-159774357D01*
X34633002Y-159899767D01*
X34400583Y-160131781D01*
X34274643Y-160435077D01*
X34274357Y-160763482D01*
X15010000Y-160763482D01*
X15010000Y-158000020D01*
X23289825Y-158000020D01*
X23443264Y-158371372D01*
X23727134Y-158655737D01*
X24098217Y-158809824D01*
X24500020Y-158810175D01*
X24871372Y-158656736D01*
X25155737Y-158372866D01*
X25160677Y-158360967D01*
X43687059Y-158360967D01*
X43810540Y-158659813D01*
X44038984Y-158888657D01*
X44337615Y-159012659D01*
X44660967Y-159012941D01*
X44959813Y-158889460D01*
X45188657Y-158661016D01*
X45312659Y-158362385D01*
X45312941Y-158039033D01*
X45189460Y-157740187D01*
X44961016Y-157511343D01*
X44662385Y-157387341D01*
X44339033Y-157387059D01*
X44040187Y-157510540D01*
X43811343Y-157738984D01*
X43687341Y-158037615D01*
X43687059Y-158360967D01*
X25160677Y-158360967D01*
X25309824Y-158001783D01*
X25310175Y-157599980D01*
X25156736Y-157228628D01*
X24872866Y-156944263D01*
X24501783Y-156790176D01*
X24099980Y-156789825D01*
X23728628Y-156943264D01*
X23444263Y-157227134D01*
X23290176Y-157598217D01*
X23289825Y-158000020D01*
X15010000Y-158000020D01*
X15010000Y-154373305D01*
X21914674Y-154373305D01*
X22201043Y-155066372D01*
X22730839Y-155597093D01*
X23423405Y-155884672D01*
X24173305Y-155885326D01*
X24866372Y-155598957D01*
X25397093Y-155069161D01*
X25684672Y-154376595D01*
X25684685Y-154360967D01*
X26187059Y-154360967D01*
X26310540Y-154659813D01*
X26538984Y-154888657D01*
X26807420Y-155000121D01*
X26540187Y-155110540D01*
X26311343Y-155338984D01*
X26187341Y-155637615D01*
X26187059Y-155960967D01*
X26310540Y-156259813D01*
X26538984Y-156488657D01*
X26807420Y-156600121D01*
X26540187Y-156710540D01*
X26311343Y-156938984D01*
X26187341Y-157237615D01*
X26187059Y-157560967D01*
X26310540Y-157859813D01*
X26538984Y-158088657D01*
X26837615Y-158212659D01*
X27160967Y-158212941D01*
X27459813Y-158089460D01*
X27688657Y-157861016D01*
X27812659Y-157562385D01*
X27812941Y-157239033D01*
X27689460Y-156940187D01*
X27461016Y-156711343D01*
X27192580Y-156599879D01*
X27459813Y-156489460D01*
X27688657Y-156261016D01*
X27812659Y-155962385D01*
X27812731Y-155878991D01*
X32754735Y-155878991D01*
X32987932Y-156443371D01*
X33419357Y-156875551D01*
X33983330Y-157109733D01*
X34593991Y-157110265D01*
X35158371Y-156877068D01*
X35590551Y-156445643D01*
X35824733Y-155881670D01*
X35824735Y-155878991D01*
X37834735Y-155878991D01*
X38067932Y-156443371D01*
X38499357Y-156875551D01*
X39063330Y-157109733D01*
X39673991Y-157110265D01*
X40238371Y-156877068D01*
X40670551Y-156445643D01*
X40904733Y-155881670D01*
X40904735Y-155878991D01*
X42914735Y-155878991D01*
X43147932Y-156443371D01*
X43579357Y-156875551D01*
X44143330Y-157109733D01*
X44753991Y-157110265D01*
X45318371Y-156877068D01*
X45750551Y-156445643D01*
X45984733Y-155881670D01*
X45984735Y-155878991D01*
X47994735Y-155878991D01*
X48227932Y-156443371D01*
X48659357Y-156875551D01*
X48741908Y-156909829D01*
X48740187Y-156910540D01*
X48511343Y-157138984D01*
X48387341Y-157437615D01*
X48387059Y-157760967D01*
X48510540Y-158059813D01*
X48738984Y-158288657D01*
X49037615Y-158412659D01*
X49360967Y-158412941D01*
X49659813Y-158289460D01*
X49888657Y-158061016D01*
X50012659Y-157762385D01*
X50012941Y-157439033D01*
X49889460Y-157140187D01*
X49852115Y-157102776D01*
X50398371Y-156877068D01*
X50830551Y-156445643D01*
X51064733Y-155881670D01*
X51065265Y-155271009D01*
X50832068Y-154706629D01*
X50654908Y-154529159D01*
X50789699Y-154473327D01*
X50968327Y-154294698D01*
X51065000Y-154061309D01*
X51065000Y-153320750D01*
X50906250Y-153162000D01*
X49657000Y-153162000D01*
X49657000Y-153182000D01*
X49403000Y-153182000D01*
X49403000Y-153162000D01*
X48153750Y-153162000D01*
X47995000Y-153320750D01*
X47995000Y-154061309D01*
X48091673Y-154294698D01*
X48270301Y-154473327D01*
X48404994Y-154529119D01*
X48229449Y-154704357D01*
X47995267Y-155268330D01*
X47994735Y-155878991D01*
X45984735Y-155878991D01*
X45985265Y-155271009D01*
X45752068Y-154706629D01*
X45574908Y-154529159D01*
X45709699Y-154473327D01*
X45888327Y-154294698D01*
X45985000Y-154061309D01*
X45985000Y-153320750D01*
X45826250Y-153162000D01*
X44577000Y-153162000D01*
X44577000Y-153182000D01*
X44323000Y-153182000D01*
X44323000Y-153162000D01*
X43073750Y-153162000D01*
X42915000Y-153320750D01*
X42915000Y-154061309D01*
X43011673Y-154294698D01*
X43190301Y-154473327D01*
X43324994Y-154529119D01*
X43149449Y-154704357D01*
X42915267Y-155268330D01*
X42914735Y-155878991D01*
X40904735Y-155878991D01*
X40905265Y-155271009D01*
X40672068Y-154706629D01*
X40494908Y-154529159D01*
X40629699Y-154473327D01*
X40808327Y-154294698D01*
X40905000Y-154061309D01*
X40905000Y-153320750D01*
X40746250Y-153162000D01*
X39497000Y-153162000D01*
X39497000Y-153182000D01*
X39243000Y-153182000D01*
X39243000Y-153162000D01*
X37993750Y-153162000D01*
X37835000Y-153320750D01*
X37835000Y-154061309D01*
X37931673Y-154294698D01*
X38110301Y-154473327D01*
X38244994Y-154529119D01*
X38069449Y-154704357D01*
X37835267Y-155268330D01*
X37834735Y-155878991D01*
X35824735Y-155878991D01*
X35825265Y-155271009D01*
X35592068Y-154706629D01*
X35414908Y-154529159D01*
X35549699Y-154473327D01*
X35728327Y-154294698D01*
X35825000Y-154061309D01*
X35825000Y-153320750D01*
X35666250Y-153162000D01*
X34417000Y-153162000D01*
X34417000Y-153182000D01*
X34163000Y-153182000D01*
X34163000Y-153162000D01*
X32913750Y-153162000D01*
X32755000Y-153320750D01*
X32755000Y-154061309D01*
X32851673Y-154294698D01*
X33030301Y-154473327D01*
X33164994Y-154529119D01*
X32989449Y-154704357D01*
X32755267Y-155268330D01*
X32754735Y-155878991D01*
X27812731Y-155878991D01*
X27812941Y-155639033D01*
X27689460Y-155340187D01*
X27461016Y-155111343D01*
X27192580Y-154999879D01*
X27459813Y-154889460D01*
X27688657Y-154661016D01*
X27812659Y-154362385D01*
X27812941Y-154039033D01*
X27689460Y-153740187D01*
X27461016Y-153511343D01*
X27162385Y-153387341D01*
X26839033Y-153387059D01*
X26540187Y-153510540D01*
X26311343Y-153738984D01*
X26187341Y-154037615D01*
X26187059Y-154360967D01*
X25684685Y-154360967D01*
X25685326Y-153626695D01*
X25398957Y-152933628D01*
X24869161Y-152402907D01*
X24176595Y-152115328D01*
X23426695Y-152114674D01*
X22733628Y-152401043D01*
X22202907Y-152930839D01*
X21915328Y-153623405D01*
X21914674Y-154373305D01*
X15010000Y-154373305D01*
X15010000Y-151960000D01*
X32775168Y-151960000D01*
X32755000Y-152008691D01*
M02*
