%TF.GenerationSoftware,KiCad,Pcbnew,5.0.0-fee4fd1~65~ubuntu18.04.1*%
%TF.CreationDate,2018-07-28T20:32:54+02:00*%
%TF.ProjectId,blackBoxProbeBig,626C61636B426F7850726F6265426967,rev?*%
%TF.SameCoordinates,Original*%
%TF.FileFunction,Soldermask,Top*%
%TF.FilePolarity,Negative*%
%FSLAX46Y46*%
G04 Gerber Fmt 4.6, Leading zero omitted, Abs format (unit mm)*
G04 Created by KiCad (PCBNEW 5.0.0-fee4fd1~65~ubuntu18.04.1) date Sat Jul 28 20:32:54 2018*
%MOMM*%
%LPD*%
G01*
G04 APERTURE LIST*
%ADD10R,0.950000X1.000000*%
%ADD11R,2.300000X2.600000*%
%ADD12R,0.900000X1.100000*%
%ADD13R,0.600000X1.700000*%
%ADD14R,0.480000X1.700000*%
%ADD15R,1.700000X0.600000*%
%ADD16R,1.700000X0.480000*%
%ADD17C,2.700000*%
%ADD18R,1.200000X1.450000*%
%ADD19R,1.000000X0.950000*%
%ADD20R,1.450000X1.200000*%
%ADD21C,1.400000*%
%ADD22R,2.050000X0.600000*%
%ADD23R,1.900000X1.900000*%
%ADD24O,1.900000X1.900000*%
%ADD25R,1.100000X0.900000*%
%ADD26R,1.797660X2.198980*%
%ADD27R,1.200000X0.600000*%
%ADD28R,1.200000X0.500000*%
%ADD29R,0.680000X1.600000*%
%ADD30O,1.400000X3.050000*%
%ADD31R,2.000000X2.000000*%
%ADD32C,2.000000*%
%ADD33R,0.950000X0.950000*%
%ADD34C,0.950000*%
%ADD35R,1.100000X0.800000*%
%ADD36R,1.100000X0.600000*%
%ADD37R,0.800000X1.100000*%
%ADD38R,0.600000X1.100000*%
%ADD39R,1.400000X0.850000*%
%ADD40C,0.750000*%
%ADD41C,0.555600*%
%ADD42C,0.581000*%
G04 APERTURE END LIST*
D10*
%TO.C,C5*%
X37500000Y-178950000D03*
X37500000Y-180450000D03*
%TD*%
D11*
%TO.C,Y1*%
X25800000Y-190200000D03*
X30200000Y-190200000D03*
%TD*%
D12*
%TO.C,R30*%
X29350000Y-154200000D03*
X27650000Y-154200000D03*
%TD*%
D13*
%TO.C,U3*%
X28490000Y-187125000D03*
D14*
X29050000Y-187125000D03*
X29550000Y-187125000D03*
X30050000Y-187125000D03*
X30550000Y-187125000D03*
X31050000Y-187125000D03*
X31550000Y-187125000D03*
X32050000Y-187125000D03*
X32550000Y-187125000D03*
X33050000Y-187125000D03*
X33550000Y-187125000D03*
D13*
X34110000Y-187125000D03*
D15*
X35725000Y-185510000D03*
D16*
X35725000Y-184950000D03*
X35725000Y-184450000D03*
X35725000Y-183950000D03*
X35725000Y-183450000D03*
X35725000Y-182950000D03*
X35725000Y-182450000D03*
X35725000Y-181950000D03*
X35725000Y-181450000D03*
X35725000Y-180950000D03*
X35725000Y-180450000D03*
D15*
X35725000Y-179890000D03*
D13*
X34110000Y-178275000D03*
D14*
X33550000Y-178275000D03*
X33050000Y-178275000D03*
X32550000Y-178275000D03*
X32050000Y-178275000D03*
X31550000Y-178275000D03*
X31050000Y-178275000D03*
X30550000Y-178275000D03*
X30050000Y-178275000D03*
X29550000Y-178275000D03*
X29050000Y-178275000D03*
D13*
X28490000Y-178275000D03*
D15*
X26875000Y-179890000D03*
D16*
X26875000Y-180450000D03*
X26875000Y-180950000D03*
X26875000Y-181450000D03*
X26875000Y-181950000D03*
X26875000Y-182450000D03*
X26875000Y-182950000D03*
X26875000Y-183450000D03*
X26875000Y-183950000D03*
X26875000Y-184450000D03*
X26875000Y-184950000D03*
D15*
X26875000Y-185510000D03*
%TD*%
D17*
%TO.C,H1*%
X23800000Y-154000000D03*
%TD*%
%TO.C,H2*%
X48800000Y-192500000D03*
%TD*%
D18*
%TO.C,C1*%
X18250000Y-165000000D03*
X16250000Y-165000000D03*
%TD*%
%TO.C,C2*%
X16210000Y-176690000D03*
X18210000Y-176690000D03*
%TD*%
D19*
%TO.C,C3*%
X18000000Y-163200000D03*
X16500000Y-163200000D03*
%TD*%
D20*
%TO.C,C4*%
X23150000Y-157825000D03*
X23150000Y-159825000D03*
%TD*%
D19*
%TO.C,C6*%
X27550000Y-176600000D03*
X29050000Y-176600000D03*
%TD*%
D10*
%TO.C,C7*%
X25100000Y-186450000D03*
X25100000Y-184950000D03*
%TD*%
D19*
%TO.C,C8*%
X34750000Y-189400000D03*
X33250000Y-189400000D03*
%TD*%
D18*
%TO.C,C9*%
X35300000Y-191200000D03*
X33300000Y-191200000D03*
%TD*%
D10*
%TO.C,C11*%
X53000000Y-171350000D03*
X53000000Y-172850000D03*
%TD*%
D19*
%TO.C,C12*%
X25750000Y-192900000D03*
X27250000Y-192900000D03*
%TD*%
%TO.C,C13*%
X30250000Y-192900000D03*
X28750000Y-192900000D03*
%TD*%
D18*
%TO.C,C14*%
X54000000Y-179900000D03*
X52000000Y-179900000D03*
%TD*%
D19*
%TO.C,C15*%
X44150000Y-162000000D03*
X45650000Y-162000000D03*
%TD*%
%TO.C,C16*%
X48650000Y-162000000D03*
X47150000Y-162000000D03*
%TD*%
%TO.C,C17*%
X38250000Y-167000000D03*
X39750000Y-167000000D03*
%TD*%
%TO.C,C18*%
X48650000Y-167000000D03*
X47150000Y-167000000D03*
%TD*%
%TO.C,C19*%
X44150000Y-167000000D03*
X45650000Y-167000000D03*
%TD*%
%TO.C,C20*%
X42750000Y-167000000D03*
X41250000Y-167000000D03*
%TD*%
%TO.C,C21*%
X38250000Y-162000000D03*
X39750000Y-162000000D03*
%TD*%
%TO.C,C22*%
X42750000Y-162000000D03*
X41250000Y-162000000D03*
%TD*%
D21*
%TO.C,J1*%
X18975000Y-167395000D03*
X18975000Y-174545000D03*
X15525000Y-167395000D03*
D22*
X18550000Y-172270000D03*
X18550000Y-171620000D03*
X18550000Y-170970000D03*
X18550000Y-170320000D03*
X18550000Y-169670000D03*
D21*
X15525000Y-174545000D03*
%TD*%
D23*
%TO.C,J4*%
X52450000Y-185260000D03*
D24*
X52450000Y-187800000D03*
X52450000Y-190340000D03*
X52450000Y-192880000D03*
%TD*%
D25*
%TO.C,R1*%
X21100000Y-168150000D03*
X21100000Y-166450000D03*
%TD*%
D12*
%TO.C,R2*%
X23600000Y-173300000D03*
X21900000Y-173300000D03*
%TD*%
%TO.C,R3*%
X21900000Y-174900000D03*
X23600000Y-174900000D03*
%TD*%
%TO.C,R4*%
X36750000Y-192000000D03*
X38450000Y-192000000D03*
%TD*%
%TO.C,R5*%
X36750000Y-193600000D03*
X38450000Y-193600000D03*
%TD*%
D25*
%TO.C,R6*%
X44700000Y-193750000D03*
X44700000Y-192050000D03*
%TD*%
%TO.C,R7*%
X22700000Y-166450000D03*
X22700000Y-168150000D03*
%TD*%
D12*
%TO.C,R8*%
X19650000Y-180600000D03*
X21350000Y-180600000D03*
%TD*%
%TO.C,R9*%
X19650000Y-183800000D03*
X21350000Y-183800000D03*
%TD*%
D25*
%TO.C,R10*%
X56200000Y-171250000D03*
X56200000Y-172950000D03*
%TD*%
%TO.C,R11*%
X54600000Y-172950000D03*
X54600000Y-171250000D03*
%TD*%
%TO.C,R12*%
X24300000Y-166450000D03*
X24300000Y-168150000D03*
%TD*%
D12*
%TO.C,R13*%
X19650000Y-179000000D03*
X21350000Y-179000000D03*
%TD*%
%TO.C,R14*%
X19650000Y-182200000D03*
X21350000Y-182200000D03*
%TD*%
%TO.C,R15*%
X19650000Y-185400000D03*
X21350000Y-185400000D03*
%TD*%
D25*
%TO.C,R16*%
X28300000Y-174650000D03*
X28300000Y-172950000D03*
%TD*%
%TO.C,R17*%
X22800000Y-187050000D03*
X22800000Y-185350000D03*
%TD*%
D12*
%TO.C,R18*%
X19650000Y-187000000D03*
X21350000Y-187000000D03*
%TD*%
%TO.C,R19*%
X18350000Y-187000000D03*
X16650000Y-187000000D03*
%TD*%
%TO.C,R20*%
X51750000Y-159200000D03*
X50050000Y-159200000D03*
%TD*%
%TO.C,R21*%
X51750000Y-165600000D03*
X50050000Y-165600000D03*
%TD*%
%TO.C,R22*%
X51750000Y-162400000D03*
X50050000Y-162400000D03*
%TD*%
D25*
%TO.C,R23*%
X44400000Y-158850000D03*
X44400000Y-160550000D03*
%TD*%
D12*
%TO.C,R24*%
X51750000Y-167200000D03*
X50050000Y-167200000D03*
%TD*%
%TO.C,R25*%
X51750000Y-164000000D03*
X50050000Y-164000000D03*
%TD*%
%TO.C,R26*%
X51750000Y-160800000D03*
X50050000Y-160800000D03*
%TD*%
%TO.C,R28*%
X49950000Y-175300000D03*
X51650000Y-175300000D03*
%TD*%
%TO.C,R29*%
X29350000Y-152600000D03*
X27650000Y-152600000D03*
%TD*%
%TO.C,R31*%
X29350000Y-155800000D03*
X27650000Y-155800000D03*
%TD*%
%TO.C,R32*%
X29350000Y-157400000D03*
X27650000Y-157400000D03*
%TD*%
%TO.C,R33*%
X49550000Y-187800000D03*
X47850000Y-187800000D03*
%TD*%
%TO.C,R35*%
X49550000Y-189400000D03*
X47850000Y-189400000D03*
%TD*%
D26*
%TO.C,S1*%
X42100000Y-193397480D03*
X42100000Y-188002520D03*
%TD*%
D27*
%TO.C,U4*%
X39000000Y-168700000D03*
D28*
X39000000Y-169250000D03*
X39000000Y-169750000D03*
D27*
X39000000Y-170300000D03*
X42000000Y-170300000D03*
D28*
X42000000Y-169750000D03*
X42000000Y-169250000D03*
D27*
X42000000Y-168700000D03*
%TD*%
%TO.C,U5*%
X44900000Y-163700000D03*
D28*
X44900000Y-164250000D03*
X44900000Y-164750000D03*
D27*
X44900000Y-165300000D03*
X47900000Y-165300000D03*
D28*
X47900000Y-164750000D03*
X47900000Y-164250000D03*
D27*
X47900000Y-163700000D03*
%TD*%
%TO.C,U6*%
X44900000Y-168700000D03*
D28*
X44900000Y-169250000D03*
X44900000Y-169750000D03*
D27*
X44900000Y-170300000D03*
X47900000Y-170300000D03*
D28*
X47900000Y-169750000D03*
X47900000Y-169250000D03*
D27*
X47900000Y-168700000D03*
%TD*%
%TO.C,U7*%
X39000000Y-163700000D03*
D28*
X39000000Y-164250000D03*
X39000000Y-164750000D03*
D27*
X39000000Y-165300000D03*
X42000000Y-165300000D03*
D28*
X42000000Y-164750000D03*
X42000000Y-164250000D03*
D27*
X42000000Y-163700000D03*
%TD*%
D29*
%TO.C,U1*%
X16930000Y-157820000D03*
X18430000Y-157820000D03*
X19930000Y-157820000D03*
D30*
X18430000Y-155820000D03*
%TD*%
D31*
%TO.C,D1*%
X34290000Y-153035000D03*
D32*
X34290000Y-155575000D03*
%TD*%
D31*
%TO.C,D2*%
X39370000Y-153035000D03*
D32*
X39370000Y-155575000D03*
%TD*%
D31*
%TO.C,D3*%
X44450000Y-153035000D03*
D32*
X44450000Y-155575000D03*
%TD*%
D31*
%TO.C,D4*%
X49530000Y-153035000D03*
D32*
X49530000Y-155575000D03*
%TD*%
D12*
%TO.C,R27*%
X28450000Y-169900000D03*
X26750000Y-169900000D03*
%TD*%
%TO.C,R34*%
X28450000Y-171500000D03*
X26750000Y-171500000D03*
%TD*%
D33*
%TO.C,J2*%
X16665000Y-179660000D03*
D34*
X17935000Y-179660000D03*
X16665000Y-180930000D03*
X17935000Y-180930000D03*
X16665000Y-182200000D03*
X17935000Y-182200000D03*
X16665000Y-183470000D03*
X17935000Y-183470000D03*
X16665000Y-184740000D03*
X17935000Y-184740000D03*
%TD*%
D33*
%TO.C,J3*%
X56235000Y-166540000D03*
D34*
X54965000Y-166540000D03*
X56235000Y-165270000D03*
X54965000Y-165270000D03*
X56235000Y-164000000D03*
X54965000Y-164000000D03*
X56235000Y-162730000D03*
X54965000Y-162730000D03*
X56235000Y-161460000D03*
X54965000Y-161460000D03*
%TD*%
D19*
%TO.C,C10*%
X22950000Y-188600000D03*
X21450000Y-188600000D03*
%TD*%
D35*
%TO.C,Q1*%
X48050000Y-159050000D03*
D36*
X48050000Y-159800000D03*
D35*
X48050000Y-160550000D03*
X45950000Y-159050000D03*
D36*
X45950000Y-159800000D03*
D35*
X45950000Y-160550000D03*
%TD*%
D37*
%TO.C,Q2*%
X51550000Y-173150000D03*
D38*
X50800000Y-173150000D03*
D37*
X50050000Y-173150000D03*
X51550000Y-171050000D03*
D38*
X50800000Y-171050000D03*
D37*
X50050000Y-171050000D03*
%TD*%
D12*
%TO.C,R36*%
X51750000Y-157600000D03*
X50050000Y-157600000D03*
%TD*%
%TO.C,R37*%
X22650000Y-177400000D03*
X24350000Y-177400000D03*
%TD*%
%TO.C,R38*%
X24350000Y-179000000D03*
X22650000Y-179000000D03*
%TD*%
D39*
%TO.C,U2*%
X22450000Y-169700000D03*
X22450000Y-170650000D03*
X22450000Y-171600000D03*
X24850000Y-171600000D03*
X24850000Y-169700000D03*
X24850000Y-170650000D03*
%TD*%
D40*
X23500000Y-169000000D03*
X20800000Y-165200000D03*
X24500000Y-173300000D03*
D41*
X38250000Y-180450000D03*
X24600000Y-174900000D03*
D42*
X47000000Y-159800000D03*
D34*
X50800000Y-179900000D03*
D41*
X53800000Y-170400000D03*
X46400000Y-162000000D03*
X40500000Y-167000000D03*
X46400000Y-167000000D03*
X40500000Y-162000000D03*
X22800000Y-187700000D03*
X28000000Y-192900000D03*
X24500000Y-168900000D03*
D40*
X39200000Y-193600000D03*
D41*
X29050000Y-175850000D03*
D40*
X23600000Y-171500000D03*
D42*
X24100000Y-185200000D03*
D34*
X15550000Y-163200000D03*
X23150000Y-161100000D03*
D40*
X16210000Y-177935000D03*
D34*
X20500000Y-173750000D03*
D41*
X23400000Y-178200000D03*
X38000000Y-165300000D03*
X38250000Y-178950000D03*
X52000000Y-174200000D03*
X47000000Y-165300000D03*
X44500000Y-158200000D03*
D42*
X44150000Y-166350000D03*
D34*
X55200000Y-179900000D03*
D41*
X38250000Y-161250000D03*
X38250000Y-166250000D03*
X44150000Y-161250000D03*
X19000000Y-187000000D03*
D34*
X24300000Y-157800000D03*
D41*
X25100000Y-181900000D03*
X43750000Y-193750000D03*
D40*
X39200000Y-192000000D03*
D41*
X27550000Y-175850000D03*
D42*
X24100000Y-186200000D03*
D41*
X22000000Y-177400000D03*
X41000000Y-170300000D03*
X53000000Y-173700000D03*
X38200000Y-183000000D03*
D42*
X36800000Y-159700000D03*
D41*
X34300000Y-185700000D03*
D42*
X35100000Y-160600000D03*
D41*
X32000000Y-183400000D03*
X51600000Y-177200000D03*
X38700000Y-182400000D03*
X28900000Y-182600000D03*
X22700000Y-168800000D03*
X22400000Y-182200000D03*
X24100000Y-182200000D03*
X21400000Y-186200000D03*
X31500000Y-185500000D03*
X30000000Y-180000000D03*
X27400000Y-174700000D03*
D42*
X49300000Y-165600000D03*
X48800000Y-164000000D03*
D41*
X27000000Y-154200000D03*
X29400000Y-182000000D03*
X27000000Y-155800000D03*
X29800000Y-181500000D03*
X27000000Y-157400000D03*
X29400000Y-181000000D03*
X33500000Y-185700000D03*
X32500000Y-173500000D03*
X32000000Y-185000000D03*
X32000000Y-174000000D03*
D42*
X44100000Y-164300000D03*
X33800000Y-184400000D03*
X43300000Y-169300000D03*
X37100000Y-183900000D03*
D41*
X36100000Y-171000000D03*
X43800000Y-169800000D03*
D42*
X43400000Y-164800000D03*
X35700000Y-186400000D03*
X48650000Y-166350000D03*
D41*
X42500000Y-161200000D03*
X48400000Y-161200000D03*
X42750000Y-166250000D03*
X49200000Y-157600000D03*
M02*
