%TF.GenerationSoftware,KiCad,Pcbnew,5.0.0-fee4fd1~65~ubuntu18.04.1*%
%TF.CreationDate,2018-07-28T20:32:54+02:00*%
%TF.ProjectId,blackBoxProbeBig,626C61636B426F7850726F6265426967,rev?*%
%TF.SameCoordinates,Original*%
%TF.FileFunction,Legend,Top*%
%TF.FilePolarity,Positive*%
%FSLAX46Y46*%
G04 Gerber Fmt 4.6, Leading zero omitted, Abs format (unit mm)*
G04 Created by KiCad (PCBNEW 5.0.0-fee4fd1~65~ubuntu18.04.1) date Sat Jul 28 20:32:54 2018*
%MOMM*%
%LPD*%
G01*
G04 APERTURE LIST*
%ADD10C,0.150000*%
%ADD11C,0.254000*%
%ADD12C,0.010000*%
%ADD13C,0.120000*%
%ADD14C,0.127000*%
G04 APERTURE END LIST*
D10*
%TO.C,C5*%
X38100000Y-179350000D02*
X38100000Y-180050000D01*
X36900000Y-180050000D02*
X36900000Y-179350000D01*
%TO.C,Y1*%
X25500000Y-191800000D02*
X25500000Y-191600000D01*
X30500000Y-191800000D02*
X30500000Y-191600000D01*
X30500000Y-188600000D02*
X30500000Y-188800000D01*
X25500000Y-188600000D02*
X25500000Y-188800000D01*
X25500000Y-191800000D02*
X30500000Y-191800000D01*
X25500000Y-188600000D02*
X30500000Y-188600000D01*
%TO.C,R30*%
X28000000Y-153525000D02*
X29000000Y-153525000D01*
X29000000Y-154875000D02*
X28000000Y-154875000D01*
D11*
%TO.C,U3*%
X27925000Y-179600000D02*
X28200000Y-179325000D01*
X28200000Y-179325000D02*
X34400000Y-179325000D01*
X34400000Y-179325000D02*
X34675000Y-179600000D01*
X34675000Y-179600000D02*
X34675000Y-185800000D01*
X34675000Y-185800000D02*
X34400000Y-186075000D01*
X34400000Y-186075000D02*
X28200000Y-186075000D01*
X28200000Y-186075000D02*
X27925000Y-185800000D01*
X27925000Y-185800000D02*
X27925000Y-179600000D01*
D10*
X29065000Y-185335000D02*
G75*
G03X29065000Y-185335000I-400000J0D01*
G01*
D12*
%TO.C,N1*%
G36*
X44555814Y-177968931D02*
X44639635Y-178413555D01*
X44948920Y-178541053D01*
X45258206Y-178668551D01*
X45629246Y-178416246D01*
X45733157Y-178345996D01*
X45827087Y-178283272D01*
X45906652Y-178230938D01*
X45967470Y-178191857D01*
X46005157Y-178168893D01*
X46015421Y-178163942D01*
X46033910Y-178176676D01*
X46073420Y-178211882D01*
X46129522Y-178265062D01*
X46197787Y-178331718D01*
X46273786Y-178407354D01*
X46353092Y-178487472D01*
X46431275Y-178567574D01*
X46503907Y-178643164D01*
X46566559Y-178709745D01*
X46614803Y-178762818D01*
X46644210Y-178797887D01*
X46651241Y-178809623D01*
X46641123Y-178831260D01*
X46612759Y-178878662D01*
X46569129Y-178947193D01*
X46513218Y-179032215D01*
X46448006Y-179129093D01*
X46410219Y-179184350D01*
X46341343Y-179285248D01*
X46280140Y-179376299D01*
X46229578Y-179452970D01*
X46192628Y-179510728D01*
X46172258Y-179545043D01*
X46169197Y-179552254D01*
X46176136Y-179572748D01*
X46195051Y-179620513D01*
X46223087Y-179688832D01*
X46257391Y-179770989D01*
X46295109Y-179860270D01*
X46333387Y-179949958D01*
X46369370Y-180033338D01*
X46400206Y-180103694D01*
X46423039Y-180154310D01*
X46435017Y-180178471D01*
X46435724Y-180179422D01*
X46454531Y-180184036D01*
X46504618Y-180194328D01*
X46580793Y-180209287D01*
X46677865Y-180227901D01*
X46790643Y-180249159D01*
X46856442Y-180261418D01*
X46976950Y-180284362D01*
X47085797Y-180306195D01*
X47177476Y-180325722D01*
X47246481Y-180341748D01*
X47287304Y-180353079D01*
X47295511Y-180356674D01*
X47303548Y-180381006D01*
X47310033Y-180435959D01*
X47314970Y-180515108D01*
X47318364Y-180612026D01*
X47320218Y-180720287D01*
X47320538Y-180833465D01*
X47319327Y-180945135D01*
X47316590Y-181048868D01*
X47312331Y-181138241D01*
X47306555Y-181206826D01*
X47299267Y-181248197D01*
X47294895Y-181256810D01*
X47268764Y-181267133D01*
X47213393Y-181281892D01*
X47136107Y-181299352D01*
X47044230Y-181317780D01*
X47012158Y-181323741D01*
X46857524Y-181352066D01*
X46735375Y-181374876D01*
X46641673Y-181393080D01*
X46572384Y-181407583D01*
X46523471Y-181419292D01*
X46490897Y-181429115D01*
X46470628Y-181437956D01*
X46458626Y-181446724D01*
X46456947Y-181448457D01*
X46440184Y-181476371D01*
X46414614Y-181530695D01*
X46382788Y-181604777D01*
X46347260Y-181691965D01*
X46310583Y-181785608D01*
X46275311Y-181879052D01*
X46243996Y-181965647D01*
X46219193Y-182038740D01*
X46203454Y-182091678D01*
X46199332Y-182117811D01*
X46199676Y-182118726D01*
X46213641Y-182140086D01*
X46245322Y-182187084D01*
X46291391Y-182254827D01*
X46348518Y-182338423D01*
X46413373Y-182432982D01*
X46431843Y-182459854D01*
X46497699Y-182557275D01*
X46555650Y-182646163D01*
X46602538Y-182721412D01*
X46635207Y-182777920D01*
X46650500Y-182810581D01*
X46651241Y-182814593D01*
X46638392Y-182835684D01*
X46602888Y-182877464D01*
X46549293Y-182935445D01*
X46482171Y-183005135D01*
X46406087Y-183082045D01*
X46325604Y-183161683D01*
X46245287Y-183239561D01*
X46169699Y-183311186D01*
X46103405Y-183372070D01*
X46050969Y-183417721D01*
X46016955Y-183443650D01*
X46007545Y-183447883D01*
X45985643Y-183437912D01*
X45940800Y-183411020D01*
X45880321Y-183371736D01*
X45833789Y-183340117D01*
X45749475Y-183282098D01*
X45649626Y-183213784D01*
X45549473Y-183145579D01*
X45495627Y-183109075D01*
X45313371Y-182985800D01*
X45160381Y-183068520D01*
X45090682Y-183104759D01*
X45031414Y-183132926D01*
X44991311Y-183148991D01*
X44981103Y-183151226D01*
X44968829Y-183134722D01*
X44944613Y-183088082D01*
X44910263Y-183015609D01*
X44867588Y-182921606D01*
X44818394Y-182810374D01*
X44764490Y-182686215D01*
X44707684Y-182553432D01*
X44649782Y-182416327D01*
X44592593Y-182279202D01*
X44537924Y-182146358D01*
X44487584Y-182022098D01*
X44443380Y-181910725D01*
X44407119Y-181816539D01*
X44380609Y-181743844D01*
X44365658Y-181696941D01*
X44363254Y-181680833D01*
X44382311Y-181660286D01*
X44424036Y-181626933D01*
X44479706Y-181587702D01*
X44484378Y-181584599D01*
X44628264Y-181469423D01*
X44744283Y-181335053D01*
X44831430Y-181185784D01*
X44888699Y-181025913D01*
X44915086Y-180859737D01*
X44909585Y-180691552D01*
X44871190Y-180525655D01*
X44798895Y-180366342D01*
X44777626Y-180331487D01*
X44666996Y-180190737D01*
X44536302Y-180077714D01*
X44390064Y-179993003D01*
X44232808Y-179937194D01*
X44069057Y-179910874D01*
X43903333Y-179914630D01*
X43740162Y-179949050D01*
X43584065Y-180014723D01*
X43439567Y-180112235D01*
X43394869Y-180151813D01*
X43281112Y-180275703D01*
X43198218Y-180406124D01*
X43141356Y-180552315D01*
X43109687Y-180697088D01*
X43101869Y-180859860D01*
X43127938Y-181023440D01*
X43185245Y-181182298D01*
X43271144Y-181330906D01*
X43382986Y-181463735D01*
X43518123Y-181575256D01*
X43535883Y-181587011D01*
X43592150Y-181625508D01*
X43634923Y-181658863D01*
X43655372Y-181680160D01*
X43655669Y-181680833D01*
X43651279Y-181703871D01*
X43633876Y-181756157D01*
X43605268Y-181833390D01*
X43567265Y-181931268D01*
X43521674Y-182045491D01*
X43470303Y-182171758D01*
X43414962Y-182305767D01*
X43357458Y-182443218D01*
X43299601Y-182579808D01*
X43243198Y-182711237D01*
X43190058Y-182833205D01*
X43141990Y-182941409D01*
X43100801Y-183031549D01*
X43068301Y-183099323D01*
X43046297Y-183140430D01*
X43037436Y-183151226D01*
X43010360Y-183142819D01*
X42959697Y-183120272D01*
X42894183Y-183087613D01*
X42858159Y-183068520D01*
X42705168Y-182985800D01*
X42522912Y-183109075D01*
X42429875Y-183172228D01*
X42328015Y-183241727D01*
X42232562Y-183307165D01*
X42184750Y-183340117D01*
X42117505Y-183385273D01*
X42060564Y-183421057D01*
X42021354Y-183442938D01*
X42008619Y-183447563D01*
X41990083Y-183435085D01*
X41949059Y-183400252D01*
X41889525Y-183346678D01*
X41815458Y-183277983D01*
X41730835Y-183197781D01*
X41677315Y-183146286D01*
X41583681Y-183054286D01*
X41502759Y-182971999D01*
X41437823Y-182902945D01*
X41392142Y-182850644D01*
X41368989Y-182818616D01*
X41366768Y-182812116D01*
X41377076Y-182787394D01*
X41405561Y-182737405D01*
X41449063Y-182667212D01*
X41504423Y-182581875D01*
X41568480Y-182486456D01*
X41586697Y-182459854D01*
X41653073Y-182363167D01*
X41712622Y-182276117D01*
X41762016Y-182203595D01*
X41797925Y-182150493D01*
X41817019Y-182121703D01*
X41818864Y-182118726D01*
X41816105Y-182095782D01*
X41801462Y-182045336D01*
X41777487Y-181974041D01*
X41746734Y-181888547D01*
X41711756Y-181795507D01*
X41675107Y-181701574D01*
X41639339Y-181613399D01*
X41607006Y-181537634D01*
X41580662Y-181480931D01*
X41562858Y-181449943D01*
X41561593Y-181448457D01*
X41550706Y-181439601D01*
X41532318Y-181430843D01*
X41502394Y-181421277D01*
X41456897Y-181409996D01*
X41391791Y-181396093D01*
X41303039Y-181378663D01*
X41186607Y-181356798D01*
X41038458Y-181329591D01*
X41006382Y-181323741D01*
X40911314Y-181305374D01*
X40828435Y-181287405D01*
X40765070Y-181271569D01*
X40728542Y-181259600D01*
X40723644Y-181256810D01*
X40715573Y-181232072D01*
X40709013Y-181176790D01*
X40703967Y-181097389D01*
X40700441Y-181000296D01*
X40698439Y-180891938D01*
X40697964Y-180778740D01*
X40699023Y-180667128D01*
X40701618Y-180563529D01*
X40705754Y-180474368D01*
X40711437Y-180406072D01*
X40718669Y-180365066D01*
X40723029Y-180356674D01*
X40747302Y-180348208D01*
X40802574Y-180334435D01*
X40883338Y-180316550D01*
X40984088Y-180295748D01*
X41099317Y-180273223D01*
X41162098Y-180261418D01*
X41281213Y-180239151D01*
X41387435Y-180218979D01*
X41475573Y-180201915D01*
X41540434Y-180188969D01*
X41576826Y-180181155D01*
X41582816Y-180179422D01*
X41592939Y-180159890D01*
X41614338Y-180112843D01*
X41644161Y-180045003D01*
X41679555Y-179963091D01*
X41717668Y-179873828D01*
X41755647Y-179783935D01*
X41790640Y-179700135D01*
X41819794Y-179629147D01*
X41840257Y-179577694D01*
X41849177Y-179552497D01*
X41849343Y-179551396D01*
X41839231Y-179531519D01*
X41810883Y-179485777D01*
X41767277Y-179418717D01*
X41711394Y-179334884D01*
X41646213Y-179238826D01*
X41608321Y-179183650D01*
X41539275Y-179082481D01*
X41477950Y-178990630D01*
X41427337Y-178912744D01*
X41390429Y-178853469D01*
X41370218Y-178817451D01*
X41367299Y-178809377D01*
X41379847Y-178790584D01*
X41414537Y-178750457D01*
X41466937Y-178693493D01*
X41532616Y-178624185D01*
X41607144Y-178547031D01*
X41686087Y-178466525D01*
X41765017Y-178387163D01*
X41839500Y-178313440D01*
X41905106Y-178249852D01*
X41957404Y-178200894D01*
X41991961Y-178171061D01*
X42003522Y-178163942D01*
X42022346Y-178173953D01*
X42067369Y-178202078D01*
X42134213Y-178245454D01*
X42218501Y-178301218D01*
X42315856Y-178366506D01*
X42389293Y-178416246D01*
X42760333Y-178668551D01*
X43378905Y-178413555D01*
X43462725Y-177968931D01*
X43546546Y-177524307D01*
X44471994Y-177524307D01*
X44555814Y-177968931D01*
X44555814Y-177968931D01*
G37*
X44555814Y-177968931D02*
X44639635Y-178413555D01*
X44948920Y-178541053D01*
X45258206Y-178668551D01*
X45629246Y-178416246D01*
X45733157Y-178345996D01*
X45827087Y-178283272D01*
X45906652Y-178230938D01*
X45967470Y-178191857D01*
X46005157Y-178168893D01*
X46015421Y-178163942D01*
X46033910Y-178176676D01*
X46073420Y-178211882D01*
X46129522Y-178265062D01*
X46197787Y-178331718D01*
X46273786Y-178407354D01*
X46353092Y-178487472D01*
X46431275Y-178567574D01*
X46503907Y-178643164D01*
X46566559Y-178709745D01*
X46614803Y-178762818D01*
X46644210Y-178797887D01*
X46651241Y-178809623D01*
X46641123Y-178831260D01*
X46612759Y-178878662D01*
X46569129Y-178947193D01*
X46513218Y-179032215D01*
X46448006Y-179129093D01*
X46410219Y-179184350D01*
X46341343Y-179285248D01*
X46280140Y-179376299D01*
X46229578Y-179452970D01*
X46192628Y-179510728D01*
X46172258Y-179545043D01*
X46169197Y-179552254D01*
X46176136Y-179572748D01*
X46195051Y-179620513D01*
X46223087Y-179688832D01*
X46257391Y-179770989D01*
X46295109Y-179860270D01*
X46333387Y-179949958D01*
X46369370Y-180033338D01*
X46400206Y-180103694D01*
X46423039Y-180154310D01*
X46435017Y-180178471D01*
X46435724Y-180179422D01*
X46454531Y-180184036D01*
X46504618Y-180194328D01*
X46580793Y-180209287D01*
X46677865Y-180227901D01*
X46790643Y-180249159D01*
X46856442Y-180261418D01*
X46976950Y-180284362D01*
X47085797Y-180306195D01*
X47177476Y-180325722D01*
X47246481Y-180341748D01*
X47287304Y-180353079D01*
X47295511Y-180356674D01*
X47303548Y-180381006D01*
X47310033Y-180435959D01*
X47314970Y-180515108D01*
X47318364Y-180612026D01*
X47320218Y-180720287D01*
X47320538Y-180833465D01*
X47319327Y-180945135D01*
X47316590Y-181048868D01*
X47312331Y-181138241D01*
X47306555Y-181206826D01*
X47299267Y-181248197D01*
X47294895Y-181256810D01*
X47268764Y-181267133D01*
X47213393Y-181281892D01*
X47136107Y-181299352D01*
X47044230Y-181317780D01*
X47012158Y-181323741D01*
X46857524Y-181352066D01*
X46735375Y-181374876D01*
X46641673Y-181393080D01*
X46572384Y-181407583D01*
X46523471Y-181419292D01*
X46490897Y-181429115D01*
X46470628Y-181437956D01*
X46458626Y-181446724D01*
X46456947Y-181448457D01*
X46440184Y-181476371D01*
X46414614Y-181530695D01*
X46382788Y-181604777D01*
X46347260Y-181691965D01*
X46310583Y-181785608D01*
X46275311Y-181879052D01*
X46243996Y-181965647D01*
X46219193Y-182038740D01*
X46203454Y-182091678D01*
X46199332Y-182117811D01*
X46199676Y-182118726D01*
X46213641Y-182140086D01*
X46245322Y-182187084D01*
X46291391Y-182254827D01*
X46348518Y-182338423D01*
X46413373Y-182432982D01*
X46431843Y-182459854D01*
X46497699Y-182557275D01*
X46555650Y-182646163D01*
X46602538Y-182721412D01*
X46635207Y-182777920D01*
X46650500Y-182810581D01*
X46651241Y-182814593D01*
X46638392Y-182835684D01*
X46602888Y-182877464D01*
X46549293Y-182935445D01*
X46482171Y-183005135D01*
X46406087Y-183082045D01*
X46325604Y-183161683D01*
X46245287Y-183239561D01*
X46169699Y-183311186D01*
X46103405Y-183372070D01*
X46050969Y-183417721D01*
X46016955Y-183443650D01*
X46007545Y-183447883D01*
X45985643Y-183437912D01*
X45940800Y-183411020D01*
X45880321Y-183371736D01*
X45833789Y-183340117D01*
X45749475Y-183282098D01*
X45649626Y-183213784D01*
X45549473Y-183145579D01*
X45495627Y-183109075D01*
X45313371Y-182985800D01*
X45160381Y-183068520D01*
X45090682Y-183104759D01*
X45031414Y-183132926D01*
X44991311Y-183148991D01*
X44981103Y-183151226D01*
X44968829Y-183134722D01*
X44944613Y-183088082D01*
X44910263Y-183015609D01*
X44867588Y-182921606D01*
X44818394Y-182810374D01*
X44764490Y-182686215D01*
X44707684Y-182553432D01*
X44649782Y-182416327D01*
X44592593Y-182279202D01*
X44537924Y-182146358D01*
X44487584Y-182022098D01*
X44443380Y-181910725D01*
X44407119Y-181816539D01*
X44380609Y-181743844D01*
X44365658Y-181696941D01*
X44363254Y-181680833D01*
X44382311Y-181660286D01*
X44424036Y-181626933D01*
X44479706Y-181587702D01*
X44484378Y-181584599D01*
X44628264Y-181469423D01*
X44744283Y-181335053D01*
X44831430Y-181185784D01*
X44888699Y-181025913D01*
X44915086Y-180859737D01*
X44909585Y-180691552D01*
X44871190Y-180525655D01*
X44798895Y-180366342D01*
X44777626Y-180331487D01*
X44666996Y-180190737D01*
X44536302Y-180077714D01*
X44390064Y-179993003D01*
X44232808Y-179937194D01*
X44069057Y-179910874D01*
X43903333Y-179914630D01*
X43740162Y-179949050D01*
X43584065Y-180014723D01*
X43439567Y-180112235D01*
X43394869Y-180151813D01*
X43281112Y-180275703D01*
X43198218Y-180406124D01*
X43141356Y-180552315D01*
X43109687Y-180697088D01*
X43101869Y-180859860D01*
X43127938Y-181023440D01*
X43185245Y-181182298D01*
X43271144Y-181330906D01*
X43382986Y-181463735D01*
X43518123Y-181575256D01*
X43535883Y-181587011D01*
X43592150Y-181625508D01*
X43634923Y-181658863D01*
X43655372Y-181680160D01*
X43655669Y-181680833D01*
X43651279Y-181703871D01*
X43633876Y-181756157D01*
X43605268Y-181833390D01*
X43567265Y-181931268D01*
X43521674Y-182045491D01*
X43470303Y-182171758D01*
X43414962Y-182305767D01*
X43357458Y-182443218D01*
X43299601Y-182579808D01*
X43243198Y-182711237D01*
X43190058Y-182833205D01*
X43141990Y-182941409D01*
X43100801Y-183031549D01*
X43068301Y-183099323D01*
X43046297Y-183140430D01*
X43037436Y-183151226D01*
X43010360Y-183142819D01*
X42959697Y-183120272D01*
X42894183Y-183087613D01*
X42858159Y-183068520D01*
X42705168Y-182985800D01*
X42522912Y-183109075D01*
X42429875Y-183172228D01*
X42328015Y-183241727D01*
X42232562Y-183307165D01*
X42184750Y-183340117D01*
X42117505Y-183385273D01*
X42060564Y-183421057D01*
X42021354Y-183442938D01*
X42008619Y-183447563D01*
X41990083Y-183435085D01*
X41949059Y-183400252D01*
X41889525Y-183346678D01*
X41815458Y-183277983D01*
X41730835Y-183197781D01*
X41677315Y-183146286D01*
X41583681Y-183054286D01*
X41502759Y-182971999D01*
X41437823Y-182902945D01*
X41392142Y-182850644D01*
X41368989Y-182818616D01*
X41366768Y-182812116D01*
X41377076Y-182787394D01*
X41405561Y-182737405D01*
X41449063Y-182667212D01*
X41504423Y-182581875D01*
X41568480Y-182486456D01*
X41586697Y-182459854D01*
X41653073Y-182363167D01*
X41712622Y-182276117D01*
X41762016Y-182203595D01*
X41797925Y-182150493D01*
X41817019Y-182121703D01*
X41818864Y-182118726D01*
X41816105Y-182095782D01*
X41801462Y-182045336D01*
X41777487Y-181974041D01*
X41746734Y-181888547D01*
X41711756Y-181795507D01*
X41675107Y-181701574D01*
X41639339Y-181613399D01*
X41607006Y-181537634D01*
X41580662Y-181480931D01*
X41562858Y-181449943D01*
X41561593Y-181448457D01*
X41550706Y-181439601D01*
X41532318Y-181430843D01*
X41502394Y-181421277D01*
X41456897Y-181409996D01*
X41391791Y-181396093D01*
X41303039Y-181378663D01*
X41186607Y-181356798D01*
X41038458Y-181329591D01*
X41006382Y-181323741D01*
X40911314Y-181305374D01*
X40828435Y-181287405D01*
X40765070Y-181271569D01*
X40728542Y-181259600D01*
X40723644Y-181256810D01*
X40715573Y-181232072D01*
X40709013Y-181176790D01*
X40703967Y-181097389D01*
X40700441Y-181000296D01*
X40698439Y-180891938D01*
X40697964Y-180778740D01*
X40699023Y-180667128D01*
X40701618Y-180563529D01*
X40705754Y-180474368D01*
X40711437Y-180406072D01*
X40718669Y-180365066D01*
X40723029Y-180356674D01*
X40747302Y-180348208D01*
X40802574Y-180334435D01*
X40883338Y-180316550D01*
X40984088Y-180295748D01*
X41099317Y-180273223D01*
X41162098Y-180261418D01*
X41281213Y-180239151D01*
X41387435Y-180218979D01*
X41475573Y-180201915D01*
X41540434Y-180188969D01*
X41576826Y-180181155D01*
X41582816Y-180179422D01*
X41592939Y-180159890D01*
X41614338Y-180112843D01*
X41644161Y-180045003D01*
X41679555Y-179963091D01*
X41717668Y-179873828D01*
X41755647Y-179783935D01*
X41790640Y-179700135D01*
X41819794Y-179629147D01*
X41840257Y-179577694D01*
X41849177Y-179552497D01*
X41849343Y-179551396D01*
X41839231Y-179531519D01*
X41810883Y-179485777D01*
X41767277Y-179418717D01*
X41711394Y-179334884D01*
X41646213Y-179238826D01*
X41608321Y-179183650D01*
X41539275Y-179082481D01*
X41477950Y-178990630D01*
X41427337Y-178912744D01*
X41390429Y-178853469D01*
X41370218Y-178817451D01*
X41367299Y-178809377D01*
X41379847Y-178790584D01*
X41414537Y-178750457D01*
X41466937Y-178693493D01*
X41532616Y-178624185D01*
X41607144Y-178547031D01*
X41686087Y-178466525D01*
X41765017Y-178387163D01*
X41839500Y-178313440D01*
X41905106Y-178249852D01*
X41957404Y-178200894D01*
X41991961Y-178171061D01*
X42003522Y-178163942D01*
X42022346Y-178173953D01*
X42067369Y-178202078D01*
X42134213Y-178245454D01*
X42218501Y-178301218D01*
X42315856Y-178366506D01*
X42389293Y-178416246D01*
X42760333Y-178668551D01*
X43378905Y-178413555D01*
X43462725Y-177968931D01*
X43546546Y-177524307D01*
X44471994Y-177524307D01*
X44555814Y-177968931D01*
D10*
%TO.C,C1*%
X16750000Y-165850000D02*
X17750000Y-165850000D01*
X17750000Y-164150000D02*
X16750000Y-164150000D01*
%TO.C,C2*%
X17710000Y-175840000D02*
X16710000Y-175840000D01*
X16710000Y-177540000D02*
X17710000Y-177540000D01*
%TO.C,C3*%
X17600000Y-163800000D02*
X16900000Y-163800000D01*
X16900000Y-162600000D02*
X17600000Y-162600000D01*
%TO.C,C4*%
X24000000Y-159325000D02*
X24000000Y-158325000D01*
X22300000Y-158325000D02*
X22300000Y-159325000D01*
%TO.C,C6*%
X27950000Y-176000000D02*
X28650000Y-176000000D01*
X28650000Y-177200000D02*
X27950000Y-177200000D01*
%TO.C,C7*%
X24500000Y-186050000D02*
X24500000Y-185350000D01*
X25700000Y-185350000D02*
X25700000Y-186050000D01*
%TO.C,C8*%
X34350000Y-190000000D02*
X33650000Y-190000000D01*
X33650000Y-188800000D02*
X34350000Y-188800000D01*
%TO.C,C9*%
X33800000Y-192050000D02*
X34800000Y-192050000D01*
X34800000Y-190350000D02*
X33800000Y-190350000D01*
%TO.C,C11*%
X53600000Y-171750000D02*
X53600000Y-172450000D01*
X52400000Y-172450000D02*
X52400000Y-171750000D01*
%TO.C,C12*%
X26150000Y-192300000D02*
X26850000Y-192300000D01*
X26850000Y-193500000D02*
X26150000Y-193500000D01*
%TO.C,C13*%
X29850000Y-193500000D02*
X29150000Y-193500000D01*
X29150000Y-192300000D02*
X29850000Y-192300000D01*
%TO.C,C14*%
X52500000Y-180750000D02*
X53500000Y-180750000D01*
X53500000Y-179050000D02*
X52500000Y-179050000D01*
%TO.C,C15*%
X44550000Y-161400000D02*
X45250000Y-161400000D01*
X45250000Y-162600000D02*
X44550000Y-162600000D01*
%TO.C,C16*%
X48250000Y-162600000D02*
X47550000Y-162600000D01*
X47550000Y-161400000D02*
X48250000Y-161400000D01*
%TO.C,C17*%
X38650000Y-166400000D02*
X39350000Y-166400000D01*
X39350000Y-167600000D02*
X38650000Y-167600000D01*
%TO.C,C18*%
X48250000Y-167600000D02*
X47550000Y-167600000D01*
X47550000Y-166400000D02*
X48250000Y-166400000D01*
%TO.C,C19*%
X44550000Y-166400000D02*
X45250000Y-166400000D01*
X45250000Y-167600000D02*
X44550000Y-167600000D01*
%TO.C,C20*%
X42350000Y-167600000D02*
X41650000Y-167600000D01*
X41650000Y-166400000D02*
X42350000Y-166400000D01*
%TO.C,C21*%
X38650000Y-161400000D02*
X39350000Y-161400000D01*
X39350000Y-162600000D02*
X38650000Y-162600000D01*
%TO.C,C22*%
X42350000Y-162600000D02*
X41650000Y-162600000D01*
X41650000Y-161400000D02*
X42350000Y-161400000D01*
%TO.C,J1*%
X14750000Y-174470000D02*
X14500000Y-174470000D01*
X14500000Y-174470000D02*
X14500000Y-167220000D01*
X14500000Y-167220000D02*
X14750000Y-167220000D01*
X18250000Y-167220000D02*
X16250000Y-167220000D01*
X18250000Y-174470000D02*
X16250000Y-174470000D01*
X19250000Y-172720000D02*
X19250000Y-173970000D01*
X19250000Y-167970000D02*
X19250000Y-169220000D01*
D13*
%TO.C,J4*%
X53890000Y-183930000D02*
X53890000Y-194210000D01*
X53890000Y-194210000D02*
X56550000Y-194210000D01*
X56550000Y-194210000D02*
X56550000Y-183930000D01*
X56550000Y-183930000D02*
X53890000Y-183930000D01*
X56550000Y-184880000D02*
X62550000Y-184880000D01*
X62550000Y-184880000D02*
X62550000Y-185640000D01*
X62550000Y-185640000D02*
X56550000Y-185640000D01*
X56550000Y-184940000D02*
X62550000Y-184940000D01*
X56550000Y-185060000D02*
X62550000Y-185060000D01*
X56550000Y-185180000D02*
X62550000Y-185180000D01*
X56550000Y-185300000D02*
X62550000Y-185300000D01*
X56550000Y-185420000D02*
X62550000Y-185420000D01*
X56550000Y-185540000D02*
X62550000Y-185540000D01*
X53560000Y-184880000D02*
X53890000Y-184880000D01*
X53560000Y-185640000D02*
X53890000Y-185640000D01*
X53890000Y-186530000D02*
X56550000Y-186530000D01*
X56550000Y-187420000D02*
X62550000Y-187420000D01*
X62550000Y-187420000D02*
X62550000Y-188180000D01*
X62550000Y-188180000D02*
X56550000Y-188180000D01*
X53492929Y-187420000D02*
X53890000Y-187420000D01*
X53492929Y-188180000D02*
X53890000Y-188180000D01*
X53890000Y-189070000D02*
X56550000Y-189070000D01*
X56550000Y-189960000D02*
X62550000Y-189960000D01*
X62550000Y-189960000D02*
X62550000Y-190720000D01*
X62550000Y-190720000D02*
X56550000Y-190720000D01*
X53492929Y-189960000D02*
X53890000Y-189960000D01*
X53492929Y-190720000D02*
X53890000Y-190720000D01*
X53890000Y-191610000D02*
X56550000Y-191610000D01*
X56550000Y-192500000D02*
X62550000Y-192500000D01*
X62550000Y-192500000D02*
X62550000Y-193260000D01*
X62550000Y-193260000D02*
X56550000Y-193260000D01*
X53492929Y-192500000D02*
X53890000Y-192500000D01*
X53492929Y-193260000D02*
X53890000Y-193260000D01*
X51180000Y-185260000D02*
X51180000Y-183990000D01*
X51180000Y-183990000D02*
X52450000Y-183990000D01*
D10*
%TO.C,R1*%
X21775000Y-166800000D02*
X21775000Y-167800000D01*
X20425000Y-167800000D02*
X20425000Y-166800000D01*
%TO.C,R2*%
X22250000Y-172625000D02*
X23250000Y-172625000D01*
X23250000Y-173975000D02*
X22250000Y-173975000D01*
%TO.C,R3*%
X23250000Y-175575000D02*
X22250000Y-175575000D01*
X22250000Y-174225000D02*
X23250000Y-174225000D01*
%TO.C,R4*%
X38100000Y-192675000D02*
X37100000Y-192675000D01*
X37100000Y-191325000D02*
X38100000Y-191325000D01*
%TO.C,R5*%
X38100000Y-194275000D02*
X37100000Y-194275000D01*
X37100000Y-192925000D02*
X38100000Y-192925000D01*
%TO.C,R6*%
X45375000Y-192400000D02*
X45375000Y-193400000D01*
X44025000Y-193400000D02*
X44025000Y-192400000D01*
%TO.C,R7*%
X22025000Y-167800000D02*
X22025000Y-166800000D01*
X23375000Y-166800000D02*
X23375000Y-167800000D01*
%TO.C,R8*%
X21000000Y-181275000D02*
X20000000Y-181275000D01*
X20000000Y-179925000D02*
X21000000Y-179925000D01*
%TO.C,R9*%
X21000000Y-184475000D02*
X20000000Y-184475000D01*
X20000000Y-183125000D02*
X21000000Y-183125000D01*
%TO.C,R10*%
X55525000Y-172600000D02*
X55525000Y-171600000D01*
X56875000Y-171600000D02*
X56875000Y-172600000D01*
%TO.C,R11*%
X55275000Y-171600000D02*
X55275000Y-172600000D01*
X53925000Y-172600000D02*
X53925000Y-171600000D01*
%TO.C,R12*%
X23625000Y-167800000D02*
X23625000Y-166800000D01*
X24975000Y-166800000D02*
X24975000Y-167800000D01*
%TO.C,R13*%
X21000000Y-179675000D02*
X20000000Y-179675000D01*
X20000000Y-178325000D02*
X21000000Y-178325000D01*
%TO.C,R14*%
X21000000Y-182875000D02*
X20000000Y-182875000D01*
X20000000Y-181525000D02*
X21000000Y-181525000D01*
%TO.C,R15*%
X21000000Y-186075000D02*
X20000000Y-186075000D01*
X20000000Y-184725000D02*
X21000000Y-184725000D01*
%TO.C,R16*%
X28975000Y-173300000D02*
X28975000Y-174300000D01*
X27625000Y-174300000D02*
X27625000Y-173300000D01*
%TO.C,R17*%
X23475000Y-185700000D02*
X23475000Y-186700000D01*
X22125000Y-186700000D02*
X22125000Y-185700000D01*
%TO.C,R18*%
X21000000Y-187675000D02*
X20000000Y-187675000D01*
X20000000Y-186325000D02*
X21000000Y-186325000D01*
%TO.C,R19*%
X17000000Y-186325000D02*
X18000000Y-186325000D01*
X18000000Y-187675000D02*
X17000000Y-187675000D01*
%TO.C,R20*%
X50400000Y-158525000D02*
X51400000Y-158525000D01*
X51400000Y-159875000D02*
X50400000Y-159875000D01*
%TO.C,R21*%
X50400000Y-164925000D02*
X51400000Y-164925000D01*
X51400000Y-166275000D02*
X50400000Y-166275000D01*
%TO.C,R22*%
X50400000Y-161725000D02*
X51400000Y-161725000D01*
X51400000Y-163075000D02*
X50400000Y-163075000D01*
%TO.C,R23*%
X43725000Y-160200000D02*
X43725000Y-159200000D01*
X45075000Y-159200000D02*
X45075000Y-160200000D01*
%TO.C,R24*%
X50400000Y-166525000D02*
X51400000Y-166525000D01*
X51400000Y-167875000D02*
X50400000Y-167875000D01*
%TO.C,R25*%
X50400000Y-163325000D02*
X51400000Y-163325000D01*
X51400000Y-164675000D02*
X50400000Y-164675000D01*
%TO.C,R26*%
X50400000Y-160125000D02*
X51400000Y-160125000D01*
X51400000Y-161475000D02*
X50400000Y-161475000D01*
%TO.C,R28*%
X51300000Y-175975000D02*
X50300000Y-175975000D01*
X50300000Y-174625000D02*
X51300000Y-174625000D01*
%TO.C,R29*%
X28000000Y-151925000D02*
X29000000Y-151925000D01*
X29000000Y-153275000D02*
X28000000Y-153275000D01*
%TO.C,R31*%
X28000000Y-155125000D02*
X29000000Y-155125000D01*
X29000000Y-156475000D02*
X28000000Y-156475000D01*
%TO.C,R32*%
X28000000Y-156725000D02*
X29000000Y-156725000D01*
X29000000Y-158075000D02*
X28000000Y-158075000D01*
%TO.C,R33*%
X48200000Y-187125000D02*
X49200000Y-187125000D01*
X49200000Y-188475000D02*
X48200000Y-188475000D01*
%TO.C,R35*%
X48200000Y-188725000D02*
X49200000Y-188725000D01*
X49200000Y-190075000D02*
X48200000Y-190075000D01*
%TO.C,S1*%
X40601400Y-193199360D02*
X41101780Y-193199360D01*
X43098220Y-193199360D02*
X43598600Y-193199360D01*
X43598600Y-193199360D02*
X43598600Y-188200640D01*
X43598600Y-188200640D02*
X43098220Y-188200640D01*
X41101780Y-188200640D02*
X40601400Y-188200640D01*
X40601400Y-188200640D02*
X40601400Y-193199360D01*
%TO.C,U4*%
X40000000Y-168700000D02*
G75*
G03X40000000Y-168700000I-100000J0D01*
G01*
X39750000Y-170500000D02*
X41250000Y-170500000D01*
X39750000Y-168500000D02*
X41250000Y-168500000D01*
%TO.C,U5*%
X45900000Y-163700000D02*
G75*
G03X45900000Y-163700000I-100000J0D01*
G01*
X45650000Y-165500000D02*
X47150000Y-165500000D01*
X45650000Y-163500000D02*
X47150000Y-163500000D01*
%TO.C,U6*%
X45900000Y-168700000D02*
G75*
G03X45900000Y-168700000I-100000J0D01*
G01*
X45650000Y-170500000D02*
X47150000Y-170500000D01*
X45650000Y-168500000D02*
X47150000Y-168500000D01*
%TO.C,U7*%
X40000000Y-163700000D02*
G75*
G03X40000000Y-163700000I-100000J0D01*
G01*
X39750000Y-165500000D02*
X41250000Y-165500000D01*
X39750000Y-163500000D02*
X41250000Y-163500000D01*
%TO.C,U1*%
X20430000Y-155120000D02*
X20430000Y-156820000D01*
X19430000Y-155120000D02*
X20430000Y-155120000D01*
X16430000Y-155120000D02*
X17430000Y-155120000D01*
X16430000Y-156820000D02*
X16430000Y-155120000D01*
D13*
%TO.C,D1*%
X35368608Y-155977335D02*
G75*
G03X35525516Y-152745000I-1078608J1672335D01*
G01*
X33211392Y-155977335D02*
G75*
G02X33054484Y-152745000I1078608J1672335D01*
G01*
X35369837Y-155346130D02*
G75*
G03X35370000Y-153264039I-1079837J1041130D01*
G01*
X33210163Y-155346130D02*
G75*
G02X33210000Y-153264039I1079837J1041130D01*
G01*
X35526000Y-152745000D02*
X35370000Y-152745000D01*
X33210000Y-152745000D02*
X33054000Y-152745000D01*
%TO.C,D2*%
X40448608Y-155977335D02*
G75*
G03X40605516Y-152745000I-1078608J1672335D01*
G01*
X38291392Y-155977335D02*
G75*
G02X38134484Y-152745000I1078608J1672335D01*
G01*
X40449837Y-155346130D02*
G75*
G03X40450000Y-153264039I-1079837J1041130D01*
G01*
X38290163Y-155346130D02*
G75*
G02X38290000Y-153264039I1079837J1041130D01*
G01*
X40606000Y-152745000D02*
X40450000Y-152745000D01*
X38290000Y-152745000D02*
X38134000Y-152745000D01*
%TO.C,D3*%
X45528608Y-155977335D02*
G75*
G03X45685516Y-152745000I-1078608J1672335D01*
G01*
X43371392Y-155977335D02*
G75*
G02X43214484Y-152745000I1078608J1672335D01*
G01*
X45529837Y-155346130D02*
G75*
G03X45530000Y-153264039I-1079837J1041130D01*
G01*
X43370163Y-155346130D02*
G75*
G02X43370000Y-153264039I1079837J1041130D01*
G01*
X45686000Y-152745000D02*
X45530000Y-152745000D01*
X43370000Y-152745000D02*
X43214000Y-152745000D01*
%TO.C,D4*%
X50608608Y-155977335D02*
G75*
G03X50765516Y-152745000I-1078608J1672335D01*
G01*
X48451392Y-155977335D02*
G75*
G02X48294484Y-152745000I1078608J1672335D01*
G01*
X50609837Y-155346130D02*
G75*
G03X50610000Y-153264039I-1079837J1041130D01*
G01*
X48450163Y-155346130D02*
G75*
G02X48450000Y-153264039I1079837J1041130D01*
G01*
X50766000Y-152745000D02*
X50610000Y-152745000D01*
X48450000Y-152745000D02*
X48294000Y-152745000D01*
D10*
%TO.C,R27*%
X27100000Y-169225000D02*
X28100000Y-169225000D01*
X28100000Y-170575000D02*
X27100000Y-170575000D01*
%TO.C,R34*%
X27100000Y-170825000D02*
X28100000Y-170825000D01*
X28100000Y-172175000D02*
X27100000Y-172175000D01*
%TO.C,J2*%
X15776000Y-178517000D02*
X18824000Y-178517000D01*
X15776000Y-185883000D02*
X15776000Y-178517000D01*
X18824000Y-185883000D02*
X15776000Y-185883000D01*
X18824000Y-178517000D02*
X18824000Y-185883000D01*
%TO.C,J3*%
X57300000Y-168100000D02*
X57300000Y-167900000D01*
X57200000Y-168200000D02*
X57200000Y-167800000D01*
X57100000Y-168300000D02*
X57100000Y-167800000D01*
X57000000Y-168300000D02*
X57000000Y-167700000D01*
X56900000Y-168400000D02*
X56900000Y-167600000D01*
X56800000Y-167400000D02*
X56800000Y-168600000D01*
X57400000Y-168000000D02*
X56800000Y-167400000D01*
X56800000Y-168600000D02*
X57400000Y-168000000D01*
X58100000Y-165100000D02*
X57500000Y-165100000D01*
X58100000Y-162900000D02*
X57500000Y-162900000D01*
X57450000Y-169625000D02*
X53750000Y-169625000D01*
X57450000Y-158375000D02*
X57450000Y-169625000D01*
X53750000Y-158375000D02*
X57450000Y-158375000D01*
X53750000Y-169625000D02*
X53750000Y-158375000D01*
X58100000Y-170325000D02*
X53100000Y-170325000D01*
X58100000Y-157675000D02*
X58100000Y-170325000D01*
X53100000Y-157675000D02*
X58100000Y-157675000D01*
X53100000Y-170325000D02*
X53100000Y-157675000D01*
%TO.C,C10*%
X22550000Y-189200000D02*
X21850000Y-189200000D01*
X21850000Y-188000000D02*
X22550000Y-188000000D01*
D14*
%TO.C,Q1*%
X46600000Y-160800000D02*
X47400000Y-160800000D01*
X46600000Y-158800000D02*
X47400000Y-158800000D01*
D10*
X47000000Y-159100000D02*
G75*
G03X47000000Y-159100000I-200000J0D01*
G01*
D14*
%TO.C,Q2*%
X49800000Y-171700000D02*
X49800000Y-172500000D01*
X51800000Y-171700000D02*
X51800000Y-172500000D01*
D10*
X51700000Y-171900000D02*
G75*
G03X51700000Y-171900000I-200000J0D01*
G01*
%TO.C,R36*%
X50400000Y-156925000D02*
X51400000Y-156925000D01*
X51400000Y-158275000D02*
X50400000Y-158275000D01*
%TO.C,R37*%
X24000000Y-178075000D02*
X23000000Y-178075000D01*
X23000000Y-176725000D02*
X24000000Y-176725000D01*
%TO.C,R38*%
X23000000Y-178325000D02*
X24000000Y-178325000D01*
X24000000Y-179675000D02*
X23000000Y-179675000D01*
D13*
%TO.C,U2*%
X22750000Y-172260000D02*
X24550000Y-172260000D01*
X24550000Y-169050000D02*
X21850000Y-169050000D01*
%TO.C,C5*%
D10*
X39757142Y-179866666D02*
X39804761Y-179914285D01*
X39852380Y-180057142D01*
X39852380Y-180152380D01*
X39804761Y-180295238D01*
X39709523Y-180390476D01*
X39614285Y-180438095D01*
X39423809Y-180485714D01*
X39280952Y-180485714D01*
X39090476Y-180438095D01*
X38995238Y-180390476D01*
X38900000Y-180295238D01*
X38852380Y-180152380D01*
X38852380Y-180057142D01*
X38900000Y-179914285D01*
X38947619Y-179866666D01*
X38852380Y-178961904D02*
X38852380Y-179438095D01*
X39328571Y-179485714D01*
X39280952Y-179438095D01*
X39233333Y-179342857D01*
X39233333Y-179104761D01*
X39280952Y-179009523D01*
X39328571Y-178961904D01*
X39423809Y-178914285D01*
X39661904Y-178914285D01*
X39757142Y-178961904D01*
X39804761Y-179009523D01*
X39852380Y-179104761D01*
X39852380Y-179342857D01*
X39804761Y-179438095D01*
X39757142Y-179485714D01*
%TO.C,Y1*%
X23023809Y-191376190D02*
X23023809Y-191852380D01*
X22690476Y-190852380D02*
X23023809Y-191376190D01*
X23357142Y-190852380D01*
X24214285Y-191852380D02*
X23642857Y-191852380D01*
X23928571Y-191852380D02*
X23928571Y-190852380D01*
X23833333Y-190995238D01*
X23738095Y-191090476D01*
X23642857Y-191138095D01*
%TO.C,R30*%
X30757142Y-154652380D02*
X30423809Y-154176190D01*
X30185714Y-154652380D02*
X30185714Y-153652380D01*
X30566666Y-153652380D01*
X30661904Y-153700000D01*
X30709523Y-153747619D01*
X30757142Y-153842857D01*
X30757142Y-153985714D01*
X30709523Y-154080952D01*
X30661904Y-154128571D01*
X30566666Y-154176190D01*
X30185714Y-154176190D01*
X31090476Y-153652380D02*
X31709523Y-153652380D01*
X31376190Y-154033333D01*
X31519047Y-154033333D01*
X31614285Y-154080952D01*
X31661904Y-154128571D01*
X31709523Y-154223809D01*
X31709523Y-154461904D01*
X31661904Y-154557142D01*
X31614285Y-154604761D01*
X31519047Y-154652380D01*
X31233333Y-154652380D01*
X31138095Y-154604761D01*
X31090476Y-154557142D01*
X32328571Y-153652380D02*
X32423809Y-153652380D01*
X32519047Y-153700000D01*
X32566666Y-153747619D01*
X32614285Y-153842857D01*
X32661904Y-154033333D01*
X32661904Y-154271428D01*
X32614285Y-154461904D01*
X32566666Y-154557142D01*
X32519047Y-154604761D01*
X32423809Y-154652380D01*
X32328571Y-154652380D01*
X32233333Y-154604761D01*
X32185714Y-154557142D01*
X32138095Y-154461904D01*
X32090476Y-154271428D01*
X32090476Y-154033333D01*
X32138095Y-153842857D01*
X32185714Y-153747619D01*
X32233333Y-153700000D01*
X32328571Y-153652380D01*
%TO.C,U3*%
X34799880Y-177994523D02*
X34799880Y-179022619D01*
X34860357Y-179143571D01*
X34920833Y-179204047D01*
X35041785Y-179264523D01*
X35283690Y-179264523D01*
X35404642Y-179204047D01*
X35465119Y-179143571D01*
X35525595Y-179022619D01*
X35525595Y-177994523D01*
X36009404Y-177994523D02*
X36795595Y-177994523D01*
X36372261Y-178478333D01*
X36553690Y-178478333D01*
X36674642Y-178538809D01*
X36735119Y-178599285D01*
X36795595Y-178720238D01*
X36795595Y-179022619D01*
X36735119Y-179143571D01*
X36674642Y-179204047D01*
X36553690Y-179264523D01*
X36190833Y-179264523D01*
X36069880Y-179204047D01*
X36009404Y-179143571D01*
%TO.C,C1*%
X19733333Y-165357142D02*
X19685714Y-165404761D01*
X19542857Y-165452380D01*
X19447619Y-165452380D01*
X19304761Y-165404761D01*
X19209523Y-165309523D01*
X19161904Y-165214285D01*
X19114285Y-165023809D01*
X19114285Y-164880952D01*
X19161904Y-164690476D01*
X19209523Y-164595238D01*
X19304761Y-164500000D01*
X19447619Y-164452380D01*
X19542857Y-164452380D01*
X19685714Y-164500000D01*
X19733333Y-164547619D01*
X20685714Y-165452380D02*
X20114285Y-165452380D01*
X20400000Y-165452380D02*
X20400000Y-164452380D01*
X20304761Y-164595238D01*
X20209523Y-164690476D01*
X20114285Y-164738095D01*
%TO.C,C2*%
X19733333Y-176657142D02*
X19685714Y-176704761D01*
X19542857Y-176752380D01*
X19447619Y-176752380D01*
X19304761Y-176704761D01*
X19209523Y-176609523D01*
X19161904Y-176514285D01*
X19114285Y-176323809D01*
X19114285Y-176180952D01*
X19161904Y-175990476D01*
X19209523Y-175895238D01*
X19304761Y-175800000D01*
X19447619Y-175752380D01*
X19542857Y-175752380D01*
X19685714Y-175800000D01*
X19733333Y-175847619D01*
X20114285Y-175847619D02*
X20161904Y-175800000D01*
X20257142Y-175752380D01*
X20495238Y-175752380D01*
X20590476Y-175800000D01*
X20638095Y-175847619D01*
X20685714Y-175942857D01*
X20685714Y-176038095D01*
X20638095Y-176180952D01*
X20066666Y-176752380D01*
X20685714Y-176752380D01*
%TO.C,C3*%
X19433333Y-163557142D02*
X19385714Y-163604761D01*
X19242857Y-163652380D01*
X19147619Y-163652380D01*
X19004761Y-163604761D01*
X18909523Y-163509523D01*
X18861904Y-163414285D01*
X18814285Y-163223809D01*
X18814285Y-163080952D01*
X18861904Y-162890476D01*
X18909523Y-162795238D01*
X19004761Y-162700000D01*
X19147619Y-162652380D01*
X19242857Y-162652380D01*
X19385714Y-162700000D01*
X19433333Y-162747619D01*
X19766666Y-162652380D02*
X20385714Y-162652380D01*
X20052380Y-163033333D01*
X20195238Y-163033333D01*
X20290476Y-163080952D01*
X20338095Y-163128571D01*
X20385714Y-163223809D01*
X20385714Y-163461904D01*
X20338095Y-163557142D01*
X20290476Y-163604761D01*
X20195238Y-163652380D01*
X19909523Y-163652380D01*
X19814285Y-163604761D01*
X19766666Y-163557142D01*
%TO.C,C4*%
X21857142Y-159966666D02*
X21904761Y-160014285D01*
X21952380Y-160157142D01*
X21952380Y-160252380D01*
X21904761Y-160395238D01*
X21809523Y-160490476D01*
X21714285Y-160538095D01*
X21523809Y-160585714D01*
X21380952Y-160585714D01*
X21190476Y-160538095D01*
X21095238Y-160490476D01*
X21000000Y-160395238D01*
X20952380Y-160252380D01*
X20952380Y-160157142D01*
X21000000Y-160014285D01*
X21047619Y-159966666D01*
X21285714Y-159109523D02*
X21952380Y-159109523D01*
X20904761Y-159347619D02*
X21619047Y-159585714D01*
X21619047Y-158966666D01*
%TO.C,C6*%
X30533333Y-176957142D02*
X30485714Y-177004761D01*
X30342857Y-177052380D01*
X30247619Y-177052380D01*
X30104761Y-177004761D01*
X30009523Y-176909523D01*
X29961904Y-176814285D01*
X29914285Y-176623809D01*
X29914285Y-176480952D01*
X29961904Y-176290476D01*
X30009523Y-176195238D01*
X30104761Y-176100000D01*
X30247619Y-176052380D01*
X30342857Y-176052380D01*
X30485714Y-176100000D01*
X30533333Y-176147619D01*
X31390476Y-176052380D02*
X31200000Y-176052380D01*
X31104761Y-176100000D01*
X31057142Y-176147619D01*
X30961904Y-176290476D01*
X30914285Y-176480952D01*
X30914285Y-176861904D01*
X30961904Y-176957142D01*
X31009523Y-177004761D01*
X31104761Y-177052380D01*
X31295238Y-177052380D01*
X31390476Y-177004761D01*
X31438095Y-176957142D01*
X31485714Y-176861904D01*
X31485714Y-176623809D01*
X31438095Y-176528571D01*
X31390476Y-176480952D01*
X31295238Y-176433333D01*
X31104761Y-176433333D01*
X31009523Y-176480952D01*
X30961904Y-176528571D01*
X30914285Y-176623809D01*
%TO.C,C7*%
X27757142Y-187066666D02*
X27804761Y-187114285D01*
X27852380Y-187257142D01*
X27852380Y-187352380D01*
X27804761Y-187495238D01*
X27709523Y-187590476D01*
X27614285Y-187638095D01*
X27423809Y-187685714D01*
X27280952Y-187685714D01*
X27090476Y-187638095D01*
X26995238Y-187590476D01*
X26900000Y-187495238D01*
X26852380Y-187352380D01*
X26852380Y-187257142D01*
X26900000Y-187114285D01*
X26947619Y-187066666D01*
X26852380Y-186733333D02*
X26852380Y-186066666D01*
X27852380Y-186495238D01*
%TO.C,C8*%
X35333333Y-188457142D02*
X35285714Y-188504761D01*
X35142857Y-188552380D01*
X35047619Y-188552380D01*
X34904761Y-188504761D01*
X34809523Y-188409523D01*
X34761904Y-188314285D01*
X34714285Y-188123809D01*
X34714285Y-187980952D01*
X34761904Y-187790476D01*
X34809523Y-187695238D01*
X34904761Y-187600000D01*
X35047619Y-187552380D01*
X35142857Y-187552380D01*
X35285714Y-187600000D01*
X35333333Y-187647619D01*
X35904761Y-187980952D02*
X35809523Y-187933333D01*
X35761904Y-187885714D01*
X35714285Y-187790476D01*
X35714285Y-187742857D01*
X35761904Y-187647619D01*
X35809523Y-187600000D01*
X35904761Y-187552380D01*
X36095238Y-187552380D01*
X36190476Y-187600000D01*
X36238095Y-187647619D01*
X36285714Y-187742857D01*
X36285714Y-187790476D01*
X36238095Y-187885714D01*
X36190476Y-187933333D01*
X36095238Y-187980952D01*
X35904761Y-187980952D01*
X35809523Y-188028571D01*
X35761904Y-188076190D01*
X35714285Y-188171428D01*
X35714285Y-188361904D01*
X35761904Y-188457142D01*
X35809523Y-188504761D01*
X35904761Y-188552380D01*
X36095238Y-188552380D01*
X36190476Y-188504761D01*
X36238095Y-188457142D01*
X36285714Y-188361904D01*
X36285714Y-188171428D01*
X36238095Y-188076190D01*
X36190476Y-188028571D01*
X36095238Y-187980952D01*
%TO.C,C9*%
X36233333Y-189757142D02*
X36185714Y-189804761D01*
X36042857Y-189852380D01*
X35947619Y-189852380D01*
X35804761Y-189804761D01*
X35709523Y-189709523D01*
X35661904Y-189614285D01*
X35614285Y-189423809D01*
X35614285Y-189280952D01*
X35661904Y-189090476D01*
X35709523Y-188995238D01*
X35804761Y-188900000D01*
X35947619Y-188852380D01*
X36042857Y-188852380D01*
X36185714Y-188900000D01*
X36233333Y-188947619D01*
X36709523Y-189852380D02*
X36900000Y-189852380D01*
X36995238Y-189804761D01*
X37042857Y-189757142D01*
X37138095Y-189614285D01*
X37185714Y-189423809D01*
X37185714Y-189042857D01*
X37138095Y-188947619D01*
X37090476Y-188900000D01*
X36995238Y-188852380D01*
X36804761Y-188852380D01*
X36709523Y-188900000D01*
X36661904Y-188947619D01*
X36614285Y-189042857D01*
X36614285Y-189280952D01*
X36661904Y-189376190D01*
X36709523Y-189423809D01*
X36804761Y-189471428D01*
X36995238Y-189471428D01*
X37090476Y-189423809D01*
X37138095Y-189376190D01*
X37185714Y-189280952D01*
%TO.C,C11*%
X53457142Y-175642857D02*
X53504761Y-175690476D01*
X53552380Y-175833333D01*
X53552380Y-175928571D01*
X53504761Y-176071428D01*
X53409523Y-176166666D01*
X53314285Y-176214285D01*
X53123809Y-176261904D01*
X52980952Y-176261904D01*
X52790476Y-176214285D01*
X52695238Y-176166666D01*
X52600000Y-176071428D01*
X52552380Y-175928571D01*
X52552380Y-175833333D01*
X52600000Y-175690476D01*
X52647619Y-175642857D01*
X53552380Y-174690476D02*
X53552380Y-175261904D01*
X53552380Y-174976190D02*
X52552380Y-174976190D01*
X52695238Y-175071428D01*
X52790476Y-175166666D01*
X52838095Y-175261904D01*
X53552380Y-173738095D02*
X53552380Y-174309523D01*
X53552380Y-174023809D02*
X52552380Y-174023809D01*
X52695238Y-174119047D01*
X52790476Y-174214285D01*
X52838095Y-174309523D01*
%TO.C,C12*%
X22957142Y-193257142D02*
X22909523Y-193304761D01*
X22766666Y-193352380D01*
X22671428Y-193352380D01*
X22528571Y-193304761D01*
X22433333Y-193209523D01*
X22385714Y-193114285D01*
X22338095Y-192923809D01*
X22338095Y-192780952D01*
X22385714Y-192590476D01*
X22433333Y-192495238D01*
X22528571Y-192400000D01*
X22671428Y-192352380D01*
X22766666Y-192352380D01*
X22909523Y-192400000D01*
X22957142Y-192447619D01*
X23909523Y-193352380D02*
X23338095Y-193352380D01*
X23623809Y-193352380D02*
X23623809Y-192352380D01*
X23528571Y-192495238D01*
X23433333Y-192590476D01*
X23338095Y-192638095D01*
X24290476Y-192447619D02*
X24338095Y-192400000D01*
X24433333Y-192352380D01*
X24671428Y-192352380D01*
X24766666Y-192400000D01*
X24814285Y-192447619D01*
X24861904Y-192542857D01*
X24861904Y-192638095D01*
X24814285Y-192780952D01*
X24242857Y-193352380D01*
X24861904Y-193352380D01*
%TO.C,C13*%
X31657142Y-193257142D02*
X31609523Y-193304761D01*
X31466666Y-193352380D01*
X31371428Y-193352380D01*
X31228571Y-193304761D01*
X31133333Y-193209523D01*
X31085714Y-193114285D01*
X31038095Y-192923809D01*
X31038095Y-192780952D01*
X31085714Y-192590476D01*
X31133333Y-192495238D01*
X31228571Y-192400000D01*
X31371428Y-192352380D01*
X31466666Y-192352380D01*
X31609523Y-192400000D01*
X31657142Y-192447619D01*
X32609523Y-193352380D02*
X32038095Y-193352380D01*
X32323809Y-193352380D02*
X32323809Y-192352380D01*
X32228571Y-192495238D01*
X32133333Y-192590476D01*
X32038095Y-192638095D01*
X32942857Y-192352380D02*
X33561904Y-192352380D01*
X33228571Y-192733333D01*
X33371428Y-192733333D01*
X33466666Y-192780952D01*
X33514285Y-192828571D01*
X33561904Y-192923809D01*
X33561904Y-193161904D01*
X33514285Y-193257142D01*
X33466666Y-193304761D01*
X33371428Y-193352380D01*
X33085714Y-193352380D01*
X32990476Y-193304761D01*
X32942857Y-193257142D01*
%TO.C,C14*%
X52357142Y-178657142D02*
X52309523Y-178704761D01*
X52166666Y-178752380D01*
X52071428Y-178752380D01*
X51928571Y-178704761D01*
X51833333Y-178609523D01*
X51785714Y-178514285D01*
X51738095Y-178323809D01*
X51738095Y-178180952D01*
X51785714Y-177990476D01*
X51833333Y-177895238D01*
X51928571Y-177800000D01*
X52071428Y-177752380D01*
X52166666Y-177752380D01*
X52309523Y-177800000D01*
X52357142Y-177847619D01*
X53309523Y-178752380D02*
X52738095Y-178752380D01*
X53023809Y-178752380D02*
X53023809Y-177752380D01*
X52928571Y-177895238D01*
X52833333Y-177990476D01*
X52738095Y-178038095D01*
X54166666Y-178085714D02*
X54166666Y-178752380D01*
X53928571Y-177704761D02*
X53690476Y-178419047D01*
X54309523Y-178419047D01*
%TO.C,C15*%
X38957142Y-160857142D02*
X38909523Y-160904761D01*
X38766666Y-160952380D01*
X38671428Y-160952380D01*
X38528571Y-160904761D01*
X38433333Y-160809523D01*
X38385714Y-160714285D01*
X38338095Y-160523809D01*
X38338095Y-160380952D01*
X38385714Y-160190476D01*
X38433333Y-160095238D01*
X38528571Y-160000000D01*
X38671428Y-159952380D01*
X38766666Y-159952380D01*
X38909523Y-160000000D01*
X38957142Y-160047619D01*
X39909523Y-160952380D02*
X39338095Y-160952380D01*
X39623809Y-160952380D02*
X39623809Y-159952380D01*
X39528571Y-160095238D01*
X39433333Y-160190476D01*
X39338095Y-160238095D01*
X40814285Y-159952380D02*
X40338095Y-159952380D01*
X40290476Y-160428571D01*
X40338095Y-160380952D01*
X40433333Y-160333333D01*
X40671428Y-160333333D01*
X40766666Y-160380952D01*
X40814285Y-160428571D01*
X40861904Y-160523809D01*
X40861904Y-160761904D01*
X40814285Y-160857142D01*
X40766666Y-160904761D01*
X40671428Y-160952380D01*
X40433333Y-160952380D01*
X40338095Y-160904761D01*
X40290476Y-160857142D01*
%TO.C,C16*%
X43257142Y-160342857D02*
X43304761Y-160390476D01*
X43352380Y-160533333D01*
X43352380Y-160628571D01*
X43304761Y-160771428D01*
X43209523Y-160866666D01*
X43114285Y-160914285D01*
X42923809Y-160961904D01*
X42780952Y-160961904D01*
X42590476Y-160914285D01*
X42495238Y-160866666D01*
X42400000Y-160771428D01*
X42352380Y-160628571D01*
X42352380Y-160533333D01*
X42400000Y-160390476D01*
X42447619Y-160342857D01*
X43352380Y-159390476D02*
X43352380Y-159961904D01*
X43352380Y-159676190D02*
X42352380Y-159676190D01*
X42495238Y-159771428D01*
X42590476Y-159866666D01*
X42638095Y-159961904D01*
X42352380Y-158533333D02*
X42352380Y-158723809D01*
X42400000Y-158819047D01*
X42447619Y-158866666D01*
X42590476Y-158961904D01*
X42780952Y-159009523D01*
X43161904Y-159009523D01*
X43257142Y-158961904D01*
X43304761Y-158914285D01*
X43352380Y-158819047D01*
X43352380Y-158628571D01*
X43304761Y-158533333D01*
X43257142Y-158485714D01*
X43161904Y-158438095D01*
X42923809Y-158438095D01*
X42828571Y-158485714D01*
X42780952Y-158533333D01*
X42733333Y-158628571D01*
X42733333Y-158819047D01*
X42780952Y-158914285D01*
X42828571Y-158961904D01*
X42923809Y-159009523D01*
%TO.C,C17*%
X36057142Y-168957142D02*
X36009523Y-169004761D01*
X35866666Y-169052380D01*
X35771428Y-169052380D01*
X35628571Y-169004761D01*
X35533333Y-168909523D01*
X35485714Y-168814285D01*
X35438095Y-168623809D01*
X35438095Y-168480952D01*
X35485714Y-168290476D01*
X35533333Y-168195238D01*
X35628571Y-168100000D01*
X35771428Y-168052380D01*
X35866666Y-168052380D01*
X36009523Y-168100000D01*
X36057142Y-168147619D01*
X37009523Y-169052380D02*
X36438095Y-169052380D01*
X36723809Y-169052380D02*
X36723809Y-168052380D01*
X36628571Y-168195238D01*
X36533333Y-168290476D01*
X36438095Y-168338095D01*
X37342857Y-168052380D02*
X38009523Y-168052380D01*
X37580952Y-169052380D01*
%TO.C,C18*%
X49657142Y-170142857D02*
X49704761Y-170190476D01*
X49752380Y-170333333D01*
X49752380Y-170428571D01*
X49704761Y-170571428D01*
X49609523Y-170666666D01*
X49514285Y-170714285D01*
X49323809Y-170761904D01*
X49180952Y-170761904D01*
X48990476Y-170714285D01*
X48895238Y-170666666D01*
X48800000Y-170571428D01*
X48752380Y-170428571D01*
X48752380Y-170333333D01*
X48800000Y-170190476D01*
X48847619Y-170142857D01*
X49752380Y-169190476D02*
X49752380Y-169761904D01*
X49752380Y-169476190D02*
X48752380Y-169476190D01*
X48895238Y-169571428D01*
X48990476Y-169666666D01*
X49038095Y-169761904D01*
X49180952Y-168619047D02*
X49133333Y-168714285D01*
X49085714Y-168761904D01*
X48990476Y-168809523D01*
X48942857Y-168809523D01*
X48847619Y-168761904D01*
X48800000Y-168714285D01*
X48752380Y-168619047D01*
X48752380Y-168428571D01*
X48800000Y-168333333D01*
X48847619Y-168285714D01*
X48942857Y-168238095D01*
X48990476Y-168238095D01*
X49085714Y-168285714D01*
X49133333Y-168333333D01*
X49180952Y-168428571D01*
X49180952Y-168619047D01*
X49228571Y-168714285D01*
X49276190Y-168761904D01*
X49371428Y-168809523D01*
X49561904Y-168809523D01*
X49657142Y-168761904D01*
X49704761Y-168714285D01*
X49752380Y-168619047D01*
X49752380Y-168428571D01*
X49704761Y-168333333D01*
X49657142Y-168285714D01*
X49561904Y-168238095D01*
X49371428Y-168238095D01*
X49276190Y-168285714D01*
X49228571Y-168333333D01*
X49180952Y-168428571D01*
%TO.C,C19*%
X43857142Y-170242857D02*
X43904761Y-170290476D01*
X43952380Y-170433333D01*
X43952380Y-170528571D01*
X43904761Y-170671428D01*
X43809523Y-170766666D01*
X43714285Y-170814285D01*
X43523809Y-170861904D01*
X43380952Y-170861904D01*
X43190476Y-170814285D01*
X43095238Y-170766666D01*
X43000000Y-170671428D01*
X42952380Y-170528571D01*
X42952380Y-170433333D01*
X43000000Y-170290476D01*
X43047619Y-170242857D01*
X43952380Y-169290476D02*
X43952380Y-169861904D01*
X43952380Y-169576190D02*
X42952380Y-169576190D01*
X43095238Y-169671428D01*
X43190476Y-169766666D01*
X43238095Y-169861904D01*
X43952380Y-168814285D02*
X43952380Y-168623809D01*
X43904761Y-168528571D01*
X43857142Y-168480952D01*
X43714285Y-168385714D01*
X43523809Y-168338095D01*
X43142857Y-168338095D01*
X43047619Y-168385714D01*
X43000000Y-168433333D01*
X42952380Y-168528571D01*
X42952380Y-168719047D01*
X43000000Y-168814285D01*
X43047619Y-168861904D01*
X43142857Y-168909523D01*
X43380952Y-168909523D01*
X43476190Y-168861904D01*
X43523809Y-168814285D01*
X43571428Y-168719047D01*
X43571428Y-168528571D01*
X43523809Y-168433333D01*
X43476190Y-168385714D01*
X43380952Y-168338095D01*
%TO.C,C20*%
X35857142Y-165957142D02*
X35809523Y-166004761D01*
X35666666Y-166052380D01*
X35571428Y-166052380D01*
X35428571Y-166004761D01*
X35333333Y-165909523D01*
X35285714Y-165814285D01*
X35238095Y-165623809D01*
X35238095Y-165480952D01*
X35285714Y-165290476D01*
X35333333Y-165195238D01*
X35428571Y-165100000D01*
X35571428Y-165052380D01*
X35666666Y-165052380D01*
X35809523Y-165100000D01*
X35857142Y-165147619D01*
X36238095Y-165147619D02*
X36285714Y-165100000D01*
X36380952Y-165052380D01*
X36619047Y-165052380D01*
X36714285Y-165100000D01*
X36761904Y-165147619D01*
X36809523Y-165242857D01*
X36809523Y-165338095D01*
X36761904Y-165480952D01*
X36190476Y-166052380D01*
X36809523Y-166052380D01*
X37428571Y-165052380D02*
X37523809Y-165052380D01*
X37619047Y-165100000D01*
X37666666Y-165147619D01*
X37714285Y-165242857D01*
X37761904Y-165433333D01*
X37761904Y-165671428D01*
X37714285Y-165861904D01*
X37666666Y-165957142D01*
X37619047Y-166004761D01*
X37523809Y-166052380D01*
X37428571Y-166052380D01*
X37333333Y-166004761D01*
X37285714Y-165957142D01*
X37238095Y-165861904D01*
X37190476Y-165671428D01*
X37190476Y-165433333D01*
X37238095Y-165242857D01*
X37285714Y-165147619D01*
X37333333Y-165100000D01*
X37428571Y-165052380D01*
%TO.C,C21*%
X35557142Y-162457142D02*
X35509523Y-162504761D01*
X35366666Y-162552380D01*
X35271428Y-162552380D01*
X35128571Y-162504761D01*
X35033333Y-162409523D01*
X34985714Y-162314285D01*
X34938095Y-162123809D01*
X34938095Y-161980952D01*
X34985714Y-161790476D01*
X35033333Y-161695238D01*
X35128571Y-161600000D01*
X35271428Y-161552380D01*
X35366666Y-161552380D01*
X35509523Y-161600000D01*
X35557142Y-161647619D01*
X35938095Y-161647619D02*
X35985714Y-161600000D01*
X36080952Y-161552380D01*
X36319047Y-161552380D01*
X36414285Y-161600000D01*
X36461904Y-161647619D01*
X36509523Y-161742857D01*
X36509523Y-161838095D01*
X36461904Y-161980952D01*
X35890476Y-162552380D01*
X36509523Y-162552380D01*
X37461904Y-162552380D02*
X36890476Y-162552380D01*
X37176190Y-162552380D02*
X37176190Y-161552380D01*
X37080952Y-161695238D01*
X36985714Y-161790476D01*
X36890476Y-161838095D01*
%TO.C,C22*%
X35957142Y-160857142D02*
X35909523Y-160904761D01*
X35766666Y-160952380D01*
X35671428Y-160952380D01*
X35528571Y-160904761D01*
X35433333Y-160809523D01*
X35385714Y-160714285D01*
X35338095Y-160523809D01*
X35338095Y-160380952D01*
X35385714Y-160190476D01*
X35433333Y-160095238D01*
X35528571Y-160000000D01*
X35671428Y-159952380D01*
X35766666Y-159952380D01*
X35909523Y-160000000D01*
X35957142Y-160047619D01*
X36338095Y-160047619D02*
X36385714Y-160000000D01*
X36480952Y-159952380D01*
X36719047Y-159952380D01*
X36814285Y-160000000D01*
X36861904Y-160047619D01*
X36909523Y-160142857D01*
X36909523Y-160238095D01*
X36861904Y-160380952D01*
X36290476Y-160952380D01*
X36909523Y-160952380D01*
X37290476Y-160047619D02*
X37338095Y-160000000D01*
X37433333Y-159952380D01*
X37671428Y-159952380D01*
X37766666Y-160000000D01*
X37814285Y-160047619D01*
X37861904Y-160142857D01*
X37861904Y-160238095D01*
X37814285Y-160380952D01*
X37242857Y-160952380D01*
X37861904Y-160952380D01*
%TO.C,J1*%
X20066666Y-174452380D02*
X20066666Y-175166666D01*
X20019047Y-175309523D01*
X19923809Y-175404761D01*
X19780952Y-175452380D01*
X19685714Y-175452380D01*
X21066666Y-175452380D02*
X20495238Y-175452380D01*
X20780952Y-175452380D02*
X20780952Y-174452380D01*
X20685714Y-174595238D01*
X20590476Y-174690476D01*
X20495238Y-174738095D01*
%TO.C,J4*%
X54866666Y-182352380D02*
X54866666Y-183066666D01*
X54819047Y-183209523D01*
X54723809Y-183304761D01*
X54580952Y-183352380D01*
X54485714Y-183352380D01*
X55771428Y-182685714D02*
X55771428Y-183352380D01*
X55533333Y-182304761D02*
X55295238Y-183019047D01*
X55914285Y-183019047D01*
%TO.C,R1*%
X22352380Y-165066666D02*
X21876190Y-165400000D01*
X22352380Y-165638095D02*
X21352380Y-165638095D01*
X21352380Y-165257142D01*
X21400000Y-165161904D01*
X21447619Y-165114285D01*
X21542857Y-165066666D01*
X21685714Y-165066666D01*
X21780952Y-165114285D01*
X21828571Y-165161904D01*
X21876190Y-165257142D01*
X21876190Y-165638095D01*
X22352380Y-164114285D02*
X22352380Y-164685714D01*
X22352380Y-164400000D02*
X21352380Y-164400000D01*
X21495238Y-164495238D01*
X21590476Y-164590476D01*
X21638095Y-164685714D01*
%TO.C,R2*%
X25533333Y-173752380D02*
X25200000Y-173276190D01*
X24961904Y-173752380D02*
X24961904Y-172752380D01*
X25342857Y-172752380D01*
X25438095Y-172800000D01*
X25485714Y-172847619D01*
X25533333Y-172942857D01*
X25533333Y-173085714D01*
X25485714Y-173180952D01*
X25438095Y-173228571D01*
X25342857Y-173276190D01*
X24961904Y-173276190D01*
X25914285Y-172847619D02*
X25961904Y-172800000D01*
X26057142Y-172752380D01*
X26295238Y-172752380D01*
X26390476Y-172800000D01*
X26438095Y-172847619D01*
X26485714Y-172942857D01*
X26485714Y-173038095D01*
X26438095Y-173180952D01*
X25866666Y-173752380D01*
X26485714Y-173752380D01*
%TO.C,R3*%
X25533333Y-175052380D02*
X25200000Y-174576190D01*
X24961904Y-175052380D02*
X24961904Y-174052380D01*
X25342857Y-174052380D01*
X25438095Y-174100000D01*
X25485714Y-174147619D01*
X25533333Y-174242857D01*
X25533333Y-174385714D01*
X25485714Y-174480952D01*
X25438095Y-174528571D01*
X25342857Y-174576190D01*
X24961904Y-174576190D01*
X25866666Y-174052380D02*
X26485714Y-174052380D01*
X26152380Y-174433333D01*
X26295238Y-174433333D01*
X26390476Y-174480952D01*
X26438095Y-174528571D01*
X26485714Y-174623809D01*
X26485714Y-174861904D01*
X26438095Y-174957142D01*
X26390476Y-175004761D01*
X26295238Y-175052380D01*
X26009523Y-175052380D01*
X25914285Y-175004761D01*
X25866666Y-174957142D01*
%TO.C,R4*%
X37633333Y-191052380D02*
X37300000Y-190576190D01*
X37061904Y-191052380D02*
X37061904Y-190052380D01*
X37442857Y-190052380D01*
X37538095Y-190100000D01*
X37585714Y-190147619D01*
X37633333Y-190242857D01*
X37633333Y-190385714D01*
X37585714Y-190480952D01*
X37538095Y-190528571D01*
X37442857Y-190576190D01*
X37061904Y-190576190D01*
X38490476Y-190385714D02*
X38490476Y-191052380D01*
X38252380Y-190004761D02*
X38014285Y-190719047D01*
X38633333Y-190719047D01*
%TO.C,R5*%
X35033333Y-194052380D02*
X34700000Y-193576190D01*
X34461904Y-194052380D02*
X34461904Y-193052380D01*
X34842857Y-193052380D01*
X34938095Y-193100000D01*
X34985714Y-193147619D01*
X35033333Y-193242857D01*
X35033333Y-193385714D01*
X34985714Y-193480952D01*
X34938095Y-193528571D01*
X34842857Y-193576190D01*
X34461904Y-193576190D01*
X35938095Y-193052380D02*
X35461904Y-193052380D01*
X35414285Y-193528571D01*
X35461904Y-193480952D01*
X35557142Y-193433333D01*
X35795238Y-193433333D01*
X35890476Y-193480952D01*
X35938095Y-193528571D01*
X35985714Y-193623809D01*
X35985714Y-193861904D01*
X35938095Y-193957142D01*
X35890476Y-194004761D01*
X35795238Y-194052380D01*
X35557142Y-194052380D01*
X35461904Y-194004761D01*
X35414285Y-193957142D01*
%TO.C,R6*%
X46652380Y-193066666D02*
X46176190Y-193400000D01*
X46652380Y-193638095D02*
X45652380Y-193638095D01*
X45652380Y-193257142D01*
X45700000Y-193161904D01*
X45747619Y-193114285D01*
X45842857Y-193066666D01*
X45985714Y-193066666D01*
X46080952Y-193114285D01*
X46128571Y-193161904D01*
X46176190Y-193257142D01*
X46176190Y-193638095D01*
X45652380Y-192209523D02*
X45652380Y-192400000D01*
X45700000Y-192495238D01*
X45747619Y-192542857D01*
X45890476Y-192638095D01*
X46080952Y-192685714D01*
X46461904Y-192685714D01*
X46557142Y-192638095D01*
X46604761Y-192590476D01*
X46652380Y-192495238D01*
X46652380Y-192304761D01*
X46604761Y-192209523D01*
X46557142Y-192161904D01*
X46461904Y-192114285D01*
X46223809Y-192114285D01*
X46128571Y-192161904D01*
X46080952Y-192209523D01*
X46033333Y-192304761D01*
X46033333Y-192495238D01*
X46080952Y-192590476D01*
X46128571Y-192638095D01*
X46223809Y-192685714D01*
%TO.C,R7*%
X23652380Y-165066666D02*
X23176190Y-165400000D01*
X23652380Y-165638095D02*
X22652380Y-165638095D01*
X22652380Y-165257142D01*
X22700000Y-165161904D01*
X22747619Y-165114285D01*
X22842857Y-165066666D01*
X22985714Y-165066666D01*
X23080952Y-165114285D01*
X23128571Y-165161904D01*
X23176190Y-165257142D01*
X23176190Y-165638095D01*
X22652380Y-164733333D02*
X22652380Y-164066666D01*
X23652380Y-164495238D01*
%TO.C,R8*%
X24733333Y-182052380D02*
X24400000Y-181576190D01*
X24161904Y-182052380D02*
X24161904Y-181052380D01*
X24542857Y-181052380D01*
X24638095Y-181100000D01*
X24685714Y-181147619D01*
X24733333Y-181242857D01*
X24733333Y-181385714D01*
X24685714Y-181480952D01*
X24638095Y-181528571D01*
X24542857Y-181576190D01*
X24161904Y-181576190D01*
X25304761Y-181480952D02*
X25209523Y-181433333D01*
X25161904Y-181385714D01*
X25114285Y-181290476D01*
X25114285Y-181242857D01*
X25161904Y-181147619D01*
X25209523Y-181100000D01*
X25304761Y-181052380D01*
X25495238Y-181052380D01*
X25590476Y-181100000D01*
X25638095Y-181147619D01*
X25685714Y-181242857D01*
X25685714Y-181290476D01*
X25638095Y-181385714D01*
X25590476Y-181433333D01*
X25495238Y-181480952D01*
X25304761Y-181480952D01*
X25209523Y-181528571D01*
X25161904Y-181576190D01*
X25114285Y-181671428D01*
X25114285Y-181861904D01*
X25161904Y-181957142D01*
X25209523Y-182004761D01*
X25304761Y-182052380D01*
X25495238Y-182052380D01*
X25590476Y-182004761D01*
X25638095Y-181957142D01*
X25685714Y-181861904D01*
X25685714Y-181671428D01*
X25638095Y-181576190D01*
X25590476Y-181528571D01*
X25495238Y-181480952D01*
%TO.C,R9*%
X22733333Y-182052380D02*
X22400000Y-181576190D01*
X22161904Y-182052380D02*
X22161904Y-181052380D01*
X22542857Y-181052380D01*
X22638095Y-181100000D01*
X22685714Y-181147619D01*
X22733333Y-181242857D01*
X22733333Y-181385714D01*
X22685714Y-181480952D01*
X22638095Y-181528571D01*
X22542857Y-181576190D01*
X22161904Y-181576190D01*
X23209523Y-182052380D02*
X23400000Y-182052380D01*
X23495238Y-182004761D01*
X23542857Y-181957142D01*
X23638095Y-181814285D01*
X23685714Y-181623809D01*
X23685714Y-181242857D01*
X23638095Y-181147619D01*
X23590476Y-181100000D01*
X23495238Y-181052380D01*
X23304761Y-181052380D01*
X23209523Y-181100000D01*
X23161904Y-181147619D01*
X23114285Y-181242857D01*
X23114285Y-181480952D01*
X23161904Y-181576190D01*
X23209523Y-181623809D01*
X23304761Y-181671428D01*
X23495238Y-181671428D01*
X23590476Y-181623809D01*
X23638095Y-181576190D01*
X23685714Y-181480952D01*
%TO.C,R10*%
X56652380Y-175642857D02*
X56176190Y-175976190D01*
X56652380Y-176214285D02*
X55652380Y-176214285D01*
X55652380Y-175833333D01*
X55700000Y-175738095D01*
X55747619Y-175690476D01*
X55842857Y-175642857D01*
X55985714Y-175642857D01*
X56080952Y-175690476D01*
X56128571Y-175738095D01*
X56176190Y-175833333D01*
X56176190Y-176214285D01*
X56652380Y-174690476D02*
X56652380Y-175261904D01*
X56652380Y-174976190D02*
X55652380Y-174976190D01*
X55795238Y-175071428D01*
X55890476Y-175166666D01*
X55938095Y-175261904D01*
X55652380Y-174071428D02*
X55652380Y-173976190D01*
X55700000Y-173880952D01*
X55747619Y-173833333D01*
X55842857Y-173785714D01*
X56033333Y-173738095D01*
X56271428Y-173738095D01*
X56461904Y-173785714D01*
X56557142Y-173833333D01*
X56604761Y-173880952D01*
X56652380Y-173976190D01*
X56652380Y-174071428D01*
X56604761Y-174166666D01*
X56557142Y-174214285D01*
X56461904Y-174261904D01*
X56271428Y-174309523D01*
X56033333Y-174309523D01*
X55842857Y-174261904D01*
X55747619Y-174214285D01*
X55700000Y-174166666D01*
X55652380Y-174071428D01*
%TO.C,R11*%
X55052380Y-175642857D02*
X54576190Y-175976190D01*
X55052380Y-176214285D02*
X54052380Y-176214285D01*
X54052380Y-175833333D01*
X54100000Y-175738095D01*
X54147619Y-175690476D01*
X54242857Y-175642857D01*
X54385714Y-175642857D01*
X54480952Y-175690476D01*
X54528571Y-175738095D01*
X54576190Y-175833333D01*
X54576190Y-176214285D01*
X55052380Y-174690476D02*
X55052380Y-175261904D01*
X55052380Y-174976190D02*
X54052380Y-174976190D01*
X54195238Y-175071428D01*
X54290476Y-175166666D01*
X54338095Y-175261904D01*
X55052380Y-173738095D02*
X55052380Y-174309523D01*
X55052380Y-174023809D02*
X54052380Y-174023809D01*
X54195238Y-174119047D01*
X54290476Y-174214285D01*
X54338095Y-174309523D01*
%TO.C,R12*%
X24952380Y-165042857D02*
X24476190Y-165376190D01*
X24952380Y-165614285D02*
X23952380Y-165614285D01*
X23952380Y-165233333D01*
X24000000Y-165138095D01*
X24047619Y-165090476D01*
X24142857Y-165042857D01*
X24285714Y-165042857D01*
X24380952Y-165090476D01*
X24428571Y-165138095D01*
X24476190Y-165233333D01*
X24476190Y-165614285D01*
X24952380Y-164090476D02*
X24952380Y-164661904D01*
X24952380Y-164376190D02*
X23952380Y-164376190D01*
X24095238Y-164471428D01*
X24190476Y-164566666D01*
X24238095Y-164661904D01*
X24047619Y-163709523D02*
X24000000Y-163661904D01*
X23952380Y-163566666D01*
X23952380Y-163328571D01*
X24000000Y-163233333D01*
X24047619Y-163185714D01*
X24142857Y-163138095D01*
X24238095Y-163138095D01*
X24380952Y-163185714D01*
X24952380Y-163757142D01*
X24952380Y-163138095D01*
%TO.C,R13*%
X19757142Y-178052380D02*
X19423809Y-177576190D01*
X19185714Y-178052380D02*
X19185714Y-177052380D01*
X19566666Y-177052380D01*
X19661904Y-177100000D01*
X19709523Y-177147619D01*
X19757142Y-177242857D01*
X19757142Y-177385714D01*
X19709523Y-177480952D01*
X19661904Y-177528571D01*
X19566666Y-177576190D01*
X19185714Y-177576190D01*
X20709523Y-178052380D02*
X20138095Y-178052380D01*
X20423809Y-178052380D02*
X20423809Y-177052380D01*
X20328571Y-177195238D01*
X20233333Y-177290476D01*
X20138095Y-177338095D01*
X21042857Y-177052380D02*
X21661904Y-177052380D01*
X21328571Y-177433333D01*
X21471428Y-177433333D01*
X21566666Y-177480952D01*
X21614285Y-177528571D01*
X21661904Y-177623809D01*
X21661904Y-177861904D01*
X21614285Y-177957142D01*
X21566666Y-178004761D01*
X21471428Y-178052380D01*
X21185714Y-178052380D01*
X21090476Y-178004761D01*
X21042857Y-177957142D01*
%TO.C,R14*%
X22757142Y-180852380D02*
X22423809Y-180376190D01*
X22185714Y-180852380D02*
X22185714Y-179852380D01*
X22566666Y-179852380D01*
X22661904Y-179900000D01*
X22709523Y-179947619D01*
X22757142Y-180042857D01*
X22757142Y-180185714D01*
X22709523Y-180280952D01*
X22661904Y-180328571D01*
X22566666Y-180376190D01*
X22185714Y-180376190D01*
X23709523Y-180852380D02*
X23138095Y-180852380D01*
X23423809Y-180852380D02*
X23423809Y-179852380D01*
X23328571Y-179995238D01*
X23233333Y-180090476D01*
X23138095Y-180138095D01*
X24566666Y-180185714D02*
X24566666Y-180852380D01*
X24328571Y-179804761D02*
X24090476Y-180519047D01*
X24709523Y-180519047D01*
%TO.C,R15*%
X22757142Y-183252380D02*
X22423809Y-182776190D01*
X22185714Y-183252380D02*
X22185714Y-182252380D01*
X22566666Y-182252380D01*
X22661904Y-182300000D01*
X22709523Y-182347619D01*
X22757142Y-182442857D01*
X22757142Y-182585714D01*
X22709523Y-182680952D01*
X22661904Y-182728571D01*
X22566666Y-182776190D01*
X22185714Y-182776190D01*
X23709523Y-183252380D02*
X23138095Y-183252380D01*
X23423809Y-183252380D02*
X23423809Y-182252380D01*
X23328571Y-182395238D01*
X23233333Y-182490476D01*
X23138095Y-182538095D01*
X24614285Y-182252380D02*
X24138095Y-182252380D01*
X24090476Y-182728571D01*
X24138095Y-182680952D01*
X24233333Y-182633333D01*
X24471428Y-182633333D01*
X24566666Y-182680952D01*
X24614285Y-182728571D01*
X24661904Y-182823809D01*
X24661904Y-183061904D01*
X24614285Y-183157142D01*
X24566666Y-183204761D01*
X24471428Y-183252380D01*
X24233333Y-183252380D01*
X24138095Y-183204761D01*
X24090476Y-183157142D01*
%TO.C,R16*%
X30352380Y-174442857D02*
X29876190Y-174776190D01*
X30352380Y-175014285D02*
X29352380Y-175014285D01*
X29352380Y-174633333D01*
X29400000Y-174538095D01*
X29447619Y-174490476D01*
X29542857Y-174442857D01*
X29685714Y-174442857D01*
X29780952Y-174490476D01*
X29828571Y-174538095D01*
X29876190Y-174633333D01*
X29876190Y-175014285D01*
X30352380Y-173490476D02*
X30352380Y-174061904D01*
X30352380Y-173776190D02*
X29352380Y-173776190D01*
X29495238Y-173871428D01*
X29590476Y-173966666D01*
X29638095Y-174061904D01*
X29352380Y-172633333D02*
X29352380Y-172823809D01*
X29400000Y-172919047D01*
X29447619Y-172966666D01*
X29590476Y-173061904D01*
X29780952Y-173109523D01*
X30161904Y-173109523D01*
X30257142Y-173061904D01*
X30304761Y-173014285D01*
X30352380Y-172919047D01*
X30352380Y-172728571D01*
X30304761Y-172633333D01*
X30257142Y-172585714D01*
X30161904Y-172538095D01*
X29923809Y-172538095D01*
X29828571Y-172585714D01*
X29780952Y-172633333D01*
X29733333Y-172728571D01*
X29733333Y-172919047D01*
X29780952Y-173014285D01*
X29828571Y-173061904D01*
X29923809Y-173109523D01*
%TO.C,R17*%
X22757142Y-184452380D02*
X22423809Y-183976190D01*
X22185714Y-184452380D02*
X22185714Y-183452380D01*
X22566666Y-183452380D01*
X22661904Y-183500000D01*
X22709523Y-183547619D01*
X22757142Y-183642857D01*
X22757142Y-183785714D01*
X22709523Y-183880952D01*
X22661904Y-183928571D01*
X22566666Y-183976190D01*
X22185714Y-183976190D01*
X23709523Y-184452380D02*
X23138095Y-184452380D01*
X23423809Y-184452380D02*
X23423809Y-183452380D01*
X23328571Y-183595238D01*
X23233333Y-183690476D01*
X23138095Y-183738095D01*
X24042857Y-183452380D02*
X24709523Y-183452380D01*
X24280952Y-184452380D01*
%TO.C,R18*%
X18657142Y-188852380D02*
X18323809Y-188376190D01*
X18085714Y-188852380D02*
X18085714Y-187852380D01*
X18466666Y-187852380D01*
X18561904Y-187900000D01*
X18609523Y-187947619D01*
X18657142Y-188042857D01*
X18657142Y-188185714D01*
X18609523Y-188280952D01*
X18561904Y-188328571D01*
X18466666Y-188376190D01*
X18085714Y-188376190D01*
X19609523Y-188852380D02*
X19038095Y-188852380D01*
X19323809Y-188852380D02*
X19323809Y-187852380D01*
X19228571Y-187995238D01*
X19133333Y-188090476D01*
X19038095Y-188138095D01*
X20180952Y-188280952D02*
X20085714Y-188233333D01*
X20038095Y-188185714D01*
X19990476Y-188090476D01*
X19990476Y-188042857D01*
X20038095Y-187947619D01*
X20085714Y-187900000D01*
X20180952Y-187852380D01*
X20371428Y-187852380D01*
X20466666Y-187900000D01*
X20514285Y-187947619D01*
X20561904Y-188042857D01*
X20561904Y-188090476D01*
X20514285Y-188185714D01*
X20466666Y-188233333D01*
X20371428Y-188280952D01*
X20180952Y-188280952D01*
X20085714Y-188328571D01*
X20038095Y-188376190D01*
X19990476Y-188471428D01*
X19990476Y-188661904D01*
X20038095Y-188757142D01*
X20085714Y-188804761D01*
X20180952Y-188852380D01*
X20371428Y-188852380D01*
X20466666Y-188804761D01*
X20514285Y-188757142D01*
X20561904Y-188661904D01*
X20561904Y-188471428D01*
X20514285Y-188376190D01*
X20466666Y-188328571D01*
X20371428Y-188280952D01*
%TO.C,R19*%
X21457142Y-190452380D02*
X21123809Y-189976190D01*
X20885714Y-190452380D02*
X20885714Y-189452380D01*
X21266666Y-189452380D01*
X21361904Y-189500000D01*
X21409523Y-189547619D01*
X21457142Y-189642857D01*
X21457142Y-189785714D01*
X21409523Y-189880952D01*
X21361904Y-189928571D01*
X21266666Y-189976190D01*
X20885714Y-189976190D01*
X22409523Y-190452380D02*
X21838095Y-190452380D01*
X22123809Y-190452380D02*
X22123809Y-189452380D01*
X22028571Y-189595238D01*
X21933333Y-189690476D01*
X21838095Y-189738095D01*
X22885714Y-190452380D02*
X23076190Y-190452380D01*
X23171428Y-190404761D01*
X23219047Y-190357142D01*
X23314285Y-190214285D01*
X23361904Y-190023809D01*
X23361904Y-189642857D01*
X23314285Y-189547619D01*
X23266666Y-189500000D01*
X23171428Y-189452380D01*
X22980952Y-189452380D01*
X22885714Y-189500000D01*
X22838095Y-189547619D01*
X22790476Y-189642857D01*
X22790476Y-189880952D01*
X22838095Y-189976190D01*
X22885714Y-190023809D01*
X22980952Y-190071428D01*
X23171428Y-190071428D01*
X23266666Y-190023809D01*
X23314285Y-189976190D01*
X23361904Y-189880952D01*
%TO.C,R20*%
X47357142Y-158452380D02*
X47023809Y-157976190D01*
X46785714Y-158452380D02*
X46785714Y-157452380D01*
X47166666Y-157452380D01*
X47261904Y-157500000D01*
X47309523Y-157547619D01*
X47357142Y-157642857D01*
X47357142Y-157785714D01*
X47309523Y-157880952D01*
X47261904Y-157928571D01*
X47166666Y-157976190D01*
X46785714Y-157976190D01*
X47738095Y-157547619D02*
X47785714Y-157500000D01*
X47880952Y-157452380D01*
X48119047Y-157452380D01*
X48214285Y-157500000D01*
X48261904Y-157547619D01*
X48309523Y-157642857D01*
X48309523Y-157738095D01*
X48261904Y-157880952D01*
X47690476Y-158452380D01*
X48309523Y-158452380D01*
X48928571Y-157452380D02*
X49023809Y-157452380D01*
X49119047Y-157500000D01*
X49166666Y-157547619D01*
X49214285Y-157642857D01*
X49261904Y-157833333D01*
X49261904Y-158071428D01*
X49214285Y-158261904D01*
X49166666Y-158357142D01*
X49119047Y-158404761D01*
X49023809Y-158452380D01*
X48928571Y-158452380D01*
X48833333Y-158404761D01*
X48785714Y-158357142D01*
X48738095Y-158261904D01*
X48690476Y-158071428D01*
X48690476Y-157833333D01*
X48738095Y-157642857D01*
X48785714Y-157547619D01*
X48833333Y-157500000D01*
X48928571Y-157452380D01*
%TO.C,R21*%
X53552380Y-168042857D02*
X53076190Y-168376190D01*
X53552380Y-168614285D02*
X52552380Y-168614285D01*
X52552380Y-168233333D01*
X52600000Y-168138095D01*
X52647619Y-168090476D01*
X52742857Y-168042857D01*
X52885714Y-168042857D01*
X52980952Y-168090476D01*
X53028571Y-168138095D01*
X53076190Y-168233333D01*
X53076190Y-168614285D01*
X52647619Y-167661904D02*
X52600000Y-167614285D01*
X52552380Y-167519047D01*
X52552380Y-167280952D01*
X52600000Y-167185714D01*
X52647619Y-167138095D01*
X52742857Y-167090476D01*
X52838095Y-167090476D01*
X52980952Y-167138095D01*
X53552380Y-167709523D01*
X53552380Y-167090476D01*
X53552380Y-166138095D02*
X53552380Y-166709523D01*
X53552380Y-166423809D02*
X52552380Y-166423809D01*
X52695238Y-166519047D01*
X52790476Y-166614285D01*
X52838095Y-166709523D01*
%TO.C,R22*%
X53552380Y-162242857D02*
X53076190Y-162576190D01*
X53552380Y-162814285D02*
X52552380Y-162814285D01*
X52552380Y-162433333D01*
X52600000Y-162338095D01*
X52647619Y-162290476D01*
X52742857Y-162242857D01*
X52885714Y-162242857D01*
X52980952Y-162290476D01*
X53028571Y-162338095D01*
X53076190Y-162433333D01*
X53076190Y-162814285D01*
X52647619Y-161861904D02*
X52600000Y-161814285D01*
X52552380Y-161719047D01*
X52552380Y-161480952D01*
X52600000Y-161385714D01*
X52647619Y-161338095D01*
X52742857Y-161290476D01*
X52838095Y-161290476D01*
X52980952Y-161338095D01*
X53552380Y-161909523D01*
X53552380Y-161290476D01*
X52647619Y-160909523D02*
X52600000Y-160861904D01*
X52552380Y-160766666D01*
X52552380Y-160528571D01*
X52600000Y-160433333D01*
X52647619Y-160385714D01*
X52742857Y-160338095D01*
X52838095Y-160338095D01*
X52980952Y-160385714D01*
X53552380Y-160957142D01*
X53552380Y-160338095D01*
%TO.C,R23*%
X42052380Y-160342857D02*
X41576190Y-160676190D01*
X42052380Y-160914285D02*
X41052380Y-160914285D01*
X41052380Y-160533333D01*
X41100000Y-160438095D01*
X41147619Y-160390476D01*
X41242857Y-160342857D01*
X41385714Y-160342857D01*
X41480952Y-160390476D01*
X41528571Y-160438095D01*
X41576190Y-160533333D01*
X41576190Y-160914285D01*
X41147619Y-159961904D02*
X41100000Y-159914285D01*
X41052380Y-159819047D01*
X41052380Y-159580952D01*
X41100000Y-159485714D01*
X41147619Y-159438095D01*
X41242857Y-159390476D01*
X41338095Y-159390476D01*
X41480952Y-159438095D01*
X42052380Y-160009523D01*
X42052380Y-159390476D01*
X41052380Y-159057142D02*
X41052380Y-158438095D01*
X41433333Y-158771428D01*
X41433333Y-158628571D01*
X41480952Y-158533333D01*
X41528571Y-158485714D01*
X41623809Y-158438095D01*
X41861904Y-158438095D01*
X41957142Y-158485714D01*
X42004761Y-158533333D01*
X42052380Y-158628571D01*
X42052380Y-158914285D01*
X42004761Y-159009523D01*
X41957142Y-159057142D01*
%TO.C,R24*%
X50757142Y-170052380D02*
X50423809Y-169576190D01*
X50185714Y-170052380D02*
X50185714Y-169052380D01*
X50566666Y-169052380D01*
X50661904Y-169100000D01*
X50709523Y-169147619D01*
X50757142Y-169242857D01*
X50757142Y-169385714D01*
X50709523Y-169480952D01*
X50661904Y-169528571D01*
X50566666Y-169576190D01*
X50185714Y-169576190D01*
X51138095Y-169147619D02*
X51185714Y-169100000D01*
X51280952Y-169052380D01*
X51519047Y-169052380D01*
X51614285Y-169100000D01*
X51661904Y-169147619D01*
X51709523Y-169242857D01*
X51709523Y-169338095D01*
X51661904Y-169480952D01*
X51090476Y-170052380D01*
X51709523Y-170052380D01*
X52566666Y-169385714D02*
X52566666Y-170052380D01*
X52328571Y-169004761D02*
X52090476Y-169719047D01*
X52709523Y-169719047D01*
%TO.C,R25*%
X53552380Y-165142857D02*
X53076190Y-165476190D01*
X53552380Y-165714285D02*
X52552380Y-165714285D01*
X52552380Y-165333333D01*
X52600000Y-165238095D01*
X52647619Y-165190476D01*
X52742857Y-165142857D01*
X52885714Y-165142857D01*
X52980952Y-165190476D01*
X53028571Y-165238095D01*
X53076190Y-165333333D01*
X53076190Y-165714285D01*
X52647619Y-164761904D02*
X52600000Y-164714285D01*
X52552380Y-164619047D01*
X52552380Y-164380952D01*
X52600000Y-164285714D01*
X52647619Y-164238095D01*
X52742857Y-164190476D01*
X52838095Y-164190476D01*
X52980952Y-164238095D01*
X53552380Y-164809523D01*
X53552380Y-164190476D01*
X52552380Y-163285714D02*
X52552380Y-163761904D01*
X53028571Y-163809523D01*
X52980952Y-163761904D01*
X52933333Y-163666666D01*
X52933333Y-163428571D01*
X52980952Y-163333333D01*
X53028571Y-163285714D01*
X53123809Y-163238095D01*
X53361904Y-163238095D01*
X53457142Y-163285714D01*
X53504761Y-163333333D01*
X53552380Y-163428571D01*
X53552380Y-163666666D01*
X53504761Y-163761904D01*
X53457142Y-163809523D01*
%TO.C,R26*%
X53452380Y-159342857D02*
X52976190Y-159676190D01*
X53452380Y-159914285D02*
X52452380Y-159914285D01*
X52452380Y-159533333D01*
X52500000Y-159438095D01*
X52547619Y-159390476D01*
X52642857Y-159342857D01*
X52785714Y-159342857D01*
X52880952Y-159390476D01*
X52928571Y-159438095D01*
X52976190Y-159533333D01*
X52976190Y-159914285D01*
X52547619Y-158961904D02*
X52500000Y-158914285D01*
X52452380Y-158819047D01*
X52452380Y-158580952D01*
X52500000Y-158485714D01*
X52547619Y-158438095D01*
X52642857Y-158390476D01*
X52738095Y-158390476D01*
X52880952Y-158438095D01*
X53452380Y-159009523D01*
X53452380Y-158390476D01*
X52452380Y-157533333D02*
X52452380Y-157723809D01*
X52500000Y-157819047D01*
X52547619Y-157866666D01*
X52690476Y-157961904D01*
X52880952Y-158009523D01*
X53261904Y-158009523D01*
X53357142Y-157961904D01*
X53404761Y-157914285D01*
X53452380Y-157819047D01*
X53452380Y-157628571D01*
X53404761Y-157533333D01*
X53357142Y-157485714D01*
X53261904Y-157438095D01*
X53023809Y-157438095D01*
X52928571Y-157485714D01*
X52880952Y-157533333D01*
X52833333Y-157628571D01*
X52833333Y-157819047D01*
X52880952Y-157914285D01*
X52928571Y-157961904D01*
X53023809Y-158009523D01*
%TO.C,R28*%
X47157142Y-175752380D02*
X46823809Y-175276190D01*
X46585714Y-175752380D02*
X46585714Y-174752380D01*
X46966666Y-174752380D01*
X47061904Y-174800000D01*
X47109523Y-174847619D01*
X47157142Y-174942857D01*
X47157142Y-175085714D01*
X47109523Y-175180952D01*
X47061904Y-175228571D01*
X46966666Y-175276190D01*
X46585714Y-175276190D01*
X47538095Y-174847619D02*
X47585714Y-174800000D01*
X47680952Y-174752380D01*
X47919047Y-174752380D01*
X48014285Y-174800000D01*
X48061904Y-174847619D01*
X48109523Y-174942857D01*
X48109523Y-175038095D01*
X48061904Y-175180952D01*
X47490476Y-175752380D01*
X48109523Y-175752380D01*
X48680952Y-175180952D02*
X48585714Y-175133333D01*
X48538095Y-175085714D01*
X48490476Y-174990476D01*
X48490476Y-174942857D01*
X48538095Y-174847619D01*
X48585714Y-174800000D01*
X48680952Y-174752380D01*
X48871428Y-174752380D01*
X48966666Y-174800000D01*
X49014285Y-174847619D01*
X49061904Y-174942857D01*
X49061904Y-174990476D01*
X49014285Y-175085714D01*
X48966666Y-175133333D01*
X48871428Y-175180952D01*
X48680952Y-175180952D01*
X48585714Y-175228571D01*
X48538095Y-175276190D01*
X48490476Y-175371428D01*
X48490476Y-175561904D01*
X48538095Y-175657142D01*
X48585714Y-175704761D01*
X48680952Y-175752380D01*
X48871428Y-175752380D01*
X48966666Y-175704761D01*
X49014285Y-175657142D01*
X49061904Y-175561904D01*
X49061904Y-175371428D01*
X49014285Y-175276190D01*
X48966666Y-175228571D01*
X48871428Y-175180952D01*
%TO.C,R29*%
X30757142Y-153052380D02*
X30423809Y-152576190D01*
X30185714Y-153052380D02*
X30185714Y-152052380D01*
X30566666Y-152052380D01*
X30661904Y-152100000D01*
X30709523Y-152147619D01*
X30757142Y-152242857D01*
X30757142Y-152385714D01*
X30709523Y-152480952D01*
X30661904Y-152528571D01*
X30566666Y-152576190D01*
X30185714Y-152576190D01*
X31138095Y-152147619D02*
X31185714Y-152100000D01*
X31280952Y-152052380D01*
X31519047Y-152052380D01*
X31614285Y-152100000D01*
X31661904Y-152147619D01*
X31709523Y-152242857D01*
X31709523Y-152338095D01*
X31661904Y-152480952D01*
X31090476Y-153052380D01*
X31709523Y-153052380D01*
X32185714Y-153052380D02*
X32376190Y-153052380D01*
X32471428Y-153004761D01*
X32519047Y-152957142D01*
X32614285Y-152814285D01*
X32661904Y-152623809D01*
X32661904Y-152242857D01*
X32614285Y-152147619D01*
X32566666Y-152100000D01*
X32471428Y-152052380D01*
X32280952Y-152052380D01*
X32185714Y-152100000D01*
X32138095Y-152147619D01*
X32090476Y-152242857D01*
X32090476Y-152480952D01*
X32138095Y-152576190D01*
X32185714Y-152623809D01*
X32280952Y-152671428D01*
X32471428Y-152671428D01*
X32566666Y-152623809D01*
X32614285Y-152576190D01*
X32661904Y-152480952D01*
%TO.C,R31*%
X30757142Y-156252380D02*
X30423809Y-155776190D01*
X30185714Y-156252380D02*
X30185714Y-155252380D01*
X30566666Y-155252380D01*
X30661904Y-155300000D01*
X30709523Y-155347619D01*
X30757142Y-155442857D01*
X30757142Y-155585714D01*
X30709523Y-155680952D01*
X30661904Y-155728571D01*
X30566666Y-155776190D01*
X30185714Y-155776190D01*
X31090476Y-155252380D02*
X31709523Y-155252380D01*
X31376190Y-155633333D01*
X31519047Y-155633333D01*
X31614285Y-155680952D01*
X31661904Y-155728571D01*
X31709523Y-155823809D01*
X31709523Y-156061904D01*
X31661904Y-156157142D01*
X31614285Y-156204761D01*
X31519047Y-156252380D01*
X31233333Y-156252380D01*
X31138095Y-156204761D01*
X31090476Y-156157142D01*
X32661904Y-156252380D02*
X32090476Y-156252380D01*
X32376190Y-156252380D02*
X32376190Y-155252380D01*
X32280952Y-155395238D01*
X32185714Y-155490476D01*
X32090476Y-155538095D01*
%TO.C,R32*%
X30757142Y-157952380D02*
X30423809Y-157476190D01*
X30185714Y-157952380D02*
X30185714Y-156952380D01*
X30566666Y-156952380D01*
X30661904Y-157000000D01*
X30709523Y-157047619D01*
X30757142Y-157142857D01*
X30757142Y-157285714D01*
X30709523Y-157380952D01*
X30661904Y-157428571D01*
X30566666Y-157476190D01*
X30185714Y-157476190D01*
X31090476Y-156952380D02*
X31709523Y-156952380D01*
X31376190Y-157333333D01*
X31519047Y-157333333D01*
X31614285Y-157380952D01*
X31661904Y-157428571D01*
X31709523Y-157523809D01*
X31709523Y-157761904D01*
X31661904Y-157857142D01*
X31614285Y-157904761D01*
X31519047Y-157952380D01*
X31233333Y-157952380D01*
X31138095Y-157904761D01*
X31090476Y-157857142D01*
X32090476Y-157047619D02*
X32138095Y-157000000D01*
X32233333Y-156952380D01*
X32471428Y-156952380D01*
X32566666Y-157000000D01*
X32614285Y-157047619D01*
X32661904Y-157142857D01*
X32661904Y-157238095D01*
X32614285Y-157380952D01*
X32042857Y-157952380D01*
X32661904Y-157952380D01*
%TO.C,R33*%
X45157142Y-188252380D02*
X44823809Y-187776190D01*
X44585714Y-188252380D02*
X44585714Y-187252380D01*
X44966666Y-187252380D01*
X45061904Y-187300000D01*
X45109523Y-187347619D01*
X45157142Y-187442857D01*
X45157142Y-187585714D01*
X45109523Y-187680952D01*
X45061904Y-187728571D01*
X44966666Y-187776190D01*
X44585714Y-187776190D01*
X45490476Y-187252380D02*
X46109523Y-187252380D01*
X45776190Y-187633333D01*
X45919047Y-187633333D01*
X46014285Y-187680952D01*
X46061904Y-187728571D01*
X46109523Y-187823809D01*
X46109523Y-188061904D01*
X46061904Y-188157142D01*
X46014285Y-188204761D01*
X45919047Y-188252380D01*
X45633333Y-188252380D01*
X45538095Y-188204761D01*
X45490476Y-188157142D01*
X46442857Y-187252380D02*
X47061904Y-187252380D01*
X46728571Y-187633333D01*
X46871428Y-187633333D01*
X46966666Y-187680952D01*
X47014285Y-187728571D01*
X47061904Y-187823809D01*
X47061904Y-188061904D01*
X47014285Y-188157142D01*
X46966666Y-188204761D01*
X46871428Y-188252380D01*
X46585714Y-188252380D01*
X46490476Y-188204761D01*
X46442857Y-188157142D01*
%TO.C,R35*%
X45157142Y-189852380D02*
X44823809Y-189376190D01*
X44585714Y-189852380D02*
X44585714Y-188852380D01*
X44966666Y-188852380D01*
X45061904Y-188900000D01*
X45109523Y-188947619D01*
X45157142Y-189042857D01*
X45157142Y-189185714D01*
X45109523Y-189280952D01*
X45061904Y-189328571D01*
X44966666Y-189376190D01*
X44585714Y-189376190D01*
X45490476Y-188852380D02*
X46109523Y-188852380D01*
X45776190Y-189233333D01*
X45919047Y-189233333D01*
X46014285Y-189280952D01*
X46061904Y-189328571D01*
X46109523Y-189423809D01*
X46109523Y-189661904D01*
X46061904Y-189757142D01*
X46014285Y-189804761D01*
X45919047Y-189852380D01*
X45633333Y-189852380D01*
X45538095Y-189804761D01*
X45490476Y-189757142D01*
X47014285Y-188852380D02*
X46538095Y-188852380D01*
X46490476Y-189328571D01*
X46538095Y-189280952D01*
X46633333Y-189233333D01*
X46871428Y-189233333D01*
X46966666Y-189280952D01*
X47014285Y-189328571D01*
X47061904Y-189423809D01*
X47061904Y-189661904D01*
X47014285Y-189757142D01*
X46966666Y-189804761D01*
X46871428Y-189852380D01*
X46633333Y-189852380D01*
X46538095Y-189804761D01*
X46490476Y-189757142D01*
%TO.C,S1*%
X40314047Y-191367619D02*
X40374523Y-191186190D01*
X40374523Y-190883809D01*
X40314047Y-190762857D01*
X40253571Y-190702380D01*
X40132619Y-190641904D01*
X40011666Y-190641904D01*
X39890714Y-190702380D01*
X39830238Y-190762857D01*
X39769761Y-190883809D01*
X39709285Y-191125714D01*
X39648809Y-191246666D01*
X39588333Y-191307142D01*
X39467380Y-191367619D01*
X39346428Y-191367619D01*
X39225476Y-191307142D01*
X39165000Y-191246666D01*
X39104523Y-191125714D01*
X39104523Y-190823333D01*
X39165000Y-190641904D01*
X40374523Y-189432380D02*
X40374523Y-190158095D01*
X40374523Y-189795238D02*
X39104523Y-189795238D01*
X39285952Y-189916190D01*
X39406904Y-190037142D01*
X39467380Y-190158095D01*
%TO.C,U4*%
X39738095Y-171552380D02*
X39738095Y-172361904D01*
X39785714Y-172457142D01*
X39833333Y-172504761D01*
X39928571Y-172552380D01*
X40119047Y-172552380D01*
X40214285Y-172504761D01*
X40261904Y-172457142D01*
X40309523Y-172361904D01*
X40309523Y-171552380D01*
X41214285Y-171885714D02*
X41214285Y-172552380D01*
X40976190Y-171504761D02*
X40738095Y-172219047D01*
X41357142Y-172219047D01*
%TO.C,U5*%
X42952380Y-165061904D02*
X43761904Y-165061904D01*
X43857142Y-165014285D01*
X43904761Y-164966666D01*
X43952380Y-164871428D01*
X43952380Y-164680952D01*
X43904761Y-164585714D01*
X43857142Y-164538095D01*
X43761904Y-164490476D01*
X42952380Y-164490476D01*
X42952380Y-163538095D02*
X42952380Y-164014285D01*
X43428571Y-164061904D01*
X43380952Y-164014285D01*
X43333333Y-163919047D01*
X43333333Y-163680952D01*
X43380952Y-163585714D01*
X43428571Y-163538095D01*
X43523809Y-163490476D01*
X43761904Y-163490476D01*
X43857142Y-163538095D01*
X43904761Y-163585714D01*
X43952380Y-163680952D01*
X43952380Y-163919047D01*
X43904761Y-164014285D01*
X43857142Y-164061904D01*
%TO.C,U6*%
X45638095Y-171452380D02*
X45638095Y-172261904D01*
X45685714Y-172357142D01*
X45733333Y-172404761D01*
X45828571Y-172452380D01*
X46019047Y-172452380D01*
X46114285Y-172404761D01*
X46161904Y-172357142D01*
X46209523Y-172261904D01*
X46209523Y-171452380D01*
X47114285Y-171452380D02*
X46923809Y-171452380D01*
X46828571Y-171500000D01*
X46780952Y-171547619D01*
X46685714Y-171690476D01*
X46638095Y-171880952D01*
X46638095Y-172261904D01*
X46685714Y-172357142D01*
X46733333Y-172404761D01*
X46828571Y-172452380D01*
X47019047Y-172452380D01*
X47114285Y-172404761D01*
X47161904Y-172357142D01*
X47209523Y-172261904D01*
X47209523Y-172023809D01*
X47161904Y-171928571D01*
X47114285Y-171880952D01*
X47019047Y-171833333D01*
X46828571Y-171833333D01*
X46733333Y-171880952D01*
X46685714Y-171928571D01*
X46638095Y-172023809D01*
%TO.C,U7*%
X36438095Y-163352380D02*
X36438095Y-164161904D01*
X36485714Y-164257142D01*
X36533333Y-164304761D01*
X36628571Y-164352380D01*
X36819047Y-164352380D01*
X36914285Y-164304761D01*
X36961904Y-164257142D01*
X37009523Y-164161904D01*
X37009523Y-163352380D01*
X37390476Y-163352380D02*
X38057142Y-163352380D01*
X37628571Y-164352380D01*
%TO.C,U1*%
X17668095Y-153252380D02*
X17668095Y-154061904D01*
X17715714Y-154157142D01*
X17763333Y-154204761D01*
X17858571Y-154252380D01*
X18049047Y-154252380D01*
X18144285Y-154204761D01*
X18191904Y-154157142D01*
X18239523Y-154061904D01*
X18239523Y-153252380D01*
X19239523Y-154252380D02*
X18668095Y-154252380D01*
X18953809Y-154252380D02*
X18953809Y-153252380D01*
X18858571Y-153395238D01*
X18763333Y-153490476D01*
X18668095Y-153538095D01*
%TO.C,D1*%
X34752380Y-158438095D02*
X33752380Y-158438095D01*
X33752380Y-158200000D01*
X33800000Y-158057142D01*
X33895238Y-157961904D01*
X33990476Y-157914285D01*
X34180952Y-157866666D01*
X34323809Y-157866666D01*
X34514285Y-157914285D01*
X34609523Y-157961904D01*
X34704761Y-158057142D01*
X34752380Y-158200000D01*
X34752380Y-158438095D01*
X34752380Y-156914285D02*
X34752380Y-157485714D01*
X34752380Y-157200000D02*
X33752380Y-157200000D01*
X33895238Y-157295238D01*
X33990476Y-157390476D01*
X34038095Y-157485714D01*
%TO.C,D2*%
X37352380Y-153438095D02*
X36352380Y-153438095D01*
X36352380Y-153200000D01*
X36400000Y-153057142D01*
X36495238Y-152961904D01*
X36590476Y-152914285D01*
X36780952Y-152866666D01*
X36923809Y-152866666D01*
X37114285Y-152914285D01*
X37209523Y-152961904D01*
X37304761Y-153057142D01*
X37352380Y-153200000D01*
X37352380Y-153438095D01*
X36447619Y-152485714D02*
X36400000Y-152438095D01*
X36352380Y-152342857D01*
X36352380Y-152104761D01*
X36400000Y-152009523D01*
X36447619Y-151961904D01*
X36542857Y-151914285D01*
X36638095Y-151914285D01*
X36780952Y-151961904D01*
X37352380Y-152533333D01*
X37352380Y-151914285D01*
%TO.C,D3*%
X42452380Y-153438095D02*
X41452380Y-153438095D01*
X41452380Y-153200000D01*
X41500000Y-153057142D01*
X41595238Y-152961904D01*
X41690476Y-152914285D01*
X41880952Y-152866666D01*
X42023809Y-152866666D01*
X42214285Y-152914285D01*
X42309523Y-152961904D01*
X42404761Y-153057142D01*
X42452380Y-153200000D01*
X42452380Y-153438095D01*
X41452380Y-152533333D02*
X41452380Y-151914285D01*
X41833333Y-152247619D01*
X41833333Y-152104761D01*
X41880952Y-152009523D01*
X41928571Y-151961904D01*
X42023809Y-151914285D01*
X42261904Y-151914285D01*
X42357142Y-151961904D01*
X42404761Y-152009523D01*
X42452380Y-152104761D01*
X42452380Y-152390476D01*
X42404761Y-152485714D01*
X42357142Y-152533333D01*
%TO.C,D4*%
X47452380Y-153438095D02*
X46452380Y-153438095D01*
X46452380Y-153200000D01*
X46500000Y-153057142D01*
X46595238Y-152961904D01*
X46690476Y-152914285D01*
X46880952Y-152866666D01*
X47023809Y-152866666D01*
X47214285Y-152914285D01*
X47309523Y-152961904D01*
X47404761Y-153057142D01*
X47452380Y-153200000D01*
X47452380Y-153438095D01*
X46785714Y-152009523D02*
X47452380Y-152009523D01*
X46404761Y-152247619D02*
X47119047Y-152485714D01*
X47119047Y-151866666D01*
%TO.C,N3*%
X39023809Y-185528571D02*
X39166666Y-185576190D01*
X39214285Y-185623809D01*
X39261904Y-185719047D01*
X39261904Y-185861904D01*
X39214285Y-185957142D01*
X39166666Y-186004761D01*
X39071428Y-186052380D01*
X38690476Y-186052380D01*
X38690476Y-185052380D01*
X39023809Y-185052380D01*
X39119047Y-185100000D01*
X39166666Y-185147619D01*
X39214285Y-185242857D01*
X39214285Y-185338095D01*
X39166666Y-185433333D01*
X39119047Y-185480952D01*
X39023809Y-185528571D01*
X38690476Y-185528571D01*
X39833333Y-186052380D02*
X39738095Y-186004761D01*
X39690476Y-185909523D01*
X39690476Y-185052380D01*
X40642857Y-186052380D02*
X40642857Y-185528571D01*
X40595238Y-185433333D01*
X40500000Y-185385714D01*
X40309523Y-185385714D01*
X40214285Y-185433333D01*
X40642857Y-186004761D02*
X40547619Y-186052380D01*
X40309523Y-186052380D01*
X40214285Y-186004761D01*
X40166666Y-185909523D01*
X40166666Y-185814285D01*
X40214285Y-185719047D01*
X40309523Y-185671428D01*
X40547619Y-185671428D01*
X40642857Y-185623809D01*
X41547619Y-186004761D02*
X41452380Y-186052380D01*
X41261904Y-186052380D01*
X41166666Y-186004761D01*
X41119047Y-185957142D01*
X41071428Y-185861904D01*
X41071428Y-185576190D01*
X41119047Y-185480952D01*
X41166666Y-185433333D01*
X41261904Y-185385714D01*
X41452380Y-185385714D01*
X41547619Y-185433333D01*
X41976190Y-186052380D02*
X41976190Y-185052380D01*
X42071428Y-185671428D02*
X42357142Y-186052380D01*
X42357142Y-185385714D02*
X41976190Y-185766666D01*
X43119047Y-185528571D02*
X43261904Y-185576190D01*
X43309523Y-185623809D01*
X43357142Y-185719047D01*
X43357142Y-185861904D01*
X43309523Y-185957142D01*
X43261904Y-186004761D01*
X43166666Y-186052380D01*
X42785714Y-186052380D01*
X42785714Y-185052380D01*
X43119047Y-185052380D01*
X43214285Y-185100000D01*
X43261904Y-185147619D01*
X43309523Y-185242857D01*
X43309523Y-185338095D01*
X43261904Y-185433333D01*
X43214285Y-185480952D01*
X43119047Y-185528571D01*
X42785714Y-185528571D01*
X43928571Y-186052380D02*
X43833333Y-186004761D01*
X43785714Y-185957142D01*
X43738095Y-185861904D01*
X43738095Y-185576190D01*
X43785714Y-185480952D01*
X43833333Y-185433333D01*
X43928571Y-185385714D01*
X44071428Y-185385714D01*
X44166666Y-185433333D01*
X44214285Y-185480952D01*
X44261904Y-185576190D01*
X44261904Y-185861904D01*
X44214285Y-185957142D01*
X44166666Y-186004761D01*
X44071428Y-186052380D01*
X43928571Y-186052380D01*
X44595238Y-186052380D02*
X45119047Y-185385714D01*
X44595238Y-185385714D02*
X45119047Y-186052380D01*
X45500000Y-186052380D02*
X45500000Y-185052380D01*
X45880952Y-185052380D01*
X45976190Y-185100000D01*
X46023809Y-185147619D01*
X46071428Y-185242857D01*
X46071428Y-185385714D01*
X46023809Y-185480952D01*
X45976190Y-185528571D01*
X45880952Y-185576190D01*
X45500000Y-185576190D01*
X46500000Y-186052380D02*
X46500000Y-185385714D01*
X46500000Y-185576190D02*
X46547619Y-185480952D01*
X46595238Y-185433333D01*
X46690476Y-185385714D01*
X46785714Y-185385714D01*
X47261904Y-186052380D02*
X47166666Y-186004761D01*
X47119047Y-185957142D01*
X47071428Y-185861904D01*
X47071428Y-185576190D01*
X47119047Y-185480952D01*
X47166666Y-185433333D01*
X47261904Y-185385714D01*
X47404761Y-185385714D01*
X47500000Y-185433333D01*
X47547619Y-185480952D01*
X47595238Y-185576190D01*
X47595238Y-185861904D01*
X47547619Y-185957142D01*
X47500000Y-186004761D01*
X47404761Y-186052380D01*
X47261904Y-186052380D01*
X48023809Y-186052380D02*
X48023809Y-185052380D01*
X48023809Y-185433333D02*
X48119047Y-185385714D01*
X48309523Y-185385714D01*
X48404761Y-185433333D01*
X48452380Y-185480952D01*
X48500000Y-185576190D01*
X48500000Y-185861904D01*
X48452380Y-185957142D01*
X48404761Y-186004761D01*
X48309523Y-186052380D01*
X48119047Y-186052380D01*
X48023809Y-186004761D01*
X49309523Y-186004761D02*
X49214285Y-186052380D01*
X49023809Y-186052380D01*
X48928571Y-186004761D01*
X48880952Y-185909523D01*
X48880952Y-185528571D01*
X48928571Y-185433333D01*
X49023809Y-185385714D01*
X49214285Y-185385714D01*
X49309523Y-185433333D01*
X49357142Y-185528571D01*
X49357142Y-185623809D01*
X48880952Y-185719047D01*
%TO.C,R27*%
X29857142Y-170452380D02*
X29523809Y-169976190D01*
X29285714Y-170452380D02*
X29285714Y-169452380D01*
X29666666Y-169452380D01*
X29761904Y-169500000D01*
X29809523Y-169547619D01*
X29857142Y-169642857D01*
X29857142Y-169785714D01*
X29809523Y-169880952D01*
X29761904Y-169928571D01*
X29666666Y-169976190D01*
X29285714Y-169976190D01*
X30238095Y-169547619D02*
X30285714Y-169500000D01*
X30380952Y-169452380D01*
X30619047Y-169452380D01*
X30714285Y-169500000D01*
X30761904Y-169547619D01*
X30809523Y-169642857D01*
X30809523Y-169738095D01*
X30761904Y-169880952D01*
X30190476Y-170452380D01*
X30809523Y-170452380D01*
X31142857Y-169452380D02*
X31809523Y-169452380D01*
X31380952Y-170452380D01*
%TO.C,R34*%
X29857142Y-172052380D02*
X29523809Y-171576190D01*
X29285714Y-172052380D02*
X29285714Y-171052380D01*
X29666666Y-171052380D01*
X29761904Y-171100000D01*
X29809523Y-171147619D01*
X29857142Y-171242857D01*
X29857142Y-171385714D01*
X29809523Y-171480952D01*
X29761904Y-171528571D01*
X29666666Y-171576190D01*
X29285714Y-171576190D01*
X30190476Y-171052380D02*
X30809523Y-171052380D01*
X30476190Y-171433333D01*
X30619047Y-171433333D01*
X30714285Y-171480952D01*
X30761904Y-171528571D01*
X30809523Y-171623809D01*
X30809523Y-171861904D01*
X30761904Y-171957142D01*
X30714285Y-172004761D01*
X30619047Y-172052380D01*
X30333333Y-172052380D01*
X30238095Y-172004761D01*
X30190476Y-171957142D01*
X31666666Y-171385714D02*
X31666666Y-172052380D01*
X31428571Y-171004761D02*
X31190476Y-171719047D01*
X31809523Y-171719047D01*
%TO.C,J2*%
X14852380Y-187433333D02*
X15566666Y-187433333D01*
X15709523Y-187480952D01*
X15804761Y-187576190D01*
X15852380Y-187719047D01*
X15852380Y-187814285D01*
X14947619Y-187004761D02*
X14900000Y-186957142D01*
X14852380Y-186861904D01*
X14852380Y-186623809D01*
X14900000Y-186528571D01*
X14947619Y-186480952D01*
X15042857Y-186433333D01*
X15138095Y-186433333D01*
X15280952Y-186480952D01*
X15852380Y-187052380D01*
X15852380Y-186433333D01*
%TO.C,J3*%
X54852380Y-168833333D02*
X55566666Y-168833333D01*
X55709523Y-168880952D01*
X55804761Y-168976190D01*
X55852380Y-169119047D01*
X55852380Y-169214285D01*
X54852380Y-168452380D02*
X54852380Y-167833333D01*
X55233333Y-168166666D01*
X55233333Y-168023809D01*
X55280952Y-167928571D01*
X55328571Y-167880952D01*
X55423809Y-167833333D01*
X55661904Y-167833333D01*
X55757142Y-167880952D01*
X55804761Y-167928571D01*
X55852380Y-168023809D01*
X55852380Y-168309523D01*
X55804761Y-168404761D01*
X55757142Y-168452380D01*
%TO.C,C10*%
X24457142Y-188157142D02*
X24409523Y-188204761D01*
X24266666Y-188252380D01*
X24171428Y-188252380D01*
X24028571Y-188204761D01*
X23933333Y-188109523D01*
X23885714Y-188014285D01*
X23838095Y-187823809D01*
X23838095Y-187680952D01*
X23885714Y-187490476D01*
X23933333Y-187395238D01*
X24028571Y-187300000D01*
X24171428Y-187252380D01*
X24266666Y-187252380D01*
X24409523Y-187300000D01*
X24457142Y-187347619D01*
X25409523Y-188252380D02*
X24838095Y-188252380D01*
X25123809Y-188252380D02*
X25123809Y-187252380D01*
X25028571Y-187395238D01*
X24933333Y-187490476D01*
X24838095Y-187538095D01*
X26028571Y-187252380D02*
X26123809Y-187252380D01*
X26219047Y-187300000D01*
X26266666Y-187347619D01*
X26314285Y-187442857D01*
X26361904Y-187633333D01*
X26361904Y-187871428D01*
X26314285Y-188061904D01*
X26266666Y-188157142D01*
X26219047Y-188204761D01*
X26123809Y-188252380D01*
X26028571Y-188252380D01*
X25933333Y-188204761D01*
X25885714Y-188157142D01*
X25838095Y-188061904D01*
X25790476Y-187871428D01*
X25790476Y-187633333D01*
X25838095Y-187442857D01*
X25885714Y-187347619D01*
X25933333Y-187300000D01*
X26028571Y-187252380D01*
%TO.C,Q1*%
X45704761Y-158447619D02*
X45609523Y-158400000D01*
X45514285Y-158304761D01*
X45371428Y-158161904D01*
X45276190Y-158114285D01*
X45180952Y-158114285D01*
X45228571Y-158352380D02*
X45133333Y-158304761D01*
X45038095Y-158209523D01*
X44990476Y-158019047D01*
X44990476Y-157685714D01*
X45038095Y-157495238D01*
X45133333Y-157400000D01*
X45228571Y-157352380D01*
X45419047Y-157352380D01*
X45514285Y-157400000D01*
X45609523Y-157495238D01*
X45657142Y-157685714D01*
X45657142Y-158019047D01*
X45609523Y-158209523D01*
X45514285Y-158304761D01*
X45419047Y-158352380D01*
X45228571Y-158352380D01*
X46609523Y-158352380D02*
X46038095Y-158352380D01*
X46323809Y-158352380D02*
X46323809Y-157352380D01*
X46228571Y-157495238D01*
X46133333Y-157590476D01*
X46038095Y-157638095D01*
%TO.C,Q2*%
X49547619Y-172195238D02*
X49500000Y-172290476D01*
X49404761Y-172385714D01*
X49261904Y-172528571D01*
X49214285Y-172623809D01*
X49214285Y-172719047D01*
X49452380Y-172671428D02*
X49404761Y-172766666D01*
X49309523Y-172861904D01*
X49119047Y-172909523D01*
X48785714Y-172909523D01*
X48595238Y-172861904D01*
X48500000Y-172766666D01*
X48452380Y-172671428D01*
X48452380Y-172480952D01*
X48500000Y-172385714D01*
X48595238Y-172290476D01*
X48785714Y-172242857D01*
X49119047Y-172242857D01*
X49309523Y-172290476D01*
X49404761Y-172385714D01*
X49452380Y-172480952D01*
X49452380Y-172671428D01*
X48547619Y-171861904D02*
X48500000Y-171814285D01*
X48452380Y-171719047D01*
X48452380Y-171480952D01*
X48500000Y-171385714D01*
X48547619Y-171338095D01*
X48642857Y-171290476D01*
X48738095Y-171290476D01*
X48880952Y-171338095D01*
X49452380Y-171909523D01*
X49452380Y-171290476D01*
%TO.C,R36*%
X46357142Y-156952380D02*
X46023809Y-156476190D01*
X45785714Y-156952380D02*
X45785714Y-155952380D01*
X46166666Y-155952380D01*
X46261904Y-156000000D01*
X46309523Y-156047619D01*
X46357142Y-156142857D01*
X46357142Y-156285714D01*
X46309523Y-156380952D01*
X46261904Y-156428571D01*
X46166666Y-156476190D01*
X45785714Y-156476190D01*
X46690476Y-155952380D02*
X47309523Y-155952380D01*
X46976190Y-156333333D01*
X47119047Y-156333333D01*
X47214285Y-156380952D01*
X47261904Y-156428571D01*
X47309523Y-156523809D01*
X47309523Y-156761904D01*
X47261904Y-156857142D01*
X47214285Y-156904761D01*
X47119047Y-156952380D01*
X46833333Y-156952380D01*
X46738095Y-156904761D01*
X46690476Y-156857142D01*
X48166666Y-155952380D02*
X47976190Y-155952380D01*
X47880952Y-156000000D01*
X47833333Y-156047619D01*
X47738095Y-156190476D01*
X47690476Y-156380952D01*
X47690476Y-156761904D01*
X47738095Y-156857142D01*
X47785714Y-156904761D01*
X47880952Y-156952380D01*
X48071428Y-156952380D01*
X48166666Y-156904761D01*
X48214285Y-156857142D01*
X48261904Y-156761904D01*
X48261904Y-156523809D01*
X48214285Y-156428571D01*
X48166666Y-156380952D01*
X48071428Y-156333333D01*
X47880952Y-156333333D01*
X47785714Y-156380952D01*
X47738095Y-156428571D01*
X47690476Y-156523809D01*
%TO.C,R37*%
X26552380Y-177242857D02*
X26076190Y-177576190D01*
X26552380Y-177814285D02*
X25552380Y-177814285D01*
X25552380Y-177433333D01*
X25600000Y-177338095D01*
X25647619Y-177290476D01*
X25742857Y-177242857D01*
X25885714Y-177242857D01*
X25980952Y-177290476D01*
X26028571Y-177338095D01*
X26076190Y-177433333D01*
X26076190Y-177814285D01*
X25552380Y-176909523D02*
X25552380Y-176290476D01*
X25933333Y-176623809D01*
X25933333Y-176480952D01*
X25980952Y-176385714D01*
X26028571Y-176338095D01*
X26123809Y-176290476D01*
X26361904Y-176290476D01*
X26457142Y-176338095D01*
X26504761Y-176385714D01*
X26552380Y-176480952D01*
X26552380Y-176766666D01*
X26504761Y-176861904D01*
X26457142Y-176909523D01*
X25552380Y-175957142D02*
X25552380Y-175290476D01*
X26552380Y-175719047D01*
%TO.C,R38*%
X25657142Y-179352380D02*
X25323809Y-178876190D01*
X25085714Y-179352380D02*
X25085714Y-178352380D01*
X25466666Y-178352380D01*
X25561904Y-178400000D01*
X25609523Y-178447619D01*
X25657142Y-178542857D01*
X25657142Y-178685714D01*
X25609523Y-178780952D01*
X25561904Y-178828571D01*
X25466666Y-178876190D01*
X25085714Y-178876190D01*
X25990476Y-178352380D02*
X26609523Y-178352380D01*
X26276190Y-178733333D01*
X26419047Y-178733333D01*
X26514285Y-178780952D01*
X26561904Y-178828571D01*
X26609523Y-178923809D01*
X26609523Y-179161904D01*
X26561904Y-179257142D01*
X26514285Y-179304761D01*
X26419047Y-179352380D01*
X26133333Y-179352380D01*
X26038095Y-179304761D01*
X25990476Y-179257142D01*
X27180952Y-178780952D02*
X27085714Y-178733333D01*
X27038095Y-178685714D01*
X26990476Y-178590476D01*
X26990476Y-178542857D01*
X27038095Y-178447619D01*
X27085714Y-178400000D01*
X27180952Y-178352380D01*
X27371428Y-178352380D01*
X27466666Y-178400000D01*
X27514285Y-178447619D01*
X27561904Y-178542857D01*
X27561904Y-178590476D01*
X27514285Y-178685714D01*
X27466666Y-178733333D01*
X27371428Y-178780952D01*
X27180952Y-178780952D01*
X27085714Y-178828571D01*
X27038095Y-178876190D01*
X26990476Y-178971428D01*
X26990476Y-179161904D01*
X27038095Y-179257142D01*
X27085714Y-179304761D01*
X27180952Y-179352380D01*
X27371428Y-179352380D01*
X27466666Y-179304761D01*
X27514285Y-179257142D01*
X27561904Y-179161904D01*
X27561904Y-178971428D01*
X27514285Y-178876190D01*
X27466666Y-178828571D01*
X27371428Y-178780952D01*
%TO.C,U2*%
X22888095Y-167202380D02*
X22888095Y-168011904D01*
X22935714Y-168107142D01*
X22983333Y-168154761D01*
X23078571Y-168202380D01*
X23269047Y-168202380D01*
X23364285Y-168154761D01*
X23411904Y-168107142D01*
X23459523Y-168011904D01*
X23459523Y-167202380D01*
X23888095Y-167297619D02*
X23935714Y-167250000D01*
X24030952Y-167202380D01*
X24269047Y-167202380D01*
X24364285Y-167250000D01*
X24411904Y-167297619D01*
X24459523Y-167392857D01*
X24459523Y-167488095D01*
X24411904Y-167630952D01*
X23840476Y-168202380D01*
X24459523Y-168202380D01*
%TO.C,N2*%
X40257142Y-183752380D02*
X40590476Y-184752380D01*
X40923809Y-183752380D01*
X41209523Y-183847619D02*
X41257142Y-183800000D01*
X41352380Y-183752380D01*
X41590476Y-183752380D01*
X41685714Y-183800000D01*
X41733333Y-183847619D01*
X41780952Y-183942857D01*
X41780952Y-184038095D01*
X41733333Y-184180952D01*
X41161904Y-184752380D01*
X41780952Y-184752380D01*
X42400000Y-183752380D02*
X42495238Y-183752380D01*
X42590476Y-183800000D01*
X42638095Y-183847619D01*
X42685714Y-183942857D01*
X42733333Y-184133333D01*
X42733333Y-184371428D01*
X42685714Y-184561904D01*
X42638095Y-184657142D01*
X42590476Y-184704761D01*
X42495238Y-184752380D01*
X42400000Y-184752380D01*
X42304761Y-184704761D01*
X42257142Y-184657142D01*
X42209523Y-184561904D01*
X42161904Y-184371428D01*
X42161904Y-184133333D01*
X42209523Y-183942857D01*
X42257142Y-183847619D01*
X42304761Y-183800000D01*
X42400000Y-183752380D01*
X43685714Y-184752380D02*
X43114285Y-184752380D01*
X43400000Y-184752380D02*
X43400000Y-183752380D01*
X43304761Y-183895238D01*
X43209523Y-183990476D01*
X43114285Y-184038095D01*
X44257142Y-184180952D02*
X44161904Y-184133333D01*
X44114285Y-184085714D01*
X44066666Y-183990476D01*
X44066666Y-183942857D01*
X44114285Y-183847619D01*
X44161904Y-183800000D01*
X44257142Y-183752380D01*
X44447619Y-183752380D01*
X44542857Y-183800000D01*
X44590476Y-183847619D01*
X44638095Y-183942857D01*
X44638095Y-183990476D01*
X44590476Y-184085714D01*
X44542857Y-184133333D01*
X44447619Y-184180952D01*
X44257142Y-184180952D01*
X44161904Y-184228571D01*
X44114285Y-184276190D01*
X44066666Y-184371428D01*
X44066666Y-184561904D01*
X44114285Y-184657142D01*
X44161904Y-184704761D01*
X44257142Y-184752380D01*
X44447619Y-184752380D01*
X44542857Y-184704761D01*
X44590476Y-184657142D01*
X44638095Y-184561904D01*
X44638095Y-184371428D01*
X44590476Y-184276190D01*
X44542857Y-184228571D01*
X44447619Y-184180952D01*
X45257142Y-183752380D02*
X45352380Y-183752380D01*
X45447619Y-183800000D01*
X45495238Y-183847619D01*
X45542857Y-183942857D01*
X45590476Y-184133333D01*
X45590476Y-184371428D01*
X45542857Y-184561904D01*
X45495238Y-184657142D01*
X45447619Y-184704761D01*
X45352380Y-184752380D01*
X45257142Y-184752380D01*
X45161904Y-184704761D01*
X45114285Y-184657142D01*
X45066666Y-184561904D01*
X45019047Y-184371428D01*
X45019047Y-184133333D01*
X45066666Y-183942857D01*
X45114285Y-183847619D01*
X45161904Y-183800000D01*
X45257142Y-183752380D01*
X45923809Y-183752380D02*
X46590476Y-183752380D01*
X46161904Y-184752380D01*
X46923809Y-183847619D02*
X46971428Y-183800000D01*
X47066666Y-183752380D01*
X47304761Y-183752380D01*
X47400000Y-183800000D01*
X47447619Y-183847619D01*
X47495238Y-183942857D01*
X47495238Y-184038095D01*
X47447619Y-184180952D01*
X46876190Y-184752380D01*
X47495238Y-184752380D01*
X48066666Y-184180952D02*
X47971428Y-184133333D01*
X47923809Y-184085714D01*
X47876190Y-183990476D01*
X47876190Y-183942857D01*
X47923809Y-183847619D01*
X47971428Y-183800000D01*
X48066666Y-183752380D01*
X48257142Y-183752380D01*
X48352380Y-183800000D01*
X48400000Y-183847619D01*
X48447619Y-183942857D01*
X48447619Y-183990476D01*
X48400000Y-184085714D01*
X48352380Y-184133333D01*
X48257142Y-184180952D01*
X48066666Y-184180952D01*
X47971428Y-184228571D01*
X47923809Y-184276190D01*
X47876190Y-184371428D01*
X47876190Y-184561904D01*
X47923809Y-184657142D01*
X47971428Y-184704761D01*
X48066666Y-184752380D01*
X48257142Y-184752380D01*
X48352380Y-184704761D01*
X48400000Y-184657142D01*
X48447619Y-184561904D01*
X48447619Y-184371428D01*
X48400000Y-184276190D01*
X48352380Y-184228571D01*
X48257142Y-184180952D01*
X38928571Y-183752380D02*
X39261904Y-184752380D01*
X39595238Y-183752380D01*
X39928571Y-184657142D02*
X39976190Y-184704761D01*
X39928571Y-184752380D01*
X39880952Y-184704761D01*
X39928571Y-184657142D01*
X39928571Y-184752380D01*
X39928571Y-184133333D02*
X39976190Y-184180952D01*
X39928571Y-184228571D01*
X39880952Y-184180952D01*
X39928571Y-184133333D01*
X39928571Y-184228571D01*
%TD*%
M02*
