%TF.GenerationSoftware,KiCad,Pcbnew,5.0.0-fee4fd1~65~ubuntu18.04.1*%
%TF.CreationDate,2018-07-28T20:32:54+02:00*%
%TF.ProjectId,blackBoxProbeBig,626C61636B426F7850726F6265426967,rev?*%
%TF.SameCoordinates,Original*%
%TF.FileFunction,Copper,L2,Inr,Signal*%
%TF.FilePolarity,Positive*%
%FSLAX46Y46*%
G04 Gerber Fmt 4.6, Leading zero omitted, Abs format (unit mm)*
G04 Created by KiCad (PCBNEW 5.0.0-fee4fd1~65~ubuntu18.04.1) date Sat Jul 28 20:32:54 2018*
%MOMM*%
%LPD*%
G01*
G04 APERTURE LIST*
%TA.AperFunction,ViaPad*%
%ADD10C,1.200000*%
%TD*%
%TA.AperFunction,ViaPad*%
%ADD11R,1.700000X1.700000*%
%TD*%
%TA.AperFunction,ViaPad*%
%ADD12O,1.700000X1.700000*%
%TD*%
%TA.AperFunction,ViaPad*%
%ADD13R,1.800000X1.800000*%
%TD*%
%TA.AperFunction,ViaPad*%
%ADD14C,1.800000*%
%TD*%
%TA.AperFunction,ViaPad*%
%ADD15R,0.750000X0.750000*%
%TD*%
%TA.AperFunction,ViaPad*%
%ADD16C,0.750000*%
%TD*%
%TA.AperFunction,ViaPad*%
%ADD17C,0.550000*%
%TD*%
%TA.AperFunction,ViaPad*%
%ADD18C,0.355600*%
%TD*%
%TA.AperFunction,ViaPad*%
%ADD19C,0.381000*%
%TD*%
%TA.AperFunction,Conductor*%
%ADD20C,0.254000*%
%TD*%
G04 APERTURE END LIST*
D10*
%TO.N,Net-(C2-Pad2)*%
%TO.C,J1*%
X18975000Y-167395000D03*
X18975000Y-174545000D03*
X15525000Y-167395000D03*
X15525000Y-174545000D03*
%TD*%
D11*
%TO.N,/PROBE_VDD*%
%TO.C,J4*%
X52450000Y-185260000D03*
D12*
%TO.N,Net-(J4-Pad2)*%
X52450000Y-187800000D03*
%TO.N,Net-(J4-Pad3)*%
X52450000Y-190340000D03*
%TO.N,GND*%
X52450000Y-192880000D03*
%TD*%
D13*
%TO.N,GND*%
%TO.C,D1*%
X34290000Y-153035000D03*
D14*
%TO.N,Net-(D1-Pad2)*%
X34290000Y-155575000D03*
%TD*%
D13*
%TO.N,GND*%
%TO.C,D2*%
X39370000Y-153035000D03*
D14*
%TO.N,Net-(D2-Pad2)*%
X39370000Y-155575000D03*
%TD*%
D13*
%TO.N,GND*%
%TO.C,D3*%
X44450000Y-153035000D03*
D14*
%TO.N,Net-(D3-Pad2)*%
X44450000Y-155575000D03*
%TD*%
D13*
%TO.N,GND*%
%TO.C,D4*%
X49530000Y-153035000D03*
D14*
%TO.N,Net-(D4-Pad2)*%
X49530000Y-155575000D03*
%TD*%
D15*
%TO.N,Net-(J2-Pad1)*%
%TO.C,J2*%
X16665000Y-179660000D03*
D16*
%TO.N,Net-(J2-Pad2)*%
X17935000Y-179660000D03*
%TO.N,GND*%
X16665000Y-180930000D03*
%TO.N,Net-(J2-Pad4)*%
X17935000Y-180930000D03*
%TO.N,GND*%
X16665000Y-182200000D03*
%TO.N,Net-(J2-Pad6)*%
X17935000Y-182200000D03*
%TO.N,N/C*%
X16665000Y-183470000D03*
%TO.N,Net-(J2-Pad8)*%
X17935000Y-183470000D03*
%TO.N,GND*%
X16665000Y-184740000D03*
%TO.N,Net-(J2-Pad10)*%
X17935000Y-184740000D03*
%TD*%
D15*
%TO.N,/PROBE_VDD*%
%TO.C,J3*%
X56235000Y-166540000D03*
D16*
%TO.N,Net-(J3-Pad2)*%
X54965000Y-166540000D03*
%TO.N,GND*%
X56235000Y-165270000D03*
%TO.N,Net-(J3-Pad4)*%
X54965000Y-165270000D03*
%TO.N,GND*%
X56235000Y-164000000D03*
%TO.N,Net-(J3-Pad6)*%
X54965000Y-164000000D03*
%TO.N,N/C*%
X56235000Y-162730000D03*
%TO.N,Net-(J3-Pad8)*%
X54965000Y-162730000D03*
%TO.N,GND*%
X56235000Y-161460000D03*
%TO.N,Net-(J3-Pad10)*%
X54965000Y-161460000D03*
%TD*%
D17*
%TO.N,+5V*%
X23500000Y-169000000D03*
X20800000Y-165200000D03*
X24500000Y-173300000D03*
D18*
%TO.N,GND*%
X38250000Y-180450000D03*
X24600000Y-174900000D03*
D19*
X47000000Y-159800000D03*
D16*
X50800000Y-179900000D03*
D18*
X53800000Y-170400000D03*
X46400000Y-162000000D03*
X40500000Y-167000000D03*
X46400000Y-167000000D03*
X40500000Y-162000000D03*
X22800000Y-187700000D03*
X28000000Y-192900000D03*
X24500000Y-168900000D03*
D17*
X39200000Y-193600000D03*
D18*
X29050000Y-175850000D03*
D17*
X23600000Y-171500000D03*
D19*
X24100000Y-185200000D03*
D16*
X15550000Y-163200000D03*
X23150000Y-161100000D03*
D17*
X16210000Y-177935000D03*
D16*
X20500000Y-173750000D03*
D18*
X23400000Y-178200000D03*
X38000000Y-165300000D03*
%TO.N,+3V3*%
X38250000Y-178950000D03*
X52000000Y-174200000D03*
X47000000Y-165300000D03*
X44500000Y-158200000D03*
D19*
X44150000Y-166350000D03*
D16*
X55200000Y-179900000D03*
D18*
X38250000Y-161250000D03*
X38250000Y-166250000D03*
X44150000Y-161250000D03*
X19000000Y-187000000D03*
D16*
X24300000Y-157800000D03*
D18*
X25100000Y-181900000D03*
X43750000Y-193750000D03*
D17*
X39200000Y-192000000D03*
D18*
X27550000Y-175850000D03*
D19*
X24100000Y-186200000D03*
D18*
X22000000Y-177400000D03*
X41000000Y-170300000D03*
%TO.N,/TARGET_PWR_SENSE*%
X53000000Y-173700000D03*
X38200000Y-183000000D03*
D19*
%TO.N,/PROBE_I_RST*%
X36800000Y-159700000D03*
D18*
X34300000Y-185700000D03*
D19*
%TO.N,/PROBE_I_RST_SEN*%
X35100000Y-160600000D03*
D18*
X32000000Y-183400000D03*
%TO.N,/TARGET_PWR_EN*%
X51600000Y-177200000D03*
X38700000Y-182400000D03*
%TO.N,/USB_V*%
X28900000Y-182600000D03*
X22700000Y-168800000D03*
%TO.N,/MCU_TDO*%
X22400000Y-182200000D03*
X24100000Y-182200000D03*
%TO.N,/MCU_RST*%
X21400000Y-186200000D03*
X31500000Y-185500000D03*
%TO.N,/USB_PU*%
X30000000Y-180000000D03*
X27400000Y-174700000D03*
D19*
%TO.N,/PROBE_E_TCK*%
X49300000Y-165600000D03*
X48800000Y-164000000D03*
D18*
%TO.N,/LED0*%
X27000000Y-154200000D03*
X29400000Y-182000000D03*
%TO.N,/LED1*%
X27000000Y-155800000D03*
X29800000Y-181500000D03*
%TO.N,/LED2*%
X27000000Y-157400000D03*
X29400000Y-181000000D03*
%TO.N,/PROBE_TMS_DIR*%
X33500000Y-185700000D03*
X32500000Y-173500000D03*
%TO.N,/PROBE_I_TMS*%
X32000000Y-185000000D03*
X32000000Y-174000000D03*
D19*
%TO.N,/PROBE_I_TCK*%
X44100000Y-164300000D03*
X33800000Y-184400000D03*
%TO.N,/PROBE_I_TDO*%
X43300000Y-169300000D03*
X37100000Y-183900000D03*
D18*
%TO.N,/PROBE_I_RX*%
X36100000Y-171000000D03*
X43800000Y-169800000D03*
D19*
%TO.N,/PROBE_I_TDI*%
X43400000Y-164800000D03*
X35700000Y-186400000D03*
%TO.N,/PROBE_E_VDD*%
X48650000Y-166350000D03*
D18*
X42500000Y-161200000D03*
X48400000Y-161200000D03*
X42750000Y-166250000D03*
X49200000Y-157600000D03*
%TD*%
D20*
%TO.N,GND*%
G36*
X32755000Y-152008691D02*
X32755000Y-152749250D01*
X32913750Y-152908000D01*
X34163000Y-152908000D01*
X34163000Y-152888000D01*
X34417000Y-152888000D01*
X34417000Y-152908000D01*
X35666250Y-152908000D01*
X35825000Y-152749250D01*
X35825000Y-152008691D01*
X35804832Y-151960000D01*
X37855168Y-151960000D01*
X37835000Y-152008691D01*
X37835000Y-152749250D01*
X37993750Y-152908000D01*
X39243000Y-152908000D01*
X39243000Y-152888000D01*
X39497000Y-152888000D01*
X39497000Y-152908000D01*
X40746250Y-152908000D01*
X40905000Y-152749250D01*
X40905000Y-152008691D01*
X40884832Y-151960000D01*
X42935168Y-151960000D01*
X42915000Y-152008691D01*
X42915000Y-152749250D01*
X43073750Y-152908000D01*
X44323000Y-152908000D01*
X44323000Y-152888000D01*
X44577000Y-152888000D01*
X44577000Y-152908000D01*
X45826250Y-152908000D01*
X45985000Y-152749250D01*
X45985000Y-152008691D01*
X45964832Y-151960000D01*
X48015168Y-151960000D01*
X47995000Y-152008691D01*
X47995000Y-152749250D01*
X48153750Y-152908000D01*
X49403000Y-152908000D01*
X49403000Y-152888000D01*
X49657000Y-152888000D01*
X49657000Y-152908000D01*
X50906250Y-152908000D01*
X51065000Y-152749250D01*
X51065000Y-152008691D01*
X51044832Y-151960000D01*
X51340000Y-151960000D01*
X51340001Y-154569926D01*
X51346200Y-154601093D01*
X51390224Y-155094369D01*
X51396106Y-155122648D01*
X51397668Y-155151493D01*
X51417896Y-155237060D01*
X51619303Y-155902053D01*
X51634642Y-155937330D01*
X51645504Y-155974236D01*
X51684873Y-156052855D01*
X52033859Y-156653679D01*
X52056903Y-156684483D01*
X52075964Y-156717900D01*
X52132364Y-156785353D01*
X52610209Y-157289777D01*
X52639717Y-157314449D01*
X52665957Y-157342589D01*
X52736362Y-157395258D01*
X53317435Y-157776226D01*
X53351833Y-157793451D01*
X53383838Y-157814796D01*
X53464471Y-157849856D01*
X54117599Y-158086930D01*
X54155034Y-158095779D01*
X54191094Y-158109190D01*
X54277627Y-158124759D01*
X54277630Y-158124760D01*
X54277631Y-158124760D01*
X54939458Y-158201921D01*
X54980074Y-158210000D01*
X57590000Y-158210000D01*
X57590001Y-194540000D01*
X43966720Y-194540000D01*
X44210414Y-194439059D01*
X44439059Y-194210414D01*
X44562800Y-193911676D01*
X44562800Y-193588324D01*
X44439059Y-193289586D01*
X44210414Y-193060941D01*
X43911676Y-192937200D01*
X43588324Y-192937200D01*
X43289586Y-193060941D01*
X43060941Y-193289586D01*
X42937200Y-193588324D01*
X42937200Y-193911676D01*
X43060941Y-194210414D01*
X43289586Y-194439059D01*
X43533280Y-194540000D01*
X21260000Y-194540000D01*
X21260000Y-191930074D01*
X21253799Y-191898898D01*
X21246668Y-191818990D01*
X38290000Y-191818990D01*
X38290000Y-192181010D01*
X38428539Y-192515474D01*
X38684526Y-192771461D01*
X39018990Y-192910000D01*
X39381010Y-192910000D01*
X39715474Y-192771461D01*
X39971461Y-192515474D01*
X40110000Y-192181010D01*
X40110000Y-192125050D01*
X46915000Y-192125050D01*
X46915000Y-192874950D01*
X47201974Y-193567767D01*
X47732233Y-194098026D01*
X48425050Y-194385000D01*
X49174950Y-194385000D01*
X49867767Y-194098026D01*
X50398026Y-193567767D01*
X50535079Y-193236890D01*
X51008524Y-193236890D01*
X51178355Y-193646924D01*
X51568642Y-194075183D01*
X52093108Y-194321486D01*
X52323000Y-194200819D01*
X52323000Y-193007000D01*
X52577000Y-193007000D01*
X52577000Y-194200819D01*
X52806892Y-194321486D01*
X53331358Y-194075183D01*
X53721645Y-193646924D01*
X53891476Y-193236890D01*
X53770155Y-193007000D01*
X52577000Y-193007000D01*
X52323000Y-193007000D01*
X51129845Y-193007000D01*
X51008524Y-193236890D01*
X50535079Y-193236890D01*
X50685000Y-192874950D01*
X50685000Y-192125050D01*
X50398026Y-191432233D01*
X49867767Y-190901974D01*
X49174950Y-190615000D01*
X48425050Y-190615000D01*
X47732233Y-190901974D01*
X47201974Y-191432233D01*
X46915000Y-192125050D01*
X40110000Y-192125050D01*
X40110000Y-191818990D01*
X39971461Y-191484526D01*
X39715474Y-191228539D01*
X39381010Y-191090000D01*
X39018990Y-191090000D01*
X38684526Y-191228539D01*
X38428539Y-191484526D01*
X38290000Y-191818990D01*
X21246668Y-191818990D01*
X21209776Y-191405631D01*
X21203894Y-191377353D01*
X21202332Y-191348507D01*
X21182104Y-191262940D01*
X20980697Y-190597947D01*
X20965357Y-190562668D01*
X20954496Y-190525764D01*
X20915127Y-190447145D01*
X20566141Y-189846321D01*
X20543097Y-189815518D01*
X20524036Y-189782100D01*
X20467636Y-189714646D01*
X19989791Y-189210223D01*
X19960280Y-189185548D01*
X19934043Y-189157412D01*
X19863638Y-189104742D01*
X19282566Y-188723774D01*
X19248164Y-188706547D01*
X19216162Y-188685204D01*
X19135537Y-188650147D01*
X19135530Y-188650144D01*
X19135527Y-188650143D01*
X18482401Y-188413070D01*
X18444966Y-188404221D01*
X18408906Y-188390810D01*
X18322370Y-188375240D01*
X17660542Y-188298079D01*
X17619926Y-188290000D01*
X15010000Y-188290000D01*
X15010000Y-186838324D01*
X18187200Y-186838324D01*
X18187200Y-187161676D01*
X18310941Y-187460414D01*
X18539586Y-187689059D01*
X18838324Y-187812800D01*
X19161676Y-187812800D01*
X19192578Y-187800000D01*
X50935908Y-187800000D01*
X51051161Y-188379418D01*
X51379375Y-188870625D01*
X51677761Y-189070000D01*
X51379375Y-189269375D01*
X51051161Y-189760582D01*
X50935908Y-190340000D01*
X51051161Y-190919418D01*
X51379375Y-191410625D01*
X51698478Y-191623843D01*
X51568642Y-191684817D01*
X51178355Y-192113076D01*
X51008524Y-192523110D01*
X51129845Y-192753000D01*
X52323000Y-192753000D01*
X52323000Y-192733000D01*
X52577000Y-192733000D01*
X52577000Y-192753000D01*
X53770155Y-192753000D01*
X53891476Y-192523110D01*
X53721645Y-192113076D01*
X53331358Y-191684817D01*
X53201522Y-191623843D01*
X53520625Y-191410625D01*
X53848839Y-190919418D01*
X53964092Y-190340000D01*
X53848839Y-189760582D01*
X53520625Y-189269375D01*
X53222239Y-189070000D01*
X53520625Y-188870625D01*
X53848839Y-188379418D01*
X53964092Y-187800000D01*
X53848839Y-187220582D01*
X53520625Y-186729375D01*
X53502381Y-186717184D01*
X53547765Y-186708157D01*
X53757809Y-186567809D01*
X53898157Y-186357765D01*
X53947440Y-186110000D01*
X53947440Y-184410000D01*
X53898157Y-184162235D01*
X53757809Y-183952191D01*
X53547765Y-183811843D01*
X53300000Y-183762560D01*
X51600000Y-183762560D01*
X51352235Y-183811843D01*
X51142191Y-183952191D01*
X51001843Y-184162235D01*
X50952560Y-184410000D01*
X50952560Y-186110000D01*
X51001843Y-186357765D01*
X51142191Y-186567809D01*
X51352235Y-186708157D01*
X51397619Y-186717184D01*
X51379375Y-186729375D01*
X51051161Y-187220582D01*
X50935908Y-187800000D01*
X19192578Y-187800000D01*
X19460414Y-187689059D01*
X19689059Y-187460414D01*
X19812800Y-187161676D01*
X19812800Y-186838324D01*
X19689059Y-186539586D01*
X19460414Y-186310941D01*
X19161676Y-186187200D01*
X18838324Y-186187200D01*
X18539586Y-186310941D01*
X18310941Y-186539586D01*
X18187200Y-186838324D01*
X15010000Y-186838324D01*
X15010000Y-186038324D01*
X20587200Y-186038324D01*
X20587200Y-186361676D01*
X20710941Y-186660414D01*
X20939586Y-186889059D01*
X21238324Y-187012800D01*
X21561676Y-187012800D01*
X21860414Y-186889059D01*
X22089059Y-186660414D01*
X22212800Y-186361676D01*
X22212800Y-186038324D01*
X22211754Y-186035798D01*
X23274500Y-186035798D01*
X23274500Y-186364202D01*
X23400174Y-186667608D01*
X23632392Y-186899826D01*
X23935798Y-187025500D01*
X24264202Y-187025500D01*
X24567608Y-186899826D01*
X24799826Y-186667608D01*
X24925500Y-186364202D01*
X24925500Y-186035798D01*
X24799826Y-185732392D01*
X24567608Y-185500174D01*
X24264202Y-185374500D01*
X23935798Y-185374500D01*
X23632392Y-185500174D01*
X23400174Y-185732392D01*
X23274500Y-186035798D01*
X22211754Y-186035798D01*
X22089059Y-185739586D01*
X21860414Y-185510941D01*
X21561676Y-185387200D01*
X21238324Y-185387200D01*
X20939586Y-185510941D01*
X20710941Y-185739586D01*
X20587200Y-186038324D01*
X15010000Y-186038324D01*
X15010000Y-180814927D01*
X15641662Y-180814927D01*
X15675523Y-181215301D01*
X15763596Y-181427928D01*
X15965863Y-181449532D01*
X16485395Y-180930000D01*
X16471253Y-180915858D01*
X16650858Y-180736253D01*
X16665000Y-180750395D01*
X16679143Y-180736253D01*
X16858748Y-180915858D01*
X16844605Y-180930000D01*
X16858748Y-180944143D01*
X16679143Y-181123748D01*
X16665000Y-181109605D01*
X16581117Y-181193488D01*
X16379699Y-181210523D01*
X16167072Y-181298596D01*
X16145468Y-181500863D01*
X16209605Y-181565000D01*
X16145468Y-181629137D01*
X16167072Y-181831404D01*
X16549927Y-181953338D01*
X16594199Y-181949594D01*
X16665000Y-182020395D01*
X16679143Y-182006253D01*
X16858748Y-182185858D01*
X16844605Y-182200000D01*
X16858748Y-182214143D01*
X16679143Y-182393748D01*
X16665000Y-182379605D01*
X16650858Y-182393748D01*
X16471253Y-182214143D01*
X16485395Y-182200000D01*
X15965863Y-181680468D01*
X15763596Y-181702072D01*
X15641662Y-182084927D01*
X15675523Y-182485301D01*
X15763596Y-182697928D01*
X15965860Y-182719532D01*
X15848786Y-182836606D01*
X15859412Y-182847232D01*
X15808763Y-182897881D01*
X15655000Y-183269099D01*
X15655000Y-183670901D01*
X15808763Y-184042119D01*
X15859412Y-184092768D01*
X15848786Y-184103394D01*
X15965860Y-184220468D01*
X15763596Y-184242072D01*
X15641662Y-184624927D01*
X15675523Y-185025301D01*
X15763596Y-185237928D01*
X15965863Y-185259532D01*
X16485395Y-184740000D01*
X16471253Y-184725858D01*
X16650858Y-184546253D01*
X16665000Y-184560395D01*
X16679143Y-184546253D01*
X16858748Y-184725858D01*
X16844605Y-184740000D01*
X16858748Y-184754143D01*
X16679143Y-184933748D01*
X16665000Y-184919605D01*
X16145468Y-185439137D01*
X16167072Y-185641404D01*
X16549927Y-185763338D01*
X16950301Y-185729477D01*
X17162928Y-185641404D01*
X17184532Y-185439140D01*
X17301606Y-185556214D01*
X17312232Y-185545588D01*
X17362881Y-185596237D01*
X17734099Y-185750000D01*
X18135901Y-185750000D01*
X18507119Y-185596237D01*
X18765032Y-185338324D01*
X30687200Y-185338324D01*
X30687200Y-185661676D01*
X30810941Y-185960414D01*
X31039586Y-186189059D01*
X31338324Y-186312800D01*
X31661676Y-186312800D01*
X31960414Y-186189059D01*
X32189059Y-185960414D01*
X32268537Y-185768537D01*
X32460414Y-185689059D01*
X32611149Y-185538324D01*
X32687200Y-185538324D01*
X32687200Y-185861676D01*
X32810941Y-186160414D01*
X33039586Y-186389059D01*
X33338324Y-186512800D01*
X33661676Y-186512800D01*
X33900000Y-186414083D01*
X34138324Y-186512800D01*
X34461676Y-186512800D01*
X34760414Y-186389059D01*
X34874500Y-186274973D01*
X34874500Y-186564202D01*
X35000174Y-186867608D01*
X35232392Y-187099826D01*
X35535798Y-187225500D01*
X35864202Y-187225500D01*
X36167608Y-187099826D01*
X36399826Y-186867608D01*
X36525500Y-186564202D01*
X36525500Y-186235798D01*
X36399826Y-185932392D01*
X36167608Y-185700174D01*
X35864202Y-185574500D01*
X35535798Y-185574500D01*
X35232392Y-185700174D01*
X35112800Y-185819766D01*
X35112800Y-185538324D01*
X34989059Y-185239586D01*
X34760414Y-185010941D01*
X34474798Y-184892636D01*
X34499826Y-184867608D01*
X34625500Y-184564202D01*
X34625500Y-184235798D01*
X34499826Y-183932392D01*
X34303232Y-183735798D01*
X36274500Y-183735798D01*
X36274500Y-184064202D01*
X36400174Y-184367608D01*
X36632392Y-184599826D01*
X36935798Y-184725500D01*
X37264202Y-184725500D01*
X37567608Y-184599826D01*
X37799826Y-184367608D01*
X37925500Y-184064202D01*
X37925500Y-183766067D01*
X38038324Y-183812800D01*
X38361676Y-183812800D01*
X38660414Y-183689059D01*
X38889059Y-183460414D01*
X39012800Y-183161676D01*
X39012800Y-183150203D01*
X39160414Y-183089059D01*
X39389059Y-182860414D01*
X39512800Y-182561676D01*
X39512800Y-182238324D01*
X39389059Y-181939586D01*
X39160414Y-181710941D01*
X38861676Y-181587200D01*
X38538324Y-181587200D01*
X38239586Y-181710941D01*
X38010941Y-181939586D01*
X37887200Y-182238324D01*
X37887200Y-182249797D01*
X37739586Y-182310941D01*
X37510941Y-182539586D01*
X37387200Y-182838324D01*
X37387200Y-183125447D01*
X37264202Y-183074500D01*
X36935798Y-183074500D01*
X36632392Y-183200174D01*
X36400174Y-183432392D01*
X36274500Y-183735798D01*
X34303232Y-183735798D01*
X34267608Y-183700174D01*
X33964202Y-183574500D01*
X33635798Y-183574500D01*
X33332392Y-183700174D01*
X33100174Y-183932392D01*
X32974500Y-184235798D01*
X32974500Y-184564202D01*
X33100174Y-184867608D01*
X33183780Y-184951214D01*
X33039586Y-185010941D01*
X32810941Y-185239586D01*
X32687200Y-185538324D01*
X32611149Y-185538324D01*
X32689059Y-185460414D01*
X32812800Y-185161676D01*
X32812800Y-184838324D01*
X32689059Y-184539586D01*
X32460414Y-184310941D01*
X32192578Y-184200000D01*
X32460414Y-184089059D01*
X32689059Y-183860414D01*
X32812800Y-183561676D01*
X32812800Y-183238324D01*
X32689059Y-182939586D01*
X32460414Y-182710941D01*
X32161676Y-182587200D01*
X31838324Y-182587200D01*
X31539586Y-182710941D01*
X31310941Y-182939586D01*
X31187200Y-183238324D01*
X31187200Y-183561676D01*
X31310941Y-183860414D01*
X31539586Y-184089059D01*
X31807422Y-184200000D01*
X31539586Y-184310941D01*
X31310941Y-184539586D01*
X31231463Y-184731463D01*
X31039586Y-184810941D01*
X30810941Y-185039586D01*
X30687200Y-185338324D01*
X18765032Y-185338324D01*
X18791237Y-185312119D01*
X18945000Y-184940901D01*
X18945000Y-184539099D01*
X18791237Y-184167881D01*
X18728356Y-184105000D01*
X18791237Y-184042119D01*
X18945000Y-183670901D01*
X18945000Y-183269099D01*
X18791237Y-182897881D01*
X18728356Y-182835000D01*
X18791237Y-182772119D01*
X18945000Y-182400901D01*
X18945000Y-182038324D01*
X21587200Y-182038324D01*
X21587200Y-182361676D01*
X21710941Y-182660414D01*
X21939586Y-182889059D01*
X22238324Y-183012800D01*
X22561676Y-183012800D01*
X22860414Y-182889059D01*
X23089059Y-182660414D01*
X23212800Y-182361676D01*
X23212800Y-182038324D01*
X23287200Y-182038324D01*
X23287200Y-182361676D01*
X23410941Y-182660414D01*
X23639586Y-182889059D01*
X23938324Y-183012800D01*
X24261676Y-183012800D01*
X24560414Y-182889059D01*
X24789059Y-182660414D01*
X24792397Y-182652355D01*
X24938324Y-182712800D01*
X25261676Y-182712800D01*
X25560414Y-182589059D01*
X25711149Y-182438324D01*
X28087200Y-182438324D01*
X28087200Y-182761676D01*
X28210941Y-183060414D01*
X28439586Y-183289059D01*
X28738324Y-183412800D01*
X29061676Y-183412800D01*
X29360414Y-183289059D01*
X29589059Y-183060414D01*
X29712800Y-182761676D01*
X29712800Y-182750203D01*
X29860414Y-182689059D01*
X30089059Y-182460414D01*
X30189247Y-182218537D01*
X30260414Y-182189059D01*
X30489059Y-181960414D01*
X30612800Y-181661676D01*
X30612800Y-181338324D01*
X30489059Y-181039586D01*
X30260414Y-180810941D01*
X30213289Y-180791421D01*
X30460414Y-180689059D01*
X30689059Y-180460414D01*
X30812800Y-180161676D01*
X30812800Y-179838324D01*
X30689059Y-179539586D01*
X30460414Y-179310941D01*
X30161676Y-179187200D01*
X29838324Y-179187200D01*
X29539586Y-179310941D01*
X29310941Y-179539586D01*
X29187200Y-179838324D01*
X29187200Y-180161676D01*
X29203711Y-180201537D01*
X28939586Y-180310941D01*
X28710941Y-180539586D01*
X28587200Y-180838324D01*
X28587200Y-181161676D01*
X28710941Y-181460414D01*
X28750527Y-181500000D01*
X28710941Y-181539586D01*
X28587200Y-181838324D01*
X28587200Y-181849797D01*
X28439586Y-181910941D01*
X28210941Y-182139586D01*
X28087200Y-182438324D01*
X25711149Y-182438324D01*
X25789059Y-182360414D01*
X25912800Y-182061676D01*
X25912800Y-181738324D01*
X25789059Y-181439586D01*
X25560414Y-181210941D01*
X25261676Y-181087200D01*
X24938324Y-181087200D01*
X24639586Y-181210941D01*
X24410941Y-181439586D01*
X24407603Y-181447645D01*
X24261676Y-181387200D01*
X23938324Y-181387200D01*
X23639586Y-181510941D01*
X23410941Y-181739586D01*
X23287200Y-182038324D01*
X23212800Y-182038324D01*
X23089059Y-181739586D01*
X22860414Y-181510941D01*
X22561676Y-181387200D01*
X22238324Y-181387200D01*
X21939586Y-181510941D01*
X21710941Y-181739586D01*
X21587200Y-182038324D01*
X18945000Y-182038324D01*
X18945000Y-181999099D01*
X18791237Y-181627881D01*
X18728356Y-181565000D01*
X18791237Y-181502119D01*
X18945000Y-181130901D01*
X18945000Y-180729099D01*
X18791237Y-180357881D01*
X18728356Y-180295000D01*
X18791237Y-180232119D01*
X18945000Y-179860901D01*
X18945000Y-179459099D01*
X18791237Y-179087881D01*
X18507119Y-178803763D01*
X18469846Y-178788324D01*
X37437200Y-178788324D01*
X37437200Y-179111676D01*
X37560941Y-179410414D01*
X37789586Y-179639059D01*
X38088324Y-179762800D01*
X38411676Y-179762800D01*
X38565464Y-179699099D01*
X54190000Y-179699099D01*
X54190000Y-180100901D01*
X54343763Y-180472119D01*
X54627881Y-180756237D01*
X54999099Y-180910000D01*
X55400901Y-180910000D01*
X55772119Y-180756237D01*
X56056237Y-180472119D01*
X56210000Y-180100901D01*
X56210000Y-179699099D01*
X56056237Y-179327881D01*
X55772119Y-179043763D01*
X55400901Y-178890000D01*
X54999099Y-178890000D01*
X54627881Y-179043763D01*
X54343763Y-179327881D01*
X54190000Y-179699099D01*
X38565464Y-179699099D01*
X38710414Y-179639059D01*
X38939059Y-179410414D01*
X39062800Y-179111676D01*
X39062800Y-178788324D01*
X38939059Y-178489586D01*
X38710414Y-178260941D01*
X38411676Y-178137200D01*
X38088324Y-178137200D01*
X37789586Y-178260941D01*
X37560941Y-178489586D01*
X37437200Y-178788324D01*
X18469846Y-178788324D01*
X18135901Y-178650000D01*
X17734099Y-178650000D01*
X17424530Y-178778227D01*
X17287765Y-178686843D01*
X17040000Y-178637560D01*
X16290000Y-178637560D01*
X16042235Y-178686843D01*
X15832191Y-178827191D01*
X15691843Y-179037235D01*
X15642560Y-179285000D01*
X15642560Y-180035000D01*
X15691843Y-180282765D01*
X15789742Y-180429279D01*
X15763596Y-180432072D01*
X15641662Y-180814927D01*
X15010000Y-180814927D01*
X15010000Y-177238324D01*
X21187200Y-177238324D01*
X21187200Y-177561676D01*
X21310941Y-177860414D01*
X21539586Y-178089059D01*
X21838324Y-178212800D01*
X22161676Y-178212800D01*
X22460414Y-178089059D01*
X22689059Y-177860414D01*
X22812800Y-177561676D01*
X22812800Y-177238324D01*
X22729958Y-177038324D01*
X50787200Y-177038324D01*
X50787200Y-177361676D01*
X50910941Y-177660414D01*
X51139586Y-177889059D01*
X51438324Y-178012800D01*
X51761676Y-178012800D01*
X52060414Y-177889059D01*
X52289059Y-177660414D01*
X52412800Y-177361676D01*
X52412800Y-177038324D01*
X52289059Y-176739586D01*
X52060414Y-176510941D01*
X51761676Y-176387200D01*
X51438324Y-176387200D01*
X51139586Y-176510941D01*
X50910941Y-176739586D01*
X50787200Y-177038324D01*
X22729958Y-177038324D01*
X22689059Y-176939586D01*
X22460414Y-176710941D01*
X22161676Y-176587200D01*
X21838324Y-176587200D01*
X21539586Y-176710941D01*
X21310941Y-176939586D01*
X21187200Y-177238324D01*
X15010000Y-177238324D01*
X15010000Y-175668434D01*
X15279343Y-175780000D01*
X15770657Y-175780000D01*
X16224571Y-175591982D01*
X16571982Y-175244571D01*
X16760000Y-174790657D01*
X16760000Y-174299343D01*
X16571982Y-173845429D01*
X16224571Y-173498018D01*
X15770657Y-173310000D01*
X15279343Y-173310000D01*
X15010000Y-173421566D01*
X15010000Y-172764126D01*
X16790000Y-172764126D01*
X16790000Y-173175874D01*
X16947569Y-173556280D01*
X17238720Y-173847431D01*
X17619126Y-174005000D01*
X17861921Y-174005000D01*
X17740000Y-174299343D01*
X17740000Y-174790657D01*
X17928018Y-175244571D01*
X18275429Y-175591982D01*
X18729343Y-175780000D01*
X19220657Y-175780000D01*
X19674571Y-175591982D01*
X20021982Y-175244571D01*
X20210000Y-174790657D01*
X20210000Y-174538324D01*
X26587200Y-174538324D01*
X26587200Y-174861676D01*
X26710941Y-175160414D01*
X26900527Y-175350000D01*
X26860941Y-175389586D01*
X26737200Y-175688324D01*
X26737200Y-176011676D01*
X26860941Y-176310414D01*
X27089586Y-176539059D01*
X27388324Y-176662800D01*
X27711676Y-176662800D01*
X28010414Y-176539059D01*
X28239059Y-176310414D01*
X28362800Y-176011676D01*
X28362800Y-175688324D01*
X28239059Y-175389586D01*
X28049473Y-175200000D01*
X28089059Y-175160414D01*
X28212800Y-174861676D01*
X28212800Y-174538324D01*
X28089059Y-174239586D01*
X27860414Y-174010941D01*
X27561676Y-173887200D01*
X27238324Y-173887200D01*
X26939586Y-174010941D01*
X26710941Y-174239586D01*
X26587200Y-174538324D01*
X20210000Y-174538324D01*
X20210000Y-174299343D01*
X20021982Y-173845429D01*
X19674571Y-173498018D01*
X19220657Y-173310000D01*
X18804443Y-173310000D01*
X18860000Y-173175874D01*
X18860000Y-173118990D01*
X23590000Y-173118990D01*
X23590000Y-173481010D01*
X23728539Y-173815474D01*
X23984526Y-174071461D01*
X24318990Y-174210000D01*
X24681010Y-174210000D01*
X25015474Y-174071461D01*
X25248611Y-173838324D01*
X31187200Y-173838324D01*
X31187200Y-174161676D01*
X31310941Y-174460414D01*
X31539586Y-174689059D01*
X31838324Y-174812800D01*
X32161676Y-174812800D01*
X32460414Y-174689059D01*
X32689059Y-174460414D01*
X32768537Y-174268537D01*
X32960414Y-174189059D01*
X33111149Y-174038324D01*
X51187200Y-174038324D01*
X51187200Y-174361676D01*
X51310941Y-174660414D01*
X51539586Y-174889059D01*
X51838324Y-175012800D01*
X52161676Y-175012800D01*
X52460414Y-174889059D01*
X52689059Y-174660414D01*
X52763108Y-174481644D01*
X52838324Y-174512800D01*
X53161676Y-174512800D01*
X53460414Y-174389059D01*
X53689059Y-174160414D01*
X53812800Y-173861676D01*
X53812800Y-173538324D01*
X53689059Y-173239586D01*
X53460414Y-173010941D01*
X53161676Y-172887200D01*
X52838324Y-172887200D01*
X52539586Y-173010941D01*
X52310941Y-173239586D01*
X52236892Y-173418356D01*
X52161676Y-173387200D01*
X51838324Y-173387200D01*
X51539586Y-173510941D01*
X51310941Y-173739586D01*
X51187200Y-174038324D01*
X33111149Y-174038324D01*
X33189059Y-173960414D01*
X33312800Y-173661676D01*
X33312800Y-173338324D01*
X33189059Y-173039586D01*
X32960414Y-172810941D01*
X32661676Y-172687200D01*
X32338324Y-172687200D01*
X32039586Y-172810941D01*
X31810941Y-173039586D01*
X31731463Y-173231463D01*
X31539586Y-173310941D01*
X31310941Y-173539586D01*
X31187200Y-173838324D01*
X25248611Y-173838324D01*
X25271461Y-173815474D01*
X25410000Y-173481010D01*
X25410000Y-173118990D01*
X25271461Y-172784526D01*
X25015474Y-172528539D01*
X24681010Y-172390000D01*
X24318990Y-172390000D01*
X23984526Y-172528539D01*
X23728539Y-172784526D01*
X23590000Y-173118990D01*
X18860000Y-173118990D01*
X18860000Y-172764126D01*
X18702431Y-172383720D01*
X18411280Y-172092569D01*
X18030874Y-171935000D01*
X17619126Y-171935000D01*
X17238720Y-172092569D01*
X16947569Y-172383720D01*
X16790000Y-172764126D01*
X15010000Y-172764126D01*
X15010000Y-170838324D01*
X35287200Y-170838324D01*
X35287200Y-171161676D01*
X35410941Y-171460414D01*
X35639586Y-171689059D01*
X35938324Y-171812800D01*
X36261676Y-171812800D01*
X36560414Y-171689059D01*
X36789059Y-171460414D01*
X36912800Y-171161676D01*
X36912800Y-170838324D01*
X36789059Y-170539586D01*
X36560414Y-170310941D01*
X36261676Y-170187200D01*
X35938324Y-170187200D01*
X35639586Y-170310941D01*
X35410941Y-170539586D01*
X35287200Y-170838324D01*
X15010000Y-170838324D01*
X15010000Y-170138324D01*
X40187200Y-170138324D01*
X40187200Y-170461676D01*
X40310941Y-170760414D01*
X40539586Y-170989059D01*
X40838324Y-171112800D01*
X41161676Y-171112800D01*
X41460414Y-170989059D01*
X41689059Y-170760414D01*
X41812800Y-170461676D01*
X41812800Y-170138324D01*
X41689059Y-169839586D01*
X41460414Y-169610941D01*
X41161676Y-169487200D01*
X40838324Y-169487200D01*
X40539586Y-169610941D01*
X40310941Y-169839586D01*
X40187200Y-170138324D01*
X15010000Y-170138324D01*
X15010000Y-168764126D01*
X16790000Y-168764126D01*
X16790000Y-169175874D01*
X16947569Y-169556280D01*
X17238720Y-169847431D01*
X17619126Y-170005000D01*
X18030874Y-170005000D01*
X18411280Y-169847431D01*
X18702431Y-169556280D01*
X18860000Y-169175874D01*
X18860000Y-168764126D01*
X18807891Y-168638324D01*
X21887200Y-168638324D01*
X21887200Y-168961676D01*
X22010941Y-169260414D01*
X22239586Y-169489059D01*
X22538324Y-169612800D01*
X22825865Y-169612800D01*
X22984526Y-169771461D01*
X23318990Y-169910000D01*
X23681010Y-169910000D01*
X24015474Y-169771461D01*
X24271461Y-169515474D01*
X24410000Y-169181010D01*
X24410000Y-169135798D01*
X42474500Y-169135798D01*
X42474500Y-169464202D01*
X42600174Y-169767608D01*
X42832392Y-169999826D01*
X43038336Y-170085130D01*
X43110941Y-170260414D01*
X43339586Y-170489059D01*
X43638324Y-170612800D01*
X43961676Y-170612800D01*
X44260414Y-170489059D01*
X44489059Y-170260414D01*
X44612800Y-169961676D01*
X44612800Y-169638324D01*
X44489059Y-169339586D01*
X44260414Y-169110941D01*
X44085130Y-169038336D01*
X43999826Y-168832392D01*
X43767608Y-168600174D01*
X43464202Y-168474500D01*
X43135798Y-168474500D01*
X42832392Y-168600174D01*
X42600174Y-168832392D01*
X42474500Y-169135798D01*
X24410000Y-169135798D01*
X24410000Y-168818990D01*
X24271461Y-168484526D01*
X24015474Y-168228539D01*
X23681010Y-168090000D01*
X23318990Y-168090000D01*
X23192052Y-168142579D01*
X23160414Y-168110941D01*
X22861676Y-167987200D01*
X22538324Y-167987200D01*
X22239586Y-168110941D01*
X22010941Y-168339586D01*
X21887200Y-168638324D01*
X18807891Y-168638324D01*
X18804443Y-168630000D01*
X19220657Y-168630000D01*
X19674571Y-168441982D01*
X20021982Y-168094571D01*
X20210000Y-167640657D01*
X20210000Y-167149343D01*
X20021982Y-166695429D01*
X19674571Y-166348018D01*
X19220657Y-166160000D01*
X18729343Y-166160000D01*
X18275429Y-166348018D01*
X17928018Y-166695429D01*
X17740000Y-167149343D01*
X17740000Y-167640657D01*
X17861921Y-167935000D01*
X17619126Y-167935000D01*
X17238720Y-168092569D01*
X16947569Y-168383720D01*
X16790000Y-168764126D01*
X15010000Y-168764126D01*
X15010000Y-168518434D01*
X15279343Y-168630000D01*
X15770657Y-168630000D01*
X16224571Y-168441982D01*
X16571982Y-168094571D01*
X16760000Y-167640657D01*
X16760000Y-167149343D01*
X16571982Y-166695429D01*
X16224571Y-166348018D01*
X15770657Y-166160000D01*
X15279343Y-166160000D01*
X15010000Y-166271566D01*
X15010000Y-165018990D01*
X19890000Y-165018990D01*
X19890000Y-165381010D01*
X20028539Y-165715474D01*
X20284526Y-165971461D01*
X20618990Y-166110000D01*
X20981010Y-166110000D01*
X21033340Y-166088324D01*
X37437200Y-166088324D01*
X37437200Y-166411676D01*
X37560941Y-166710414D01*
X37789586Y-166939059D01*
X38088324Y-167062800D01*
X38411676Y-167062800D01*
X38710414Y-166939059D01*
X38939059Y-166710414D01*
X39062800Y-166411676D01*
X39062800Y-166088324D01*
X41937200Y-166088324D01*
X41937200Y-166411676D01*
X42060941Y-166710414D01*
X42289586Y-166939059D01*
X42588324Y-167062800D01*
X42911676Y-167062800D01*
X43210414Y-166939059D01*
X43415522Y-166733951D01*
X43450174Y-166817608D01*
X43682392Y-167049826D01*
X43985798Y-167175500D01*
X44314202Y-167175500D01*
X44617608Y-167049826D01*
X44849826Y-166817608D01*
X44975500Y-166514202D01*
X44975500Y-166185798D01*
X47824500Y-166185798D01*
X47824500Y-166514202D01*
X47950174Y-166817608D01*
X48182392Y-167049826D01*
X48485798Y-167175500D01*
X48814202Y-167175500D01*
X49117608Y-167049826D01*
X49349826Y-166817608D01*
X49475500Y-166514202D01*
X49475500Y-166420820D01*
X49767608Y-166299826D01*
X49999826Y-166067608D01*
X50125500Y-165764202D01*
X50125500Y-165435798D01*
X49999826Y-165132392D01*
X49767608Y-164900174D01*
X49464202Y-164774500D01*
X49135798Y-164774500D01*
X48832392Y-164900174D01*
X48600174Y-165132392D01*
X48474500Y-165435798D01*
X48474500Y-165529180D01*
X48182392Y-165650174D01*
X47950174Y-165882392D01*
X47824500Y-166185798D01*
X44975500Y-166185798D01*
X44849826Y-165882392D01*
X44617608Y-165650174D01*
X44314202Y-165524500D01*
X43985798Y-165524500D01*
X43682392Y-165650174D01*
X43469497Y-165863069D01*
X43439059Y-165789586D01*
X43274973Y-165625500D01*
X43564202Y-165625500D01*
X43867608Y-165499826D01*
X44099826Y-165267608D01*
X44153377Y-165138324D01*
X46187200Y-165138324D01*
X46187200Y-165461676D01*
X46310941Y-165760414D01*
X46539586Y-165989059D01*
X46838324Y-166112800D01*
X47161676Y-166112800D01*
X47460414Y-165989059D01*
X47689059Y-165760414D01*
X47812800Y-165461676D01*
X47812800Y-165138324D01*
X47689059Y-164839586D01*
X47460414Y-164610941D01*
X47161676Y-164487200D01*
X46838324Y-164487200D01*
X46539586Y-164610941D01*
X46310941Y-164839586D01*
X46187200Y-165138324D01*
X44153377Y-165138324D01*
X44158689Y-165125500D01*
X44264202Y-165125500D01*
X44567608Y-164999826D01*
X44799826Y-164767608D01*
X44925500Y-164464202D01*
X44925500Y-164135798D01*
X44801237Y-163835798D01*
X47974500Y-163835798D01*
X47974500Y-164164202D01*
X48100174Y-164467608D01*
X48332392Y-164699826D01*
X48635798Y-164825500D01*
X48964202Y-164825500D01*
X49267608Y-164699826D01*
X49499826Y-164467608D01*
X49625500Y-164164202D01*
X49625500Y-163835798D01*
X49499826Y-163532392D01*
X49267608Y-163300174D01*
X48964202Y-163174500D01*
X48635798Y-163174500D01*
X48332392Y-163300174D01*
X48100174Y-163532392D01*
X47974500Y-163835798D01*
X44801237Y-163835798D01*
X44799826Y-163832392D01*
X44567608Y-163600174D01*
X44264202Y-163474500D01*
X43935798Y-163474500D01*
X43632392Y-163600174D01*
X43400174Y-163832392D01*
X43341311Y-163974500D01*
X43235798Y-163974500D01*
X42932392Y-164100174D01*
X42700174Y-164332392D01*
X42574500Y-164635798D01*
X42574500Y-164964202D01*
X42700174Y-165267608D01*
X42869766Y-165437200D01*
X42588324Y-165437200D01*
X42289586Y-165560941D01*
X42060941Y-165789586D01*
X41937200Y-166088324D01*
X39062800Y-166088324D01*
X38939059Y-165789586D01*
X38710414Y-165560941D01*
X38411676Y-165437200D01*
X38088324Y-165437200D01*
X37789586Y-165560941D01*
X37560941Y-165789586D01*
X37437200Y-166088324D01*
X21033340Y-166088324D01*
X21315474Y-165971461D01*
X21571461Y-165715474D01*
X21710000Y-165381010D01*
X21710000Y-165018990D01*
X21571461Y-164684526D01*
X21315474Y-164428539D01*
X20981010Y-164290000D01*
X20618990Y-164290000D01*
X20284526Y-164428539D01*
X20028539Y-164684526D01*
X19890000Y-165018990D01*
X15010000Y-165018990D01*
X15010000Y-160435798D01*
X34274500Y-160435798D01*
X34274500Y-160764202D01*
X34400174Y-161067608D01*
X34632392Y-161299826D01*
X34935798Y-161425500D01*
X35264202Y-161425500D01*
X35567608Y-161299826D01*
X35779110Y-161088324D01*
X37437200Y-161088324D01*
X37437200Y-161411676D01*
X37560941Y-161710414D01*
X37789586Y-161939059D01*
X38088324Y-162062800D01*
X38411676Y-162062800D01*
X38710414Y-161939059D01*
X38939059Y-161710414D01*
X39062800Y-161411676D01*
X39062800Y-161088324D01*
X39042090Y-161038324D01*
X41687200Y-161038324D01*
X41687200Y-161361676D01*
X41810941Y-161660414D01*
X42039586Y-161889059D01*
X42338324Y-162012800D01*
X42661676Y-162012800D01*
X42960414Y-161889059D01*
X43189059Y-161660414D01*
X43312800Y-161361676D01*
X43312800Y-161088324D01*
X43337200Y-161088324D01*
X43337200Y-161411676D01*
X43460941Y-161710414D01*
X43689586Y-161939059D01*
X43988324Y-162062800D01*
X44311676Y-162062800D01*
X44610414Y-161939059D01*
X44839059Y-161710414D01*
X44962800Y-161411676D01*
X44962800Y-161088324D01*
X44942090Y-161038324D01*
X47587200Y-161038324D01*
X47587200Y-161361676D01*
X47710941Y-161660414D01*
X47939586Y-161889059D01*
X48238324Y-162012800D01*
X48561676Y-162012800D01*
X48860414Y-161889059D01*
X49089059Y-161660414D01*
X49212800Y-161361676D01*
X49212800Y-161259099D01*
X53955000Y-161259099D01*
X53955000Y-161660901D01*
X54108763Y-162032119D01*
X54171644Y-162095000D01*
X54108763Y-162157881D01*
X53955000Y-162529099D01*
X53955000Y-162930901D01*
X54108763Y-163302119D01*
X54171644Y-163365000D01*
X54108763Y-163427881D01*
X53955000Y-163799099D01*
X53955000Y-164200901D01*
X54108763Y-164572119D01*
X54171644Y-164635000D01*
X54108763Y-164697881D01*
X53955000Y-165069099D01*
X53955000Y-165470901D01*
X54108763Y-165842119D01*
X54171644Y-165905000D01*
X54108763Y-165967881D01*
X53955000Y-166339099D01*
X53955000Y-166740901D01*
X54108763Y-167112119D01*
X54392881Y-167396237D01*
X54764099Y-167550000D01*
X55165901Y-167550000D01*
X55475470Y-167421773D01*
X55612235Y-167513157D01*
X55860000Y-167562440D01*
X56610000Y-167562440D01*
X56857765Y-167513157D01*
X57067809Y-167372809D01*
X57208157Y-167162765D01*
X57257440Y-166915000D01*
X57257440Y-166165000D01*
X57208157Y-165917235D01*
X57110258Y-165770721D01*
X57136404Y-165767928D01*
X57258338Y-165385073D01*
X57224477Y-164984699D01*
X57136404Y-164772072D01*
X56934137Y-164750468D01*
X56414605Y-165270000D01*
X56428748Y-165284143D01*
X56249143Y-165463748D01*
X56235000Y-165449605D01*
X56220858Y-165463748D01*
X56041253Y-165284143D01*
X56055395Y-165270000D01*
X56041253Y-165255858D01*
X56220858Y-165076253D01*
X56235000Y-165090395D01*
X56318883Y-165006512D01*
X56520301Y-164989477D01*
X56732928Y-164901404D01*
X56754532Y-164699137D01*
X56690395Y-164635000D01*
X56754532Y-164570863D01*
X56732928Y-164368596D01*
X56350073Y-164246662D01*
X56305801Y-164250406D01*
X56235000Y-164179605D01*
X56220858Y-164193748D01*
X56041253Y-164014143D01*
X56055395Y-164000000D01*
X56041253Y-163985858D01*
X56220858Y-163806253D01*
X56235000Y-163820395D01*
X56249143Y-163806253D01*
X56428748Y-163985858D01*
X56414605Y-164000000D01*
X56934137Y-164519532D01*
X57136404Y-164497928D01*
X57258338Y-164115073D01*
X57224477Y-163714699D01*
X57136404Y-163502072D01*
X56934140Y-163480468D01*
X57051214Y-163363394D01*
X57040588Y-163352768D01*
X57091237Y-163302119D01*
X57245000Y-162930901D01*
X57245000Y-162529099D01*
X57091237Y-162157881D01*
X57040588Y-162107232D01*
X57051214Y-162096606D01*
X56934140Y-161979532D01*
X57136404Y-161957928D01*
X57258338Y-161575073D01*
X57224477Y-161174699D01*
X57136404Y-160962072D01*
X56934137Y-160940468D01*
X56414605Y-161460000D01*
X56428748Y-161474143D01*
X56249143Y-161653748D01*
X56235000Y-161639605D01*
X56220858Y-161653748D01*
X56041253Y-161474143D01*
X56055395Y-161460000D01*
X56041253Y-161445858D01*
X56220858Y-161266253D01*
X56235000Y-161280395D01*
X56754532Y-160760863D01*
X56732928Y-160558596D01*
X56350073Y-160436662D01*
X55949699Y-160470523D01*
X55737072Y-160558596D01*
X55715468Y-160760860D01*
X55598394Y-160643786D01*
X55587768Y-160654412D01*
X55537119Y-160603763D01*
X55165901Y-160450000D01*
X54764099Y-160450000D01*
X54392881Y-160603763D01*
X54108763Y-160887881D01*
X53955000Y-161259099D01*
X49212800Y-161259099D01*
X49212800Y-161038324D01*
X49089059Y-160739586D01*
X48860414Y-160510941D01*
X48561676Y-160387200D01*
X48238324Y-160387200D01*
X47939586Y-160510941D01*
X47710941Y-160739586D01*
X47587200Y-161038324D01*
X44942090Y-161038324D01*
X44839059Y-160789586D01*
X44610414Y-160560941D01*
X44311676Y-160437200D01*
X43988324Y-160437200D01*
X43689586Y-160560941D01*
X43460941Y-160789586D01*
X43337200Y-161088324D01*
X43312800Y-161088324D01*
X43312800Y-161038324D01*
X43189059Y-160739586D01*
X42960414Y-160510941D01*
X42661676Y-160387200D01*
X42338324Y-160387200D01*
X42039586Y-160510941D01*
X41810941Y-160739586D01*
X41687200Y-161038324D01*
X39042090Y-161038324D01*
X38939059Y-160789586D01*
X38710414Y-160560941D01*
X38411676Y-160437200D01*
X38088324Y-160437200D01*
X37789586Y-160560941D01*
X37560941Y-160789586D01*
X37437200Y-161088324D01*
X35779110Y-161088324D01*
X35799826Y-161067608D01*
X35925500Y-160764202D01*
X35925500Y-160435798D01*
X35799826Y-160132392D01*
X35567608Y-159900174D01*
X35264202Y-159774500D01*
X34935798Y-159774500D01*
X34632392Y-159900174D01*
X34400174Y-160132392D01*
X34274500Y-160435798D01*
X15010000Y-160435798D01*
X15010000Y-159535798D01*
X35974500Y-159535798D01*
X35974500Y-159864202D01*
X36100174Y-160167608D01*
X36332392Y-160399826D01*
X36635798Y-160525500D01*
X36964202Y-160525500D01*
X37267608Y-160399826D01*
X37499826Y-160167608D01*
X37625500Y-159864202D01*
X37625500Y-159535798D01*
X37499826Y-159232392D01*
X37267608Y-159000174D01*
X36964202Y-158874500D01*
X36635798Y-158874500D01*
X36332392Y-159000174D01*
X36100174Y-159232392D01*
X35974500Y-159535798D01*
X15010000Y-159535798D01*
X15010000Y-157599099D01*
X23290000Y-157599099D01*
X23290000Y-158000901D01*
X23443763Y-158372119D01*
X23727881Y-158656237D01*
X24099099Y-158810000D01*
X24500901Y-158810000D01*
X24872119Y-158656237D01*
X25156237Y-158372119D01*
X25310000Y-158000901D01*
X25310000Y-157599099D01*
X25156237Y-157227881D01*
X24872119Y-156943763D01*
X24500901Y-156790000D01*
X24099099Y-156790000D01*
X23727881Y-156943763D01*
X23443763Y-157227881D01*
X23290000Y-157599099D01*
X15010000Y-157599099D01*
X15010000Y-153625050D01*
X21915000Y-153625050D01*
X21915000Y-154374950D01*
X22201974Y-155067767D01*
X22732233Y-155598026D01*
X23425050Y-155885000D01*
X24174950Y-155885000D01*
X24867767Y-155598026D01*
X25398026Y-155067767D01*
X25685000Y-154374950D01*
X25685000Y-154038324D01*
X26187200Y-154038324D01*
X26187200Y-154361676D01*
X26310941Y-154660414D01*
X26539586Y-154889059D01*
X26807422Y-155000000D01*
X26539586Y-155110941D01*
X26310941Y-155339586D01*
X26187200Y-155638324D01*
X26187200Y-155961676D01*
X26310941Y-156260414D01*
X26539586Y-156489059D01*
X26807422Y-156600000D01*
X26539586Y-156710941D01*
X26310941Y-156939586D01*
X26187200Y-157238324D01*
X26187200Y-157561676D01*
X26310941Y-157860414D01*
X26539586Y-158089059D01*
X26838324Y-158212800D01*
X27161676Y-158212800D01*
X27460414Y-158089059D01*
X27511149Y-158038324D01*
X43687200Y-158038324D01*
X43687200Y-158361676D01*
X43810941Y-158660414D01*
X44039586Y-158889059D01*
X44338324Y-159012800D01*
X44661676Y-159012800D01*
X44960414Y-158889059D01*
X45189059Y-158660414D01*
X45312800Y-158361676D01*
X45312800Y-158038324D01*
X45189059Y-157739586D01*
X44960414Y-157510941D01*
X44661676Y-157387200D01*
X44338324Y-157387200D01*
X44039586Y-157510941D01*
X43810941Y-157739586D01*
X43687200Y-158038324D01*
X27511149Y-158038324D01*
X27689059Y-157860414D01*
X27812800Y-157561676D01*
X27812800Y-157238324D01*
X27689059Y-156939586D01*
X27460414Y-156710941D01*
X27192578Y-156600000D01*
X27460414Y-156489059D01*
X27689059Y-156260414D01*
X27812800Y-155961676D01*
X27812800Y-155638324D01*
X27689059Y-155339586D01*
X27460414Y-155110941D01*
X27192578Y-155000000D01*
X27460414Y-154889059D01*
X27689059Y-154660414D01*
X27812800Y-154361676D01*
X27812800Y-154038324D01*
X27689059Y-153739586D01*
X27460414Y-153510941D01*
X27161676Y-153387200D01*
X26838324Y-153387200D01*
X26539586Y-153510941D01*
X26310941Y-153739586D01*
X26187200Y-154038324D01*
X25685000Y-154038324D01*
X25685000Y-153625050D01*
X25558955Y-153320750D01*
X32755000Y-153320750D01*
X32755000Y-154061309D01*
X32851673Y-154294698D01*
X33030301Y-154473327D01*
X33165044Y-154529139D01*
X32988690Y-154705493D01*
X32755000Y-155269670D01*
X32755000Y-155880330D01*
X32988690Y-156444507D01*
X33420493Y-156876310D01*
X33984670Y-157110000D01*
X34595330Y-157110000D01*
X35159507Y-156876310D01*
X35591310Y-156444507D01*
X35825000Y-155880330D01*
X35825000Y-155269670D01*
X35591310Y-154705493D01*
X35414956Y-154529139D01*
X35549699Y-154473327D01*
X35728327Y-154294698D01*
X35825000Y-154061309D01*
X35825000Y-153320750D01*
X37835000Y-153320750D01*
X37835000Y-154061309D01*
X37931673Y-154294698D01*
X38110301Y-154473327D01*
X38245044Y-154529139D01*
X38068690Y-154705493D01*
X37835000Y-155269670D01*
X37835000Y-155880330D01*
X38068690Y-156444507D01*
X38500493Y-156876310D01*
X39064670Y-157110000D01*
X39675330Y-157110000D01*
X40239507Y-156876310D01*
X40671310Y-156444507D01*
X40905000Y-155880330D01*
X40905000Y-155269670D01*
X40671310Y-154705493D01*
X40494956Y-154529139D01*
X40629699Y-154473327D01*
X40808327Y-154294698D01*
X40905000Y-154061309D01*
X40905000Y-153320750D01*
X42915000Y-153320750D01*
X42915000Y-154061309D01*
X43011673Y-154294698D01*
X43190301Y-154473327D01*
X43325044Y-154529139D01*
X43148690Y-154705493D01*
X42915000Y-155269670D01*
X42915000Y-155880330D01*
X43148690Y-156444507D01*
X43580493Y-156876310D01*
X44144670Y-157110000D01*
X44755330Y-157110000D01*
X45319507Y-156876310D01*
X45751310Y-156444507D01*
X45985000Y-155880330D01*
X45985000Y-155269670D01*
X45751310Y-154705493D01*
X45574956Y-154529139D01*
X45709699Y-154473327D01*
X45888327Y-154294698D01*
X45985000Y-154061309D01*
X45985000Y-153320750D01*
X47995000Y-153320750D01*
X47995000Y-154061309D01*
X48091673Y-154294698D01*
X48270301Y-154473327D01*
X48405044Y-154529139D01*
X48228690Y-154705493D01*
X47995000Y-155269670D01*
X47995000Y-155880330D01*
X48228690Y-156444507D01*
X48660493Y-156876310D01*
X48741843Y-156910006D01*
X48739586Y-156910941D01*
X48510941Y-157139586D01*
X48387200Y-157438324D01*
X48387200Y-157761676D01*
X48510941Y-158060414D01*
X48739586Y-158289059D01*
X49038324Y-158412800D01*
X49361676Y-158412800D01*
X49660414Y-158289059D01*
X49889059Y-158060414D01*
X50012800Y-157761676D01*
X50012800Y-157438324D01*
X49889059Y-157139586D01*
X49852402Y-157102929D01*
X50399507Y-156876310D01*
X50831310Y-156444507D01*
X51065000Y-155880330D01*
X51065000Y-155269670D01*
X50831310Y-154705493D01*
X50654956Y-154529139D01*
X50789699Y-154473327D01*
X50968327Y-154294698D01*
X51065000Y-154061309D01*
X51065000Y-153320750D01*
X50906250Y-153162000D01*
X49657000Y-153162000D01*
X49657000Y-153182000D01*
X49403000Y-153182000D01*
X49403000Y-153162000D01*
X48153750Y-153162000D01*
X47995000Y-153320750D01*
X45985000Y-153320750D01*
X45826250Y-153162000D01*
X44577000Y-153162000D01*
X44577000Y-153182000D01*
X44323000Y-153182000D01*
X44323000Y-153162000D01*
X43073750Y-153162000D01*
X42915000Y-153320750D01*
X40905000Y-153320750D01*
X40746250Y-153162000D01*
X39497000Y-153162000D01*
X39497000Y-153182000D01*
X39243000Y-153182000D01*
X39243000Y-153162000D01*
X37993750Y-153162000D01*
X37835000Y-153320750D01*
X35825000Y-153320750D01*
X35666250Y-153162000D01*
X34417000Y-153162000D01*
X34417000Y-153182000D01*
X34163000Y-153182000D01*
X34163000Y-153162000D01*
X32913750Y-153162000D01*
X32755000Y-153320750D01*
X25558955Y-153320750D01*
X25398026Y-152932233D01*
X24867767Y-152401974D01*
X24174950Y-152115000D01*
X23425050Y-152115000D01*
X22732233Y-152401974D01*
X22201974Y-152932233D01*
X21915000Y-153625050D01*
X15010000Y-153625050D01*
X15010000Y-151960000D01*
X32775168Y-151960000D01*
X32755000Y-152008691D01*
X32755000Y-152008691D01*
G37*
X32755000Y-152008691D02*
X32755000Y-152749250D01*
X32913750Y-152908000D01*
X34163000Y-152908000D01*
X34163000Y-152888000D01*
X34417000Y-152888000D01*
X34417000Y-152908000D01*
X35666250Y-152908000D01*
X35825000Y-152749250D01*
X35825000Y-152008691D01*
X35804832Y-151960000D01*
X37855168Y-151960000D01*
X37835000Y-152008691D01*
X37835000Y-152749250D01*
X37993750Y-152908000D01*
X39243000Y-152908000D01*
X39243000Y-152888000D01*
X39497000Y-152888000D01*
X39497000Y-152908000D01*
X40746250Y-152908000D01*
X40905000Y-152749250D01*
X40905000Y-152008691D01*
X40884832Y-151960000D01*
X42935168Y-151960000D01*
X42915000Y-152008691D01*
X42915000Y-152749250D01*
X43073750Y-152908000D01*
X44323000Y-152908000D01*
X44323000Y-152888000D01*
X44577000Y-152888000D01*
X44577000Y-152908000D01*
X45826250Y-152908000D01*
X45985000Y-152749250D01*
X45985000Y-152008691D01*
X45964832Y-151960000D01*
X48015168Y-151960000D01*
X47995000Y-152008691D01*
X47995000Y-152749250D01*
X48153750Y-152908000D01*
X49403000Y-152908000D01*
X49403000Y-152888000D01*
X49657000Y-152888000D01*
X49657000Y-152908000D01*
X50906250Y-152908000D01*
X51065000Y-152749250D01*
X51065000Y-152008691D01*
X51044832Y-151960000D01*
X51340000Y-151960000D01*
X51340001Y-154569926D01*
X51346200Y-154601093D01*
X51390224Y-155094369D01*
X51396106Y-155122648D01*
X51397668Y-155151493D01*
X51417896Y-155237060D01*
X51619303Y-155902053D01*
X51634642Y-155937330D01*
X51645504Y-155974236D01*
X51684873Y-156052855D01*
X52033859Y-156653679D01*
X52056903Y-156684483D01*
X52075964Y-156717900D01*
X52132364Y-156785353D01*
X52610209Y-157289777D01*
X52639717Y-157314449D01*
X52665957Y-157342589D01*
X52736362Y-157395258D01*
X53317435Y-157776226D01*
X53351833Y-157793451D01*
X53383838Y-157814796D01*
X53464471Y-157849856D01*
X54117599Y-158086930D01*
X54155034Y-158095779D01*
X54191094Y-158109190D01*
X54277627Y-158124759D01*
X54277630Y-158124760D01*
X54277631Y-158124760D01*
X54939458Y-158201921D01*
X54980074Y-158210000D01*
X57590000Y-158210000D01*
X57590001Y-194540000D01*
X43966720Y-194540000D01*
X44210414Y-194439059D01*
X44439059Y-194210414D01*
X44562800Y-193911676D01*
X44562800Y-193588324D01*
X44439059Y-193289586D01*
X44210414Y-193060941D01*
X43911676Y-192937200D01*
X43588324Y-192937200D01*
X43289586Y-193060941D01*
X43060941Y-193289586D01*
X42937200Y-193588324D01*
X42937200Y-193911676D01*
X43060941Y-194210414D01*
X43289586Y-194439059D01*
X43533280Y-194540000D01*
X21260000Y-194540000D01*
X21260000Y-191930074D01*
X21253799Y-191898898D01*
X21246668Y-191818990D01*
X38290000Y-191818990D01*
X38290000Y-192181010D01*
X38428539Y-192515474D01*
X38684526Y-192771461D01*
X39018990Y-192910000D01*
X39381010Y-192910000D01*
X39715474Y-192771461D01*
X39971461Y-192515474D01*
X40110000Y-192181010D01*
X40110000Y-192125050D01*
X46915000Y-192125050D01*
X46915000Y-192874950D01*
X47201974Y-193567767D01*
X47732233Y-194098026D01*
X48425050Y-194385000D01*
X49174950Y-194385000D01*
X49867767Y-194098026D01*
X50398026Y-193567767D01*
X50535079Y-193236890D01*
X51008524Y-193236890D01*
X51178355Y-193646924D01*
X51568642Y-194075183D01*
X52093108Y-194321486D01*
X52323000Y-194200819D01*
X52323000Y-193007000D01*
X52577000Y-193007000D01*
X52577000Y-194200819D01*
X52806892Y-194321486D01*
X53331358Y-194075183D01*
X53721645Y-193646924D01*
X53891476Y-193236890D01*
X53770155Y-193007000D01*
X52577000Y-193007000D01*
X52323000Y-193007000D01*
X51129845Y-193007000D01*
X51008524Y-193236890D01*
X50535079Y-193236890D01*
X50685000Y-192874950D01*
X50685000Y-192125050D01*
X50398026Y-191432233D01*
X49867767Y-190901974D01*
X49174950Y-190615000D01*
X48425050Y-190615000D01*
X47732233Y-190901974D01*
X47201974Y-191432233D01*
X46915000Y-192125050D01*
X40110000Y-192125050D01*
X40110000Y-191818990D01*
X39971461Y-191484526D01*
X39715474Y-191228539D01*
X39381010Y-191090000D01*
X39018990Y-191090000D01*
X38684526Y-191228539D01*
X38428539Y-191484526D01*
X38290000Y-191818990D01*
X21246668Y-191818990D01*
X21209776Y-191405631D01*
X21203894Y-191377353D01*
X21202332Y-191348507D01*
X21182104Y-191262940D01*
X20980697Y-190597947D01*
X20965357Y-190562668D01*
X20954496Y-190525764D01*
X20915127Y-190447145D01*
X20566141Y-189846321D01*
X20543097Y-189815518D01*
X20524036Y-189782100D01*
X20467636Y-189714646D01*
X19989791Y-189210223D01*
X19960280Y-189185548D01*
X19934043Y-189157412D01*
X19863638Y-189104742D01*
X19282566Y-188723774D01*
X19248164Y-188706547D01*
X19216162Y-188685204D01*
X19135537Y-188650147D01*
X19135530Y-188650144D01*
X19135527Y-188650143D01*
X18482401Y-188413070D01*
X18444966Y-188404221D01*
X18408906Y-188390810D01*
X18322370Y-188375240D01*
X17660542Y-188298079D01*
X17619926Y-188290000D01*
X15010000Y-188290000D01*
X15010000Y-186838324D01*
X18187200Y-186838324D01*
X18187200Y-187161676D01*
X18310941Y-187460414D01*
X18539586Y-187689059D01*
X18838324Y-187812800D01*
X19161676Y-187812800D01*
X19192578Y-187800000D01*
X50935908Y-187800000D01*
X51051161Y-188379418D01*
X51379375Y-188870625D01*
X51677761Y-189070000D01*
X51379375Y-189269375D01*
X51051161Y-189760582D01*
X50935908Y-190340000D01*
X51051161Y-190919418D01*
X51379375Y-191410625D01*
X51698478Y-191623843D01*
X51568642Y-191684817D01*
X51178355Y-192113076D01*
X51008524Y-192523110D01*
X51129845Y-192753000D01*
X52323000Y-192753000D01*
X52323000Y-192733000D01*
X52577000Y-192733000D01*
X52577000Y-192753000D01*
X53770155Y-192753000D01*
X53891476Y-192523110D01*
X53721645Y-192113076D01*
X53331358Y-191684817D01*
X53201522Y-191623843D01*
X53520625Y-191410625D01*
X53848839Y-190919418D01*
X53964092Y-190340000D01*
X53848839Y-189760582D01*
X53520625Y-189269375D01*
X53222239Y-189070000D01*
X53520625Y-188870625D01*
X53848839Y-188379418D01*
X53964092Y-187800000D01*
X53848839Y-187220582D01*
X53520625Y-186729375D01*
X53502381Y-186717184D01*
X53547765Y-186708157D01*
X53757809Y-186567809D01*
X53898157Y-186357765D01*
X53947440Y-186110000D01*
X53947440Y-184410000D01*
X53898157Y-184162235D01*
X53757809Y-183952191D01*
X53547765Y-183811843D01*
X53300000Y-183762560D01*
X51600000Y-183762560D01*
X51352235Y-183811843D01*
X51142191Y-183952191D01*
X51001843Y-184162235D01*
X50952560Y-184410000D01*
X50952560Y-186110000D01*
X51001843Y-186357765D01*
X51142191Y-186567809D01*
X51352235Y-186708157D01*
X51397619Y-186717184D01*
X51379375Y-186729375D01*
X51051161Y-187220582D01*
X50935908Y-187800000D01*
X19192578Y-187800000D01*
X19460414Y-187689059D01*
X19689059Y-187460414D01*
X19812800Y-187161676D01*
X19812800Y-186838324D01*
X19689059Y-186539586D01*
X19460414Y-186310941D01*
X19161676Y-186187200D01*
X18838324Y-186187200D01*
X18539586Y-186310941D01*
X18310941Y-186539586D01*
X18187200Y-186838324D01*
X15010000Y-186838324D01*
X15010000Y-186038324D01*
X20587200Y-186038324D01*
X20587200Y-186361676D01*
X20710941Y-186660414D01*
X20939586Y-186889059D01*
X21238324Y-187012800D01*
X21561676Y-187012800D01*
X21860414Y-186889059D01*
X22089059Y-186660414D01*
X22212800Y-186361676D01*
X22212800Y-186038324D01*
X22211754Y-186035798D01*
X23274500Y-186035798D01*
X23274500Y-186364202D01*
X23400174Y-186667608D01*
X23632392Y-186899826D01*
X23935798Y-187025500D01*
X24264202Y-187025500D01*
X24567608Y-186899826D01*
X24799826Y-186667608D01*
X24925500Y-186364202D01*
X24925500Y-186035798D01*
X24799826Y-185732392D01*
X24567608Y-185500174D01*
X24264202Y-185374500D01*
X23935798Y-185374500D01*
X23632392Y-185500174D01*
X23400174Y-185732392D01*
X23274500Y-186035798D01*
X22211754Y-186035798D01*
X22089059Y-185739586D01*
X21860414Y-185510941D01*
X21561676Y-185387200D01*
X21238324Y-185387200D01*
X20939586Y-185510941D01*
X20710941Y-185739586D01*
X20587200Y-186038324D01*
X15010000Y-186038324D01*
X15010000Y-180814927D01*
X15641662Y-180814927D01*
X15675523Y-181215301D01*
X15763596Y-181427928D01*
X15965863Y-181449532D01*
X16485395Y-180930000D01*
X16471253Y-180915858D01*
X16650858Y-180736253D01*
X16665000Y-180750395D01*
X16679143Y-180736253D01*
X16858748Y-180915858D01*
X16844605Y-180930000D01*
X16858748Y-180944143D01*
X16679143Y-181123748D01*
X16665000Y-181109605D01*
X16581117Y-181193488D01*
X16379699Y-181210523D01*
X16167072Y-181298596D01*
X16145468Y-181500863D01*
X16209605Y-181565000D01*
X16145468Y-181629137D01*
X16167072Y-181831404D01*
X16549927Y-181953338D01*
X16594199Y-181949594D01*
X16665000Y-182020395D01*
X16679143Y-182006253D01*
X16858748Y-182185858D01*
X16844605Y-182200000D01*
X16858748Y-182214143D01*
X16679143Y-182393748D01*
X16665000Y-182379605D01*
X16650858Y-182393748D01*
X16471253Y-182214143D01*
X16485395Y-182200000D01*
X15965863Y-181680468D01*
X15763596Y-181702072D01*
X15641662Y-182084927D01*
X15675523Y-182485301D01*
X15763596Y-182697928D01*
X15965860Y-182719532D01*
X15848786Y-182836606D01*
X15859412Y-182847232D01*
X15808763Y-182897881D01*
X15655000Y-183269099D01*
X15655000Y-183670901D01*
X15808763Y-184042119D01*
X15859412Y-184092768D01*
X15848786Y-184103394D01*
X15965860Y-184220468D01*
X15763596Y-184242072D01*
X15641662Y-184624927D01*
X15675523Y-185025301D01*
X15763596Y-185237928D01*
X15965863Y-185259532D01*
X16485395Y-184740000D01*
X16471253Y-184725858D01*
X16650858Y-184546253D01*
X16665000Y-184560395D01*
X16679143Y-184546253D01*
X16858748Y-184725858D01*
X16844605Y-184740000D01*
X16858748Y-184754143D01*
X16679143Y-184933748D01*
X16665000Y-184919605D01*
X16145468Y-185439137D01*
X16167072Y-185641404D01*
X16549927Y-185763338D01*
X16950301Y-185729477D01*
X17162928Y-185641404D01*
X17184532Y-185439140D01*
X17301606Y-185556214D01*
X17312232Y-185545588D01*
X17362881Y-185596237D01*
X17734099Y-185750000D01*
X18135901Y-185750000D01*
X18507119Y-185596237D01*
X18765032Y-185338324D01*
X30687200Y-185338324D01*
X30687200Y-185661676D01*
X30810941Y-185960414D01*
X31039586Y-186189059D01*
X31338324Y-186312800D01*
X31661676Y-186312800D01*
X31960414Y-186189059D01*
X32189059Y-185960414D01*
X32268537Y-185768537D01*
X32460414Y-185689059D01*
X32611149Y-185538324D01*
X32687200Y-185538324D01*
X32687200Y-185861676D01*
X32810941Y-186160414D01*
X33039586Y-186389059D01*
X33338324Y-186512800D01*
X33661676Y-186512800D01*
X33900000Y-186414083D01*
X34138324Y-186512800D01*
X34461676Y-186512800D01*
X34760414Y-186389059D01*
X34874500Y-186274973D01*
X34874500Y-186564202D01*
X35000174Y-186867608D01*
X35232392Y-187099826D01*
X35535798Y-187225500D01*
X35864202Y-187225500D01*
X36167608Y-187099826D01*
X36399826Y-186867608D01*
X36525500Y-186564202D01*
X36525500Y-186235798D01*
X36399826Y-185932392D01*
X36167608Y-185700174D01*
X35864202Y-185574500D01*
X35535798Y-185574500D01*
X35232392Y-185700174D01*
X35112800Y-185819766D01*
X35112800Y-185538324D01*
X34989059Y-185239586D01*
X34760414Y-185010941D01*
X34474798Y-184892636D01*
X34499826Y-184867608D01*
X34625500Y-184564202D01*
X34625500Y-184235798D01*
X34499826Y-183932392D01*
X34303232Y-183735798D01*
X36274500Y-183735798D01*
X36274500Y-184064202D01*
X36400174Y-184367608D01*
X36632392Y-184599826D01*
X36935798Y-184725500D01*
X37264202Y-184725500D01*
X37567608Y-184599826D01*
X37799826Y-184367608D01*
X37925500Y-184064202D01*
X37925500Y-183766067D01*
X38038324Y-183812800D01*
X38361676Y-183812800D01*
X38660414Y-183689059D01*
X38889059Y-183460414D01*
X39012800Y-183161676D01*
X39012800Y-183150203D01*
X39160414Y-183089059D01*
X39389059Y-182860414D01*
X39512800Y-182561676D01*
X39512800Y-182238324D01*
X39389059Y-181939586D01*
X39160414Y-181710941D01*
X38861676Y-181587200D01*
X38538324Y-181587200D01*
X38239586Y-181710941D01*
X38010941Y-181939586D01*
X37887200Y-182238324D01*
X37887200Y-182249797D01*
X37739586Y-182310941D01*
X37510941Y-182539586D01*
X37387200Y-182838324D01*
X37387200Y-183125447D01*
X37264202Y-183074500D01*
X36935798Y-183074500D01*
X36632392Y-183200174D01*
X36400174Y-183432392D01*
X36274500Y-183735798D01*
X34303232Y-183735798D01*
X34267608Y-183700174D01*
X33964202Y-183574500D01*
X33635798Y-183574500D01*
X33332392Y-183700174D01*
X33100174Y-183932392D01*
X32974500Y-184235798D01*
X32974500Y-184564202D01*
X33100174Y-184867608D01*
X33183780Y-184951214D01*
X33039586Y-185010941D01*
X32810941Y-185239586D01*
X32687200Y-185538324D01*
X32611149Y-185538324D01*
X32689059Y-185460414D01*
X32812800Y-185161676D01*
X32812800Y-184838324D01*
X32689059Y-184539586D01*
X32460414Y-184310941D01*
X32192578Y-184200000D01*
X32460414Y-184089059D01*
X32689059Y-183860414D01*
X32812800Y-183561676D01*
X32812800Y-183238324D01*
X32689059Y-182939586D01*
X32460414Y-182710941D01*
X32161676Y-182587200D01*
X31838324Y-182587200D01*
X31539586Y-182710941D01*
X31310941Y-182939586D01*
X31187200Y-183238324D01*
X31187200Y-183561676D01*
X31310941Y-183860414D01*
X31539586Y-184089059D01*
X31807422Y-184200000D01*
X31539586Y-184310941D01*
X31310941Y-184539586D01*
X31231463Y-184731463D01*
X31039586Y-184810941D01*
X30810941Y-185039586D01*
X30687200Y-185338324D01*
X18765032Y-185338324D01*
X18791237Y-185312119D01*
X18945000Y-184940901D01*
X18945000Y-184539099D01*
X18791237Y-184167881D01*
X18728356Y-184105000D01*
X18791237Y-184042119D01*
X18945000Y-183670901D01*
X18945000Y-183269099D01*
X18791237Y-182897881D01*
X18728356Y-182835000D01*
X18791237Y-182772119D01*
X18945000Y-182400901D01*
X18945000Y-182038324D01*
X21587200Y-182038324D01*
X21587200Y-182361676D01*
X21710941Y-182660414D01*
X21939586Y-182889059D01*
X22238324Y-183012800D01*
X22561676Y-183012800D01*
X22860414Y-182889059D01*
X23089059Y-182660414D01*
X23212800Y-182361676D01*
X23212800Y-182038324D01*
X23287200Y-182038324D01*
X23287200Y-182361676D01*
X23410941Y-182660414D01*
X23639586Y-182889059D01*
X23938324Y-183012800D01*
X24261676Y-183012800D01*
X24560414Y-182889059D01*
X24789059Y-182660414D01*
X24792397Y-182652355D01*
X24938324Y-182712800D01*
X25261676Y-182712800D01*
X25560414Y-182589059D01*
X25711149Y-182438324D01*
X28087200Y-182438324D01*
X28087200Y-182761676D01*
X28210941Y-183060414D01*
X28439586Y-183289059D01*
X28738324Y-183412800D01*
X29061676Y-183412800D01*
X29360414Y-183289059D01*
X29589059Y-183060414D01*
X29712800Y-182761676D01*
X29712800Y-182750203D01*
X29860414Y-182689059D01*
X30089059Y-182460414D01*
X30189247Y-182218537D01*
X30260414Y-182189059D01*
X30489059Y-181960414D01*
X30612800Y-181661676D01*
X30612800Y-181338324D01*
X30489059Y-181039586D01*
X30260414Y-180810941D01*
X30213289Y-180791421D01*
X30460414Y-180689059D01*
X30689059Y-180460414D01*
X30812800Y-180161676D01*
X30812800Y-179838324D01*
X30689059Y-179539586D01*
X30460414Y-179310941D01*
X30161676Y-179187200D01*
X29838324Y-179187200D01*
X29539586Y-179310941D01*
X29310941Y-179539586D01*
X29187200Y-179838324D01*
X29187200Y-180161676D01*
X29203711Y-180201537D01*
X28939586Y-180310941D01*
X28710941Y-180539586D01*
X28587200Y-180838324D01*
X28587200Y-181161676D01*
X28710941Y-181460414D01*
X28750527Y-181500000D01*
X28710941Y-181539586D01*
X28587200Y-181838324D01*
X28587200Y-181849797D01*
X28439586Y-181910941D01*
X28210941Y-182139586D01*
X28087200Y-182438324D01*
X25711149Y-182438324D01*
X25789059Y-182360414D01*
X25912800Y-182061676D01*
X25912800Y-181738324D01*
X25789059Y-181439586D01*
X25560414Y-181210941D01*
X25261676Y-181087200D01*
X24938324Y-181087200D01*
X24639586Y-181210941D01*
X24410941Y-181439586D01*
X24407603Y-181447645D01*
X24261676Y-181387200D01*
X23938324Y-181387200D01*
X23639586Y-181510941D01*
X23410941Y-181739586D01*
X23287200Y-182038324D01*
X23212800Y-182038324D01*
X23089059Y-181739586D01*
X22860414Y-181510941D01*
X22561676Y-181387200D01*
X22238324Y-181387200D01*
X21939586Y-181510941D01*
X21710941Y-181739586D01*
X21587200Y-182038324D01*
X18945000Y-182038324D01*
X18945000Y-181999099D01*
X18791237Y-181627881D01*
X18728356Y-181565000D01*
X18791237Y-181502119D01*
X18945000Y-181130901D01*
X18945000Y-180729099D01*
X18791237Y-180357881D01*
X18728356Y-180295000D01*
X18791237Y-180232119D01*
X18945000Y-179860901D01*
X18945000Y-179459099D01*
X18791237Y-179087881D01*
X18507119Y-178803763D01*
X18469846Y-178788324D01*
X37437200Y-178788324D01*
X37437200Y-179111676D01*
X37560941Y-179410414D01*
X37789586Y-179639059D01*
X38088324Y-179762800D01*
X38411676Y-179762800D01*
X38565464Y-179699099D01*
X54190000Y-179699099D01*
X54190000Y-180100901D01*
X54343763Y-180472119D01*
X54627881Y-180756237D01*
X54999099Y-180910000D01*
X55400901Y-180910000D01*
X55772119Y-180756237D01*
X56056237Y-180472119D01*
X56210000Y-180100901D01*
X56210000Y-179699099D01*
X56056237Y-179327881D01*
X55772119Y-179043763D01*
X55400901Y-178890000D01*
X54999099Y-178890000D01*
X54627881Y-179043763D01*
X54343763Y-179327881D01*
X54190000Y-179699099D01*
X38565464Y-179699099D01*
X38710414Y-179639059D01*
X38939059Y-179410414D01*
X39062800Y-179111676D01*
X39062800Y-178788324D01*
X38939059Y-178489586D01*
X38710414Y-178260941D01*
X38411676Y-178137200D01*
X38088324Y-178137200D01*
X37789586Y-178260941D01*
X37560941Y-178489586D01*
X37437200Y-178788324D01*
X18469846Y-178788324D01*
X18135901Y-178650000D01*
X17734099Y-178650000D01*
X17424530Y-178778227D01*
X17287765Y-178686843D01*
X17040000Y-178637560D01*
X16290000Y-178637560D01*
X16042235Y-178686843D01*
X15832191Y-178827191D01*
X15691843Y-179037235D01*
X15642560Y-179285000D01*
X15642560Y-180035000D01*
X15691843Y-180282765D01*
X15789742Y-180429279D01*
X15763596Y-180432072D01*
X15641662Y-180814927D01*
X15010000Y-180814927D01*
X15010000Y-177238324D01*
X21187200Y-177238324D01*
X21187200Y-177561676D01*
X21310941Y-177860414D01*
X21539586Y-178089059D01*
X21838324Y-178212800D01*
X22161676Y-178212800D01*
X22460414Y-178089059D01*
X22689059Y-177860414D01*
X22812800Y-177561676D01*
X22812800Y-177238324D01*
X22729958Y-177038324D01*
X50787200Y-177038324D01*
X50787200Y-177361676D01*
X50910941Y-177660414D01*
X51139586Y-177889059D01*
X51438324Y-178012800D01*
X51761676Y-178012800D01*
X52060414Y-177889059D01*
X52289059Y-177660414D01*
X52412800Y-177361676D01*
X52412800Y-177038324D01*
X52289059Y-176739586D01*
X52060414Y-176510941D01*
X51761676Y-176387200D01*
X51438324Y-176387200D01*
X51139586Y-176510941D01*
X50910941Y-176739586D01*
X50787200Y-177038324D01*
X22729958Y-177038324D01*
X22689059Y-176939586D01*
X22460414Y-176710941D01*
X22161676Y-176587200D01*
X21838324Y-176587200D01*
X21539586Y-176710941D01*
X21310941Y-176939586D01*
X21187200Y-177238324D01*
X15010000Y-177238324D01*
X15010000Y-175668434D01*
X15279343Y-175780000D01*
X15770657Y-175780000D01*
X16224571Y-175591982D01*
X16571982Y-175244571D01*
X16760000Y-174790657D01*
X16760000Y-174299343D01*
X16571982Y-173845429D01*
X16224571Y-173498018D01*
X15770657Y-173310000D01*
X15279343Y-173310000D01*
X15010000Y-173421566D01*
X15010000Y-172764126D01*
X16790000Y-172764126D01*
X16790000Y-173175874D01*
X16947569Y-173556280D01*
X17238720Y-173847431D01*
X17619126Y-174005000D01*
X17861921Y-174005000D01*
X17740000Y-174299343D01*
X17740000Y-174790657D01*
X17928018Y-175244571D01*
X18275429Y-175591982D01*
X18729343Y-175780000D01*
X19220657Y-175780000D01*
X19674571Y-175591982D01*
X20021982Y-175244571D01*
X20210000Y-174790657D01*
X20210000Y-174538324D01*
X26587200Y-174538324D01*
X26587200Y-174861676D01*
X26710941Y-175160414D01*
X26900527Y-175350000D01*
X26860941Y-175389586D01*
X26737200Y-175688324D01*
X26737200Y-176011676D01*
X26860941Y-176310414D01*
X27089586Y-176539059D01*
X27388324Y-176662800D01*
X27711676Y-176662800D01*
X28010414Y-176539059D01*
X28239059Y-176310414D01*
X28362800Y-176011676D01*
X28362800Y-175688324D01*
X28239059Y-175389586D01*
X28049473Y-175200000D01*
X28089059Y-175160414D01*
X28212800Y-174861676D01*
X28212800Y-174538324D01*
X28089059Y-174239586D01*
X27860414Y-174010941D01*
X27561676Y-173887200D01*
X27238324Y-173887200D01*
X26939586Y-174010941D01*
X26710941Y-174239586D01*
X26587200Y-174538324D01*
X20210000Y-174538324D01*
X20210000Y-174299343D01*
X20021982Y-173845429D01*
X19674571Y-173498018D01*
X19220657Y-173310000D01*
X18804443Y-173310000D01*
X18860000Y-173175874D01*
X18860000Y-173118990D01*
X23590000Y-173118990D01*
X23590000Y-173481010D01*
X23728539Y-173815474D01*
X23984526Y-174071461D01*
X24318990Y-174210000D01*
X24681010Y-174210000D01*
X25015474Y-174071461D01*
X25248611Y-173838324D01*
X31187200Y-173838324D01*
X31187200Y-174161676D01*
X31310941Y-174460414D01*
X31539586Y-174689059D01*
X31838324Y-174812800D01*
X32161676Y-174812800D01*
X32460414Y-174689059D01*
X32689059Y-174460414D01*
X32768537Y-174268537D01*
X32960414Y-174189059D01*
X33111149Y-174038324D01*
X51187200Y-174038324D01*
X51187200Y-174361676D01*
X51310941Y-174660414D01*
X51539586Y-174889059D01*
X51838324Y-175012800D01*
X52161676Y-175012800D01*
X52460414Y-174889059D01*
X52689059Y-174660414D01*
X52763108Y-174481644D01*
X52838324Y-174512800D01*
X53161676Y-174512800D01*
X53460414Y-174389059D01*
X53689059Y-174160414D01*
X53812800Y-173861676D01*
X53812800Y-173538324D01*
X53689059Y-173239586D01*
X53460414Y-173010941D01*
X53161676Y-172887200D01*
X52838324Y-172887200D01*
X52539586Y-173010941D01*
X52310941Y-173239586D01*
X52236892Y-173418356D01*
X52161676Y-173387200D01*
X51838324Y-173387200D01*
X51539586Y-173510941D01*
X51310941Y-173739586D01*
X51187200Y-174038324D01*
X33111149Y-174038324D01*
X33189059Y-173960414D01*
X33312800Y-173661676D01*
X33312800Y-173338324D01*
X33189059Y-173039586D01*
X32960414Y-172810941D01*
X32661676Y-172687200D01*
X32338324Y-172687200D01*
X32039586Y-172810941D01*
X31810941Y-173039586D01*
X31731463Y-173231463D01*
X31539586Y-173310941D01*
X31310941Y-173539586D01*
X31187200Y-173838324D01*
X25248611Y-173838324D01*
X25271461Y-173815474D01*
X25410000Y-173481010D01*
X25410000Y-173118990D01*
X25271461Y-172784526D01*
X25015474Y-172528539D01*
X24681010Y-172390000D01*
X24318990Y-172390000D01*
X23984526Y-172528539D01*
X23728539Y-172784526D01*
X23590000Y-173118990D01*
X18860000Y-173118990D01*
X18860000Y-172764126D01*
X18702431Y-172383720D01*
X18411280Y-172092569D01*
X18030874Y-171935000D01*
X17619126Y-171935000D01*
X17238720Y-172092569D01*
X16947569Y-172383720D01*
X16790000Y-172764126D01*
X15010000Y-172764126D01*
X15010000Y-170838324D01*
X35287200Y-170838324D01*
X35287200Y-171161676D01*
X35410941Y-171460414D01*
X35639586Y-171689059D01*
X35938324Y-171812800D01*
X36261676Y-171812800D01*
X36560414Y-171689059D01*
X36789059Y-171460414D01*
X36912800Y-171161676D01*
X36912800Y-170838324D01*
X36789059Y-170539586D01*
X36560414Y-170310941D01*
X36261676Y-170187200D01*
X35938324Y-170187200D01*
X35639586Y-170310941D01*
X35410941Y-170539586D01*
X35287200Y-170838324D01*
X15010000Y-170838324D01*
X15010000Y-170138324D01*
X40187200Y-170138324D01*
X40187200Y-170461676D01*
X40310941Y-170760414D01*
X40539586Y-170989059D01*
X40838324Y-171112800D01*
X41161676Y-171112800D01*
X41460414Y-170989059D01*
X41689059Y-170760414D01*
X41812800Y-170461676D01*
X41812800Y-170138324D01*
X41689059Y-169839586D01*
X41460414Y-169610941D01*
X41161676Y-169487200D01*
X40838324Y-169487200D01*
X40539586Y-169610941D01*
X40310941Y-169839586D01*
X40187200Y-170138324D01*
X15010000Y-170138324D01*
X15010000Y-168764126D01*
X16790000Y-168764126D01*
X16790000Y-169175874D01*
X16947569Y-169556280D01*
X17238720Y-169847431D01*
X17619126Y-170005000D01*
X18030874Y-170005000D01*
X18411280Y-169847431D01*
X18702431Y-169556280D01*
X18860000Y-169175874D01*
X18860000Y-168764126D01*
X18807891Y-168638324D01*
X21887200Y-168638324D01*
X21887200Y-168961676D01*
X22010941Y-169260414D01*
X22239586Y-169489059D01*
X22538324Y-169612800D01*
X22825865Y-169612800D01*
X22984526Y-169771461D01*
X23318990Y-169910000D01*
X23681010Y-169910000D01*
X24015474Y-169771461D01*
X24271461Y-169515474D01*
X24410000Y-169181010D01*
X24410000Y-169135798D01*
X42474500Y-169135798D01*
X42474500Y-169464202D01*
X42600174Y-169767608D01*
X42832392Y-169999826D01*
X43038336Y-170085130D01*
X43110941Y-170260414D01*
X43339586Y-170489059D01*
X43638324Y-170612800D01*
X43961676Y-170612800D01*
X44260414Y-170489059D01*
X44489059Y-170260414D01*
X44612800Y-169961676D01*
X44612800Y-169638324D01*
X44489059Y-169339586D01*
X44260414Y-169110941D01*
X44085130Y-169038336D01*
X43999826Y-168832392D01*
X43767608Y-168600174D01*
X43464202Y-168474500D01*
X43135798Y-168474500D01*
X42832392Y-168600174D01*
X42600174Y-168832392D01*
X42474500Y-169135798D01*
X24410000Y-169135798D01*
X24410000Y-168818990D01*
X24271461Y-168484526D01*
X24015474Y-168228539D01*
X23681010Y-168090000D01*
X23318990Y-168090000D01*
X23192052Y-168142579D01*
X23160414Y-168110941D01*
X22861676Y-167987200D01*
X22538324Y-167987200D01*
X22239586Y-168110941D01*
X22010941Y-168339586D01*
X21887200Y-168638324D01*
X18807891Y-168638324D01*
X18804443Y-168630000D01*
X19220657Y-168630000D01*
X19674571Y-168441982D01*
X20021982Y-168094571D01*
X20210000Y-167640657D01*
X20210000Y-167149343D01*
X20021982Y-166695429D01*
X19674571Y-166348018D01*
X19220657Y-166160000D01*
X18729343Y-166160000D01*
X18275429Y-166348018D01*
X17928018Y-166695429D01*
X17740000Y-167149343D01*
X17740000Y-167640657D01*
X17861921Y-167935000D01*
X17619126Y-167935000D01*
X17238720Y-168092569D01*
X16947569Y-168383720D01*
X16790000Y-168764126D01*
X15010000Y-168764126D01*
X15010000Y-168518434D01*
X15279343Y-168630000D01*
X15770657Y-168630000D01*
X16224571Y-168441982D01*
X16571982Y-168094571D01*
X16760000Y-167640657D01*
X16760000Y-167149343D01*
X16571982Y-166695429D01*
X16224571Y-166348018D01*
X15770657Y-166160000D01*
X15279343Y-166160000D01*
X15010000Y-166271566D01*
X15010000Y-165018990D01*
X19890000Y-165018990D01*
X19890000Y-165381010D01*
X20028539Y-165715474D01*
X20284526Y-165971461D01*
X20618990Y-166110000D01*
X20981010Y-166110000D01*
X21033340Y-166088324D01*
X37437200Y-166088324D01*
X37437200Y-166411676D01*
X37560941Y-166710414D01*
X37789586Y-166939059D01*
X38088324Y-167062800D01*
X38411676Y-167062800D01*
X38710414Y-166939059D01*
X38939059Y-166710414D01*
X39062800Y-166411676D01*
X39062800Y-166088324D01*
X41937200Y-166088324D01*
X41937200Y-166411676D01*
X42060941Y-166710414D01*
X42289586Y-166939059D01*
X42588324Y-167062800D01*
X42911676Y-167062800D01*
X43210414Y-166939059D01*
X43415522Y-166733951D01*
X43450174Y-166817608D01*
X43682392Y-167049826D01*
X43985798Y-167175500D01*
X44314202Y-167175500D01*
X44617608Y-167049826D01*
X44849826Y-166817608D01*
X44975500Y-166514202D01*
X44975500Y-166185798D01*
X47824500Y-166185798D01*
X47824500Y-166514202D01*
X47950174Y-166817608D01*
X48182392Y-167049826D01*
X48485798Y-167175500D01*
X48814202Y-167175500D01*
X49117608Y-167049826D01*
X49349826Y-166817608D01*
X49475500Y-166514202D01*
X49475500Y-166420820D01*
X49767608Y-166299826D01*
X49999826Y-166067608D01*
X50125500Y-165764202D01*
X50125500Y-165435798D01*
X49999826Y-165132392D01*
X49767608Y-164900174D01*
X49464202Y-164774500D01*
X49135798Y-164774500D01*
X48832392Y-164900174D01*
X48600174Y-165132392D01*
X48474500Y-165435798D01*
X48474500Y-165529180D01*
X48182392Y-165650174D01*
X47950174Y-165882392D01*
X47824500Y-166185798D01*
X44975500Y-166185798D01*
X44849826Y-165882392D01*
X44617608Y-165650174D01*
X44314202Y-165524500D01*
X43985798Y-165524500D01*
X43682392Y-165650174D01*
X43469497Y-165863069D01*
X43439059Y-165789586D01*
X43274973Y-165625500D01*
X43564202Y-165625500D01*
X43867608Y-165499826D01*
X44099826Y-165267608D01*
X44153377Y-165138324D01*
X46187200Y-165138324D01*
X46187200Y-165461676D01*
X46310941Y-165760414D01*
X46539586Y-165989059D01*
X46838324Y-166112800D01*
X47161676Y-166112800D01*
X47460414Y-165989059D01*
X47689059Y-165760414D01*
X47812800Y-165461676D01*
X47812800Y-165138324D01*
X47689059Y-164839586D01*
X47460414Y-164610941D01*
X47161676Y-164487200D01*
X46838324Y-164487200D01*
X46539586Y-164610941D01*
X46310941Y-164839586D01*
X46187200Y-165138324D01*
X44153377Y-165138324D01*
X44158689Y-165125500D01*
X44264202Y-165125500D01*
X44567608Y-164999826D01*
X44799826Y-164767608D01*
X44925500Y-164464202D01*
X44925500Y-164135798D01*
X44801237Y-163835798D01*
X47974500Y-163835798D01*
X47974500Y-164164202D01*
X48100174Y-164467608D01*
X48332392Y-164699826D01*
X48635798Y-164825500D01*
X48964202Y-164825500D01*
X49267608Y-164699826D01*
X49499826Y-164467608D01*
X49625500Y-164164202D01*
X49625500Y-163835798D01*
X49499826Y-163532392D01*
X49267608Y-163300174D01*
X48964202Y-163174500D01*
X48635798Y-163174500D01*
X48332392Y-163300174D01*
X48100174Y-163532392D01*
X47974500Y-163835798D01*
X44801237Y-163835798D01*
X44799826Y-163832392D01*
X44567608Y-163600174D01*
X44264202Y-163474500D01*
X43935798Y-163474500D01*
X43632392Y-163600174D01*
X43400174Y-163832392D01*
X43341311Y-163974500D01*
X43235798Y-163974500D01*
X42932392Y-164100174D01*
X42700174Y-164332392D01*
X42574500Y-164635798D01*
X42574500Y-164964202D01*
X42700174Y-165267608D01*
X42869766Y-165437200D01*
X42588324Y-165437200D01*
X42289586Y-165560941D01*
X42060941Y-165789586D01*
X41937200Y-166088324D01*
X39062800Y-166088324D01*
X38939059Y-165789586D01*
X38710414Y-165560941D01*
X38411676Y-165437200D01*
X38088324Y-165437200D01*
X37789586Y-165560941D01*
X37560941Y-165789586D01*
X37437200Y-166088324D01*
X21033340Y-166088324D01*
X21315474Y-165971461D01*
X21571461Y-165715474D01*
X21710000Y-165381010D01*
X21710000Y-165018990D01*
X21571461Y-164684526D01*
X21315474Y-164428539D01*
X20981010Y-164290000D01*
X20618990Y-164290000D01*
X20284526Y-164428539D01*
X20028539Y-164684526D01*
X19890000Y-165018990D01*
X15010000Y-165018990D01*
X15010000Y-160435798D01*
X34274500Y-160435798D01*
X34274500Y-160764202D01*
X34400174Y-161067608D01*
X34632392Y-161299826D01*
X34935798Y-161425500D01*
X35264202Y-161425500D01*
X35567608Y-161299826D01*
X35779110Y-161088324D01*
X37437200Y-161088324D01*
X37437200Y-161411676D01*
X37560941Y-161710414D01*
X37789586Y-161939059D01*
X38088324Y-162062800D01*
X38411676Y-162062800D01*
X38710414Y-161939059D01*
X38939059Y-161710414D01*
X39062800Y-161411676D01*
X39062800Y-161088324D01*
X39042090Y-161038324D01*
X41687200Y-161038324D01*
X41687200Y-161361676D01*
X41810941Y-161660414D01*
X42039586Y-161889059D01*
X42338324Y-162012800D01*
X42661676Y-162012800D01*
X42960414Y-161889059D01*
X43189059Y-161660414D01*
X43312800Y-161361676D01*
X43312800Y-161088324D01*
X43337200Y-161088324D01*
X43337200Y-161411676D01*
X43460941Y-161710414D01*
X43689586Y-161939059D01*
X43988324Y-162062800D01*
X44311676Y-162062800D01*
X44610414Y-161939059D01*
X44839059Y-161710414D01*
X44962800Y-161411676D01*
X44962800Y-161088324D01*
X44942090Y-161038324D01*
X47587200Y-161038324D01*
X47587200Y-161361676D01*
X47710941Y-161660414D01*
X47939586Y-161889059D01*
X48238324Y-162012800D01*
X48561676Y-162012800D01*
X48860414Y-161889059D01*
X49089059Y-161660414D01*
X49212800Y-161361676D01*
X49212800Y-161259099D01*
X53955000Y-161259099D01*
X53955000Y-161660901D01*
X54108763Y-162032119D01*
X54171644Y-162095000D01*
X54108763Y-162157881D01*
X53955000Y-162529099D01*
X53955000Y-162930901D01*
X54108763Y-163302119D01*
X54171644Y-163365000D01*
X54108763Y-163427881D01*
X53955000Y-163799099D01*
X53955000Y-164200901D01*
X54108763Y-164572119D01*
X54171644Y-164635000D01*
X54108763Y-164697881D01*
X53955000Y-165069099D01*
X53955000Y-165470901D01*
X54108763Y-165842119D01*
X54171644Y-165905000D01*
X54108763Y-165967881D01*
X53955000Y-166339099D01*
X53955000Y-166740901D01*
X54108763Y-167112119D01*
X54392881Y-167396237D01*
X54764099Y-167550000D01*
X55165901Y-167550000D01*
X55475470Y-167421773D01*
X55612235Y-167513157D01*
X55860000Y-167562440D01*
X56610000Y-167562440D01*
X56857765Y-167513157D01*
X57067809Y-167372809D01*
X57208157Y-167162765D01*
X57257440Y-166915000D01*
X57257440Y-166165000D01*
X57208157Y-165917235D01*
X57110258Y-165770721D01*
X57136404Y-165767928D01*
X57258338Y-165385073D01*
X57224477Y-164984699D01*
X57136404Y-164772072D01*
X56934137Y-164750468D01*
X56414605Y-165270000D01*
X56428748Y-165284143D01*
X56249143Y-165463748D01*
X56235000Y-165449605D01*
X56220858Y-165463748D01*
X56041253Y-165284143D01*
X56055395Y-165270000D01*
X56041253Y-165255858D01*
X56220858Y-165076253D01*
X56235000Y-165090395D01*
X56318883Y-165006512D01*
X56520301Y-164989477D01*
X56732928Y-164901404D01*
X56754532Y-164699137D01*
X56690395Y-164635000D01*
X56754532Y-164570863D01*
X56732928Y-164368596D01*
X56350073Y-164246662D01*
X56305801Y-164250406D01*
X56235000Y-164179605D01*
X56220858Y-164193748D01*
X56041253Y-164014143D01*
X56055395Y-164000000D01*
X56041253Y-163985858D01*
X56220858Y-163806253D01*
X56235000Y-163820395D01*
X56249143Y-163806253D01*
X56428748Y-163985858D01*
X56414605Y-164000000D01*
X56934137Y-164519532D01*
X57136404Y-164497928D01*
X57258338Y-164115073D01*
X57224477Y-163714699D01*
X57136404Y-163502072D01*
X56934140Y-163480468D01*
X57051214Y-163363394D01*
X57040588Y-163352768D01*
X57091237Y-163302119D01*
X57245000Y-162930901D01*
X57245000Y-162529099D01*
X57091237Y-162157881D01*
X57040588Y-162107232D01*
X57051214Y-162096606D01*
X56934140Y-161979532D01*
X57136404Y-161957928D01*
X57258338Y-161575073D01*
X57224477Y-161174699D01*
X57136404Y-160962072D01*
X56934137Y-160940468D01*
X56414605Y-161460000D01*
X56428748Y-161474143D01*
X56249143Y-161653748D01*
X56235000Y-161639605D01*
X56220858Y-161653748D01*
X56041253Y-161474143D01*
X56055395Y-161460000D01*
X56041253Y-161445858D01*
X56220858Y-161266253D01*
X56235000Y-161280395D01*
X56754532Y-160760863D01*
X56732928Y-160558596D01*
X56350073Y-160436662D01*
X55949699Y-160470523D01*
X55737072Y-160558596D01*
X55715468Y-160760860D01*
X55598394Y-160643786D01*
X55587768Y-160654412D01*
X55537119Y-160603763D01*
X55165901Y-160450000D01*
X54764099Y-160450000D01*
X54392881Y-160603763D01*
X54108763Y-160887881D01*
X53955000Y-161259099D01*
X49212800Y-161259099D01*
X49212800Y-161038324D01*
X49089059Y-160739586D01*
X48860414Y-160510941D01*
X48561676Y-160387200D01*
X48238324Y-160387200D01*
X47939586Y-160510941D01*
X47710941Y-160739586D01*
X47587200Y-161038324D01*
X44942090Y-161038324D01*
X44839059Y-160789586D01*
X44610414Y-160560941D01*
X44311676Y-160437200D01*
X43988324Y-160437200D01*
X43689586Y-160560941D01*
X43460941Y-160789586D01*
X43337200Y-161088324D01*
X43312800Y-161088324D01*
X43312800Y-161038324D01*
X43189059Y-160739586D01*
X42960414Y-160510941D01*
X42661676Y-160387200D01*
X42338324Y-160387200D01*
X42039586Y-160510941D01*
X41810941Y-160739586D01*
X41687200Y-161038324D01*
X39042090Y-161038324D01*
X38939059Y-160789586D01*
X38710414Y-160560941D01*
X38411676Y-160437200D01*
X38088324Y-160437200D01*
X37789586Y-160560941D01*
X37560941Y-160789586D01*
X37437200Y-161088324D01*
X35779110Y-161088324D01*
X35799826Y-161067608D01*
X35925500Y-160764202D01*
X35925500Y-160435798D01*
X35799826Y-160132392D01*
X35567608Y-159900174D01*
X35264202Y-159774500D01*
X34935798Y-159774500D01*
X34632392Y-159900174D01*
X34400174Y-160132392D01*
X34274500Y-160435798D01*
X15010000Y-160435798D01*
X15010000Y-159535798D01*
X35974500Y-159535798D01*
X35974500Y-159864202D01*
X36100174Y-160167608D01*
X36332392Y-160399826D01*
X36635798Y-160525500D01*
X36964202Y-160525500D01*
X37267608Y-160399826D01*
X37499826Y-160167608D01*
X37625500Y-159864202D01*
X37625500Y-159535798D01*
X37499826Y-159232392D01*
X37267608Y-159000174D01*
X36964202Y-158874500D01*
X36635798Y-158874500D01*
X36332392Y-159000174D01*
X36100174Y-159232392D01*
X35974500Y-159535798D01*
X15010000Y-159535798D01*
X15010000Y-157599099D01*
X23290000Y-157599099D01*
X23290000Y-158000901D01*
X23443763Y-158372119D01*
X23727881Y-158656237D01*
X24099099Y-158810000D01*
X24500901Y-158810000D01*
X24872119Y-158656237D01*
X25156237Y-158372119D01*
X25310000Y-158000901D01*
X25310000Y-157599099D01*
X25156237Y-157227881D01*
X24872119Y-156943763D01*
X24500901Y-156790000D01*
X24099099Y-156790000D01*
X23727881Y-156943763D01*
X23443763Y-157227881D01*
X23290000Y-157599099D01*
X15010000Y-157599099D01*
X15010000Y-153625050D01*
X21915000Y-153625050D01*
X21915000Y-154374950D01*
X22201974Y-155067767D01*
X22732233Y-155598026D01*
X23425050Y-155885000D01*
X24174950Y-155885000D01*
X24867767Y-155598026D01*
X25398026Y-155067767D01*
X25685000Y-154374950D01*
X25685000Y-154038324D01*
X26187200Y-154038324D01*
X26187200Y-154361676D01*
X26310941Y-154660414D01*
X26539586Y-154889059D01*
X26807422Y-155000000D01*
X26539586Y-155110941D01*
X26310941Y-155339586D01*
X26187200Y-155638324D01*
X26187200Y-155961676D01*
X26310941Y-156260414D01*
X26539586Y-156489059D01*
X26807422Y-156600000D01*
X26539586Y-156710941D01*
X26310941Y-156939586D01*
X26187200Y-157238324D01*
X26187200Y-157561676D01*
X26310941Y-157860414D01*
X26539586Y-158089059D01*
X26838324Y-158212800D01*
X27161676Y-158212800D01*
X27460414Y-158089059D01*
X27511149Y-158038324D01*
X43687200Y-158038324D01*
X43687200Y-158361676D01*
X43810941Y-158660414D01*
X44039586Y-158889059D01*
X44338324Y-159012800D01*
X44661676Y-159012800D01*
X44960414Y-158889059D01*
X45189059Y-158660414D01*
X45312800Y-158361676D01*
X45312800Y-158038324D01*
X45189059Y-157739586D01*
X44960414Y-157510941D01*
X44661676Y-157387200D01*
X44338324Y-157387200D01*
X44039586Y-157510941D01*
X43810941Y-157739586D01*
X43687200Y-158038324D01*
X27511149Y-158038324D01*
X27689059Y-157860414D01*
X27812800Y-157561676D01*
X27812800Y-157238324D01*
X27689059Y-156939586D01*
X27460414Y-156710941D01*
X27192578Y-156600000D01*
X27460414Y-156489059D01*
X27689059Y-156260414D01*
X27812800Y-155961676D01*
X27812800Y-155638324D01*
X27689059Y-155339586D01*
X27460414Y-155110941D01*
X27192578Y-155000000D01*
X27460414Y-154889059D01*
X27689059Y-154660414D01*
X27812800Y-154361676D01*
X27812800Y-154038324D01*
X27689059Y-153739586D01*
X27460414Y-153510941D01*
X27161676Y-153387200D01*
X26838324Y-153387200D01*
X26539586Y-153510941D01*
X26310941Y-153739586D01*
X26187200Y-154038324D01*
X25685000Y-154038324D01*
X25685000Y-153625050D01*
X25558955Y-153320750D01*
X32755000Y-153320750D01*
X32755000Y-154061309D01*
X32851673Y-154294698D01*
X33030301Y-154473327D01*
X33165044Y-154529139D01*
X32988690Y-154705493D01*
X32755000Y-155269670D01*
X32755000Y-155880330D01*
X32988690Y-156444507D01*
X33420493Y-156876310D01*
X33984670Y-157110000D01*
X34595330Y-157110000D01*
X35159507Y-156876310D01*
X35591310Y-156444507D01*
X35825000Y-155880330D01*
X35825000Y-155269670D01*
X35591310Y-154705493D01*
X35414956Y-154529139D01*
X35549699Y-154473327D01*
X35728327Y-154294698D01*
X35825000Y-154061309D01*
X35825000Y-153320750D01*
X37835000Y-153320750D01*
X37835000Y-154061309D01*
X37931673Y-154294698D01*
X38110301Y-154473327D01*
X38245044Y-154529139D01*
X38068690Y-154705493D01*
X37835000Y-155269670D01*
X37835000Y-155880330D01*
X38068690Y-156444507D01*
X38500493Y-156876310D01*
X39064670Y-157110000D01*
X39675330Y-157110000D01*
X40239507Y-156876310D01*
X40671310Y-156444507D01*
X40905000Y-155880330D01*
X40905000Y-155269670D01*
X40671310Y-154705493D01*
X40494956Y-154529139D01*
X40629699Y-154473327D01*
X40808327Y-154294698D01*
X40905000Y-154061309D01*
X40905000Y-153320750D01*
X42915000Y-153320750D01*
X42915000Y-154061309D01*
X43011673Y-154294698D01*
X43190301Y-154473327D01*
X43325044Y-154529139D01*
X43148690Y-154705493D01*
X42915000Y-155269670D01*
X42915000Y-155880330D01*
X43148690Y-156444507D01*
X43580493Y-156876310D01*
X44144670Y-157110000D01*
X44755330Y-157110000D01*
X45319507Y-156876310D01*
X45751310Y-156444507D01*
X45985000Y-155880330D01*
X45985000Y-155269670D01*
X45751310Y-154705493D01*
X45574956Y-154529139D01*
X45709699Y-154473327D01*
X45888327Y-154294698D01*
X45985000Y-154061309D01*
X45985000Y-153320750D01*
X47995000Y-153320750D01*
X47995000Y-154061309D01*
X48091673Y-154294698D01*
X48270301Y-154473327D01*
X48405044Y-154529139D01*
X48228690Y-154705493D01*
X47995000Y-155269670D01*
X47995000Y-155880330D01*
X48228690Y-156444507D01*
X48660493Y-156876310D01*
X48741843Y-156910006D01*
X48739586Y-156910941D01*
X48510941Y-157139586D01*
X48387200Y-157438324D01*
X48387200Y-157761676D01*
X48510941Y-158060414D01*
X48739586Y-158289059D01*
X49038324Y-158412800D01*
X49361676Y-158412800D01*
X49660414Y-158289059D01*
X49889059Y-158060414D01*
X50012800Y-157761676D01*
X50012800Y-157438324D01*
X49889059Y-157139586D01*
X49852402Y-157102929D01*
X50399507Y-156876310D01*
X50831310Y-156444507D01*
X51065000Y-155880330D01*
X51065000Y-155269670D01*
X50831310Y-154705493D01*
X50654956Y-154529139D01*
X50789699Y-154473327D01*
X50968327Y-154294698D01*
X51065000Y-154061309D01*
X51065000Y-153320750D01*
X50906250Y-153162000D01*
X49657000Y-153162000D01*
X49657000Y-153182000D01*
X49403000Y-153182000D01*
X49403000Y-153162000D01*
X48153750Y-153162000D01*
X47995000Y-153320750D01*
X45985000Y-153320750D01*
X45826250Y-153162000D01*
X44577000Y-153162000D01*
X44577000Y-153182000D01*
X44323000Y-153182000D01*
X44323000Y-153162000D01*
X43073750Y-153162000D01*
X42915000Y-153320750D01*
X40905000Y-153320750D01*
X40746250Y-153162000D01*
X39497000Y-153162000D01*
X39497000Y-153182000D01*
X39243000Y-153182000D01*
X39243000Y-153162000D01*
X37993750Y-153162000D01*
X37835000Y-153320750D01*
X35825000Y-153320750D01*
X35666250Y-153162000D01*
X34417000Y-153162000D01*
X34417000Y-153182000D01*
X34163000Y-153182000D01*
X34163000Y-153162000D01*
X32913750Y-153162000D01*
X32755000Y-153320750D01*
X25558955Y-153320750D01*
X25398026Y-152932233D01*
X24867767Y-152401974D01*
X24174950Y-152115000D01*
X23425050Y-152115000D01*
X22732233Y-152401974D01*
X22201974Y-152932233D01*
X21915000Y-153625050D01*
X15010000Y-153625050D01*
X15010000Y-151960000D01*
X32775168Y-151960000D01*
X32755000Y-152008691D01*
%TD*%
M02*
